<?xml version="1.0" encoding="UTF-8"?>
<svg xmlns="http://www.w3.org/2000/svg" viewBox="0 0 1072.34 780.14">
  <path fill="#6c63ff" d="M1054.17 623.33c-26.56 54.81-80.52 91.46-136.42 115.63a503.33 503.33 0 0 1-140.45 37.48q-13.9 1.65-27.89 2.56a540.92 540.92 0 0 1-71.57-.08q-21.5-1.43-42.85-4.57a540.44 540.44 0 0 1-143.27-41.72q-19.74-8.89-38.68-19.41a494.85 494.85 0 0 1-60.46-39.54q-6.36-4.86-12.56-9.93l-1.7-1.39c-3.25-2.68-6.47-5.42-9.74-8.08a141.6 141.6 0 0 0-17.26-12.38c-.41-.24-.82-.48-1.24-.71-1.12-.65-2.26-1.26-3.42-1.84a78.31 78.31 0 0 0-7.34-3.24c-11.55-4.4-23.92-6-36.46-5.73-2.08 0-4.16.14-6.25.28-2.92.2-5.85.5-8.77.88l-1.08.15a198.77 198.77 0 0 0-27.53 5.91c-13.94 4-27.63 9-41.41 13.51-5.85 1.93-11.71 3.77-17.62 5.42l-1.3.36a192.87 192.87 0 0 1-25.61 5.36 142.7 142.7 0 0 1-58.61-4.72l-.66-.19-1.22-.36-1.67-.52q-4.2-1.32-8.33-2.89l-1.67-.64q-4-1.54-7.83-3.31l-1.67-.76q-4-1.86-7.83-3.93c-.92-.48-1.83-1-2.73-1.49q-4.08-2.28-8-4.78-4.16-2.65-8.14-5.53-1.84-1.32-3.64-2.71a161.36 161.36 0 0 1-19.37-17.47c-.33-.33-.64-.67-.95-1-1.59-1.72-3.15-3.47-4.66-5.26-.56-.66-1.12-1.32-1.67-2q-2.69-3.28-5.19-6.71c-.25-.33-.49-.67-.73-1a144.59 144.59 0 0 1-16.87-30.5c-.14-.33-.27-.67-.39-1q-2-5.15-3.65-10.47c-.45-1.48-.88-3-1.26-4.48-.13-.44-.25-.89-.36-1.33C.67 527.47.04 504.88.04 482.42v-7.85c.16-36.33.72-73.28 6.08-109.11 0-.25.07-.5.11-.74a340.76 340.76 0 0 1 7.31-35.82 264.25 264.25 0 0 1 12.31-36.3c12.33-29 30.26-55.39 50.17-79.85 24-29.43 51.5-56.59 82.13-79q6.6-4.83 13.38-9.38l2.09-1.37c.73-.49 1.46-1 2.19-1.43 1.5-1 3-1.94 4.52-2.89l1.7-1.06 3.24-2 1-.57 1.73-1 1.71-1q3-1.77 6.07-3.46 13.11-7.31 26.84-13.36 4.05-1.79 8.15-3.45a287.43 287.43 0 0 1 38.15-12.51q7.2-1.82 14.49-3.2 8.6-1.66 17.29-2.75a274.38 274.38 0 0 1 27.78-2.07c65.32-1.59 131.3 19.67 182.49 60.42 20.4 16.24 38.73 35.47 61.64 47.92 20 10.84 43.41 15.33 64.83 6.8 17.7-7.05 29.22-10.55 49.1-9.48a411.56 411.56 0 0 1 120.31 25.16c1.56.57 3.12 1.16 4.67 1.75 100.71 38.55 187.3 115.1 232.28 213.47q1.78 3.9 3.47 7.86c26.83 62.65 36.51 136.1 6.9 197.18Z" opacity=".1"/>
  <path fill="#6c63ff" d="M200.17 277.39v379.16l-1.3.36a192.87 192.87 0 0 1-25.61 5.36 142.7 142.7 0 0 1-58.61-4.72l-.66-.19-1.22-.36-1.67-.52q-4.2-1.32-8.33-2.89l-1.67-.64q-4-1.54-7.83-3.31l-1.67-.76q-4-1.86-7.83-3.93c-.92-.48-1.83-1-2.73-1.49q-4.08-2.28-8-4.78-4.16-2.65-8.14-5.53-1.84-1.32-3.64-2.71a161.36 161.36 0 0 1-19.37-17.47c-.33-.33-.64-.67-.95-1-1.59-1.72-3.15-3.47-4.66-5.26-.56-.66-1.12-1.32-1.67-2q-2.69-3.28-5.19-6.71c-.25-.33-.49-.67-.73-1a144.59 144.59 0 0 1-16.87-30.5c-.14-.33-.27-.67-.39-1q-2-5.15-3.65-10.47c-.45-1.48-.88-3-1.26-4.48-.13-.44-.25-.89-.36-1.33C.64 527.49.01 504.9.01 482.44v-7.85c.16-36.33.72-73.28 6.08-109.11 0-.25.07-.5.11-.74a340.76 340.76 0 0 1 7.31-35.82h102.12v-51.53h20.36V236h43.82v41.39ZM1054.17 623.33c-26.56 54.81-80.52 91.46-136.42 115.63a503.33 503.33 0 0 1-140.45 37.48q-13.9 1.65-27.89 2.56a540.92 540.92 0 0 1-71.57-.08q-21.5-1.43-42.85-4.57a540.44 540.44 0 0 1-143.27-41.72q-19.74-8.89-38.68-19.41a494.85 494.85 0 0 1-60.46-39.54q-6.36-4.86-12.56-9.93l-1.7-1.39c-3.25-2.68-6.47-5.42-9.74-8.08a141.6 141.6 0 0 0-17.26-12.38c-.41-.24-.82-.48-1.24-.71-1.12-.65-2.26-1.26-3.42-1.84a78.31 78.31 0 0 0-7.34-3.24V481h185.59v34.53h81.45V262.95h95.87v101h47.42v-59.8h39.18v-63.88h18v-37.2c1.56.57 3.12 1.16 4.67 1.75v35.45h17.52v63.92h39.15v59.8h57.73v227.83h91.76V426.13h29.57c26.87 62.67 36.55 136.12 6.94 197.2Z" opacity=".1"/>
  <path fill="#6c63ff" d="M635.01 300.96h42.85v42.85h-42.85zM635.01 389.78h42.85v42.85h-42.85zM635.01 478.61h42.85v42.85h-42.85zM635.01 567.44h42.85v42.85h-42.85zM635.01 656.26h42.85v42.85h-42.85zM677.86 745.07v33.84q-21.5-1.43-42.85-4.57v-29.27ZM353.45 536.38h149.99v19.41H353.45zM353.45 595.33h149.99v19.41H353.45zM503.44 654.28v19.4H392.6q-6.36-4.86-12.56-9.93l-1.7-1.39c-3.25-2.68-6.47-5.42-9.74-8.08ZM503.44 713.22v19.41h-11.7q-19.74-8.89-38.68-19.41ZM749.43 416.99h27.89v27.89h-27.89zM145.43 287.01h27.89v27.89h-27.89zM145.43 351.81h27.89v27.89h-27.89zM145.43 416.6h27.89v27.89h-27.89zM145.43 481.4h27.89v27.89h-27.89zM145.43 546.2h27.89v27.89h-27.89zM145.43 610.99h27.89v27.89h-27.89zM855.92 416.99h27.89v27.89h-27.89zM749.43 485.79h27.89v27.89h-27.89zM855.92 485.79h27.89v27.89h-27.89zM749.43 554.6h27.89v27.89h-27.89zM855.92 554.6h27.89v27.89h-27.89zM749.43 623.41h27.89v27.89h-27.89zM855.92 623.41h27.89v27.89h-27.89zM749.43 692.21h27.89v27.89h-27.89zM855.92 692.21h27.89v27.89h-27.89zM749.43 779v-17.99h27.89v15.43L749.43 779zM6.1 364.75v16h106.67v-16Zm9.5 15H7.77v-14h7.83Zm9.5 0h-7.83v-14h7.83Zm9.5 0h-7.83v-14h7.83Zm9.5 0h-7.83v-14h7.83Zm9.5 0h-7.83v-14h7.83Zm9.5 0h-7.83v-14h7.83Zm9.5 0h-7.83v-14h7.83Zm9.5 0h-7.83v-14h7.83Zm9.5 0h-7.83v-14h7.83Zm9.5 0h-7.83v-14h7.83Zm10 0h-8.33v-14h8.33ZM6.1 411.21v15.95h106.67v-15.95Zm9.5 14.95H7.77v-13.95h7.83Zm9.5 0h-7.83v-13.95h7.83Zm9.5 0h-7.83v-13.95h7.83Zm9.5 0h-7.83v-13.95h7.83Zm9.5 0h-7.83v-13.95h7.83Zm9.5 0h-7.83v-13.95h7.83Zm9.5 0h-7.83v-13.95h7.83Zm9.5 0h-7.83v-13.95h7.83Zm9.5 0h-7.83v-13.95h7.83Zm9.5 0h-7.83v-13.95h7.83Zm10 0h-8.33v-13.95h8.33ZM6.1 457.66v15.95h106.67v-15.95Zm9.5 14.95H7.77v-13.95h7.83Zm9.5 0h-7.83v-13.95h7.83Zm9.5 0h-7.83v-13.95h7.83Zm9.5 0h-7.83v-13.95h7.83Zm9.5 0h-7.83v-13.95h7.83Zm9.5 0h-7.83v-13.95h7.83Zm9.5 0h-7.83v-13.95h7.83Zm9.5 0h-7.83v-13.95h7.83Zm9.5 0h-7.83v-13.95h7.83Zm9.5 0h-7.83v-13.95h7.83Zm10 0h-8.33v-13.95h8.33ZM6.1 504.07v16h106.67v-16Zm9.5 15H7.77v-14h7.83Zm9.5 0h-7.83v-14h7.83Zm9.5 0h-7.83v-14h7.83Zm9.5 0h-7.83v-14h7.83Zm9.5 0h-7.83v-14h7.83Zm9.5 0h-7.83v-14h7.83Zm9.5 0h-7.83v-14h7.83Zm9.5 0h-7.83v-14h7.83Zm9.5 0h-7.83v-14h7.83Zm9.5 0h-7.83v-14h7.83Zm10 0h-8.33v-14h8.33ZM6.51 550.56c.38 1.5.81 3 1.26 4.48v-3.48h7.83v14h-4.18c.12.33.25.67.39 1h101v-16Zm18.59 15h-7.83v-14h7.83Zm9.5 0h-7.83v-14h7.83Zm9.5 0h-7.83v-14h7.83Zm9.5 0h-7.83v-14h7.83Zm9.5 0h-7.83v-14h7.83Zm9.5 0h-7.83v-14h7.83Zm9.5 0h-7.83v-14h7.83Zm9.5 0h-7.83v-14h7.83Zm9.5 0h-7.83v-14h7.83Zm10 0h-8.33v-14h8.33ZM28.68 597.01c.24.33.48.67.73 1h5.19v6.71c.55.67 1.11 1.33 1.67 2v-8.7h7.83v14h-3.17c.31.33.62.67.95 1h70.89v-16Zm24.92 15h-7.83v-14h7.83Zm9.5 0h-7.83v-14h7.83Zm9.5 0h-7.83v-14h7.83Zm9.5 0h-7.83v-14h7.83Zm9.5 0h-7.83v-14h7.83Zm9.5 0h-7.83v-14h7.83Zm10 0h-8.33v-14h8.33ZM81.04 643.46c.9.51 1.81 1 2.73 1.49v-.49h7.83v4.42l1.67.76v-5.18h7.83v8.49l1.67.64v-9.13h8.33v12l1.67.52v-13.52ZM409.96 226.24s-23.84-1.44-21 15.26a4.08 4.08 0 0 0 2.12 4.3s0-1.24 2.44-.82a11.15 11.15 0 0 0 2.59.12 5.39 5.39 0 0 0 3.17-1.3s6.7-2.77 9.31-13.72c0 0 1.92-2.39 1.85-3l-4 1.72s1.38 2.9.3 5.31c0 0-.13-5.2-.91-5.08-.15 0-2.09 1-2.09 1s2.37 5.06.58 8.73c0 0 .68-6.22-1.31-8.36l-2.9 1.67s2.77 5.22.89 9.48c0 0 .49-6.53-1.48-9.07l-2.57 2s2.6 5.14 1 8.68c0 0-.21-7.61-1.57-8.19a15.42 15.42 0 0 0-2.59 2.8s1.78 3.73.68 5.7c0 0-.68-5.06-1.24-5.09 0 0-2.23 3.36-2.46 5.66a12.18 12.18 0 0 1 1.92-6 6.72 6.72 0 0 0-3.42 1.77s.35-2.37 4-2.58c0 0 1.85-2.54 2.35-2.7 0 0-3.61-.3-5.8.67 0 0 1.93-2.24 6.46-1.22l2.53-2.07s-4.75-.65-6.76.07c0 0 2.31-2 7.44-.54l2.76-1.65a25.18 25.18 0 0 0-6.46-.56s2.54-1.37 7.27.12l2-.89s-3-.58-3.83-.67-.92-.33-.92-.33a10.28 10.28 0 0 1 5.57.62s4.15-1.58 4.08-1.84ZM347.38 307.51s-8.15 22.44 8.67 24.49a4.07 4.07 0 0 0 4.71-.81s-1.17-.39-.09-2.58a11.39 11.39 0 0 0 .86-2.44 5.41 5.41 0 0 0-.36-3.41s-.75-7.21-10.51-12.82c0 0-1.74-2.53-2.35-2.63l.5 4.35s3.17-.5 5.18 1.22c0 0-5-1.35-5.13-.57 0 .15.37 2.29.37 2.29s5.52-.84 8.53 1.92c0 0-5.78-2.42-8.39-1.11l.78 3.18s5.79-1.16 9.34 1.84c0 0-6.12-2.31-9.12-1.15l1.19 3s5.67-1 8.61 1.49c0 0-7.36-2-8.29-.82a15.74 15.74 0 0 0 1.94 3.27s4.09-.64 5.66 1c0 0-5.05-.79-5.23-.27 0 0 2.59 3.1 4.73 4a12.24 12.24 0 0 1-5.19-3.55 6.72 6.72 0 0 0 .73 3.79s-2.18-1-1.35-4.55c0 0-1.92-2.49-1.92-3 0 0-1.32 3.37-1 5.75 0 0-1.6-2.49.66-6.54l-1.26-3s-2 4.37-1.86 6.51c0 0-1.24-2.79 1.6-7.3l-.79-3.11a24.93 24.93 0 0 0-2.37 6s-.6-2.83 2.17-6.94l-.29-2.14s-1.4 2.68-1.73 3.49-.58.78-.58.78a10.28 10.28 0 0 1 2.17-5.17s-.32-4.46-.59-4.46ZM505.41 288.59s-8.14 22.48 8.67 24.48a4.08 4.08 0 0 0 4.72-.82s-1.18-.39-.09-2.57a10.7 10.7 0 0 0 .85-2.45 5.41 5.41 0 0 0-.35-3.41s-.75-7.21-10.51-12.82c0 0-1.75-2.52-2.36-2.62l.51 4.34s3.17-.49 5.18 1.23c0 0-5-1.35-5.14-.58 0 .16.37 2.29.37 2.29s5.52-.83 8.54 1.92c0 0-5.78-2.41-8.4-1.11l.79 3.19s5.79-1.17 9.34 1.84c0 0-6.13-2.32-9.13-1.16l1.19 3s5.67-1 8.61 1.49c0 0-7.35-2-8.29-.81a15.43 15.43 0 0 0 2 3.27s4.08-.65 5.66 1c0 0-5.05-.79-5.23-.26 0 0 2.58 3.09 4.72 4a12.13 12.13 0 0 1-5.18-3.55 6.77 6.77 0 0 0 .72 3.79s-2.17-1-1.34-4.54c0 0-1.92-2.5-1.93-3 0 0-1.31 3.38-1 5.75 0 0-1.6-2.48.66-6.54l-1.26-3s-2 4.37-1.86 6.5c0 0-1.24-2.78 1.6-7.29l-.8-3.12a24.93 24.93 0 0 0-2.37 6s-.59-2.83 2.18-6.94l-.29-2.14s-1.4 2.68-1.74 3.49-.58.78-.58.78a10.35 10.35 0 0 1 2.18-5.17s-.36-4.45-.64-4.46ZM279.51 472.07s-8.15 22.45 8.67 24.5a4.06 4.06 0 0 0 4.71-.82s-1.17-.39-.09-2.57a10.77 10.77 0 0 0 .86-2.45 5.34 5.34 0 0 0-.36-3.41s-.75-7.21-10.51-12.81c0 0-1.74-2.53-2.35-2.63l.5 4.34s3.18-.49 5.18 1.23c0 0-5-1.35-5.13-.58 0 .16.37 2.29.37 2.29s5.52-.83 8.53 1.92c0 0-5.78-2.41-8.39-1.11l.78 3.19s5.79-1.17 9.34 1.84c0 0-6.12-2.32-9.12-1.16l1.19 3s5.67-1 8.61 1.49c0 0-7.35-2-8.29-.81a15.74 15.74 0 0 0 1.94 3.27s4.09-.65 5.67 1c0 0-5.06-.79-5.24-.26 0 0 2.59 3.09 4.73 4a12.17 12.17 0 0 1-5.19-3.54 6.69 6.69 0 0 0 .73 3.78s-2.18-1-1.35-4.54c0 0-1.91-2.5-1.92-3 0 0-1.32 3.38-1 5.75 0 0-1.6-2.48.66-6.54l-1.26-3s-2 4.37-1.85 6.5c0 0-1.24-2.78 1.6-7.29l-.8-3.11a24.74 24.74 0 0 0-2.37 6s-.6-2.84 2.17-6.94l-.29-2.15s-1.4 2.68-1.73 3.49-.58.78-.58.78a10.24 10.24 0 0 1 2.18-5.17s-.33-4.48-.6-4.48ZM247.17 260.48s-8.14 22.44 8.67 24.49a4.09 4.09 0 0 0 4.72-.81s-1.18-.39-.09-2.58a11.21 11.21 0 0 0 .85-2.45 5.38 5.38 0 0 0-.35-3.4s-.75-7.21-10.52-12.82c0 0-1.74-2.53-2.35-2.63l.51 4.35s3.17-.5 5.17 1.22c0 0-5-1.35-5.13-.57 0 .15.37 2.29.37 2.29s5.52-.84 8.54 1.92c0 0-5.78-2.42-8.4-1.11l.78 3.18s5.79-1.17 9.35 1.84c0 0-6.13-2.32-9.13-1.15l1.19 3s5.67-1 8.61 1.5c0 0-7.35-2-8.29-.82a15.74 15.74 0 0 0 1.94 3.27s4.09-.64 5.67 1c0 0-5.05-.79-5.23-.27 0 0 2.58 3.1 4.72 4a12.3 12.3 0 0 1-5.19-3.55 6.72 6.72 0 0 0 .73 3.79s-2.18-1-1.34-4.55c0 0-1.92-2.49-1.93-3 0 0-1.31 3.37-1 5.75 0 0-1.61-2.49.66-6.54l-1.27-3s-2 4.37-1.85 6.51c0 0-1.24-2.79 1.6-7.3l-.8-3.11a24.93 24.93 0 0 0-2.37 6s-.59-2.83 2.17-6.94l-.28-2.14s-1.41 2.68-1.74 3.48-.58.79-.58.79a10.24 10.24 0 0 1 2.18-5.17s-.31-4.47-.59-4.47ZM307.61 382.68s6.29 23 21.21 15a4.07 4.07 0 0 0 3.38-3.38s-1.18.36-1.55-2.05a11 11 0 0 0-.72-2.49 5.29 5.29 0 0 0-2.25-2.58s-4.77-5.46-16-4.42c0 0-2.88-1.05-3.44-.78l2.92 3.25s2.31-2.23 4.94-2c0 0-4.89 1.8-4.53 2.49.08.14 1.62 1.66 1.62 1.66s4-3.87 8.08-3.36c0 0-6.11 1.36-7.49 3.94l2.47 2.15s4.06-4.29 8.7-3.89c0 0-6.35 1.64-8.13 4.32l2.72 1.79s4-4.11 7.9-3.74c0 0-7.14 2.63-7.25 4.11a15.59 15.59 0 0 0 3.48 1.55s3-2.88 5.19-2.47c0 0-4.59 2.27-4.43 2.8 0 0 3.9 1 6.15.52a12.2 12.2 0 0 1-6.28.1 6.66 6.66 0 0 0 2.78 2.67s-2.36.43-3.72-2.94c0 0-3-.93-3.32-1.35 0 0 .88 3.52 2.5 5.28 0 0-2.74-1.11-3.23-5.73l-2.77-1.73s.91 4.71 2.23 6.38c0 0-2.62-1.56-2.9-6.88l-2.44-2.08a25 25 0 0 0 1.54 6.3s-2.11-2-2.22-6.92l-1.47-1.59s.4 3 .59 3.85 0 1 0 1a10.27 10.27 0 0 1-1.2-5.48s-2.83-3.45-3.06-3.3ZM478.25 403.22s6.29 23 21.2 15a4.06 4.06 0 0 0 3.39-3.38s-1.19.36-1.56-2a10.51 10.51 0 0 0-.71-2.49 5.36 5.36 0 0 0-2.26-2.58s-4.77-5.46-16-4.41c0 0-2.88-1.06-3.43-.79l2.91 3.25s2.31-2.23 4.94-2c0 0-4.89 1.8-4.52 2.49.07.14 1.62 1.66 1.62 1.66s4-3.87 8.08-3.36c0 0-6.12 1.36-7.5 3.94l2.48 2.15s4-4.29 8.69-3.89c0 0-6.34 1.64-8.12 4.32l2.72 1.79s4-4.11 7.89-3.74c0 0-7.14 2.63-7.24 4.11a15.47 15.47 0 0 0 3.47 1.55s3-2.88 5.19-2.47c0 0-4.58 2.27-4.43 2.8 0 0 3.9 1 6.16.52a12.25 12.25 0 0 1-6.29.1 6.73 6.73 0 0 0 2.78 2.67s-2.36.43-3.72-2.94c0 0-3-.93-3.31-1.35 0 0 .87 3.52 2.49 5.28 0 0-2.74-1.11-3.23-5.73l-2.77-1.75s.91 4.71 2.24 6.38c0 0-2.62-1.56-2.9-6.88l-2.45-2.08a24.69 24.69 0 0 0 1.55 6.3s-2.12-2-2.23-6.92l-1.47-1.59s.4 3 .59 3.85 0 1 0 1a10.27 10.27 0 0 1-1.2-5.48s-2.82-3.48-3.05-3.33Z" opacity=".1"/>
  <path fill="#ced7e7" d="M414.23 634.2s51.88-17.47 41.14-79.37l-65.9-17.11-15.3 50.79Z"/>
  <path d="m374.17 588.51 40.05 45.69s51.88-17.47 41.14-79.37Z" opacity=".1"/>
  <path fill="#fed253" d="M156.17 131.21s7 11.39 16.57 5.7.39-21.41.39-21.41-18.33-2.51-16.96 15.71Z"/>
  <path d="M172.74 136.91a9.87 9.87 0 0 1-7.71 1.3c-3.51-.89-6.21-3.59-7.66-5.36a16.7 16.7 0 0 1-1.2-1.63c-.49-6.5 1.53-10.37 4.33-12.65 3.85-3.13 9.18-3.26 11.48-3.16.71 0 1.12.1 1.12.1l.19.32c.27.51.86 1.64 1.49 3.15 2.14 4.95 4.69 13.92-2.04 17.93Z" opacity=".1"/>
  <path fill="#ffa2a2" d="m419.33 551.92 36 2.91 67 .55-52.79 65s-16.75.91-20.2 3.27-51.89 1.1-51.89 1.1l-7.82-33.32Z"/>
  <path d="m419.33 551.92 36 2.91 67 .55-52.79 65s-16.75.91-20.2 3.27-51.89 1.1-51.89 1.1l-7.82-33.32Z" opacity=".05"/>
  <path fill="#ced7e7" d="m382.92 377.16 8.37 14.2 1.82 24.76s5.83 21.11 10.2 27.3S409.5 466 409.5 466s1.82 15.29 4 18.56 5.1 27 5.1 27 19.3 38.59 36.77 43.32c0 0-86.65 28.4-41.14 79.37 0 0-32.4 8-40.05-1.09s-27.67-143.81-27.67-143.81l6.19-113.6Z"/>
  <path d="m382.92 377.16 8.37 14.2 1.82 24.76s5.83 21.11 10.2 27.3S409.5 466 409.5 466s1.82 15.29 4 18.56 5.1 27 5.1 27 19.3 38.59 36.77 43.32c0 0-86.65 28.4-41.14 79.37 0 0-32.4 8-40.05-1.09s-27.67-143.81-27.67-143.81l6.19-113.6Z" opacity=".05"/>
  <path fill="#ffa2a2" d="M277.79 238.77a78 78 0 0 0 2.1 37.9l-13.48 38.59s-102.67-57.16-93.93-71c4.95-7.85 5.58-28.62 5.18-45.12-.29-12.54-1.18-22.6-1.18-22.6s126 12.39 109.23 41.15a67.89 67.89 0 0 0-7.92 21.08Z"/>
  <path d="M285.71 217.69a67.89 67.89 0 0 0-7.92 21.08 84.95 84.95 0 0 1-100.13-39.63c-.29-12.54-1.18-22.6-1.18-22.6s125.97 12.39 109.23 41.15Z" opacity=".1"/>
  <path fill="#ffa2a2" d="M336.68 155.79a84.84 84.84 0 1 1-154.06-49q1.8-2.53 3.79-4.94a84.86 84.86 0 0 1 27.61-22 83.34 83.34 0 0 1 18.15-6.58 85 85 0 0 1 103.47 68.93 85.84 85.84 0 0 1 1.04 13.59Z"/>
  <path fill="#ced7e7" d="M370.17 504.6c-1.27 6.78.32 19.17 2.73 31.78.1.55.21 1.1.32 1.65s.27 1.4.41 2.09c1.11 5.42 2.32 10.79 3.5 15.67s2.24 9.06 3.14 12.5c1.36 5.15 2.29 8.39 2.29 8.39a1495.892 1495.892 0 0 0 .57 18.65c0 1.14.07 2.3.1 3.5.05 2.09.1 4.26.15 6.48 0 .72 0 1.44.05 2.17 0 2.39.09 4.83.13 7.26.05 3.34.09 6.68.11 9.92v12.46c-.11 7.75-.42 13.6-1.08 15.29-.23.58-.44 1.21-.64 1.87a63.23 63.23 0 0 0-1.88 9.47l-1.7-1.39c-3.25-2.68-6.47-5.42-9.74-8.08a141.6 141.6 0 0 0-17.26-12.38c-.41-.24-.82-.48-1.24-.71-1.12-.65-2.26-1.26-3.42-1.84a78.31 78.31 0 0 0-7.34-3.24c-11.55-4.4-23.92-6-36.46-5.73-5 1.91-8.25 3.28-8.25 3.28l-6.36 1.92-1.06.32c-6.89 2.1-16.58 5.08-20.07 6.32-5.64 2-54.61 12.19-54.61 12.19a81.35 81.35 0 0 1-13.66 2.5 192.87 192.87 0 0 1-25.61 5.36 142.7 142.7 0 0 1-58.61-4.72 9.58 9.58 0 0 1-1.7-.05c.35 0 .69-.08 1-.14l-1.22-.36-1.67-.52q-4.2-1.32-8.33-2.89l-1.67-.64q-4-1.54-7.83-3.31l-1.67-.76q-4-1.86-7.83-3.93c-.92-.48-1.83-1-2.73-1.49q-4.08-2.28-8-4.78c-.44-3.77-.67-6.29-.67-6.29l-3.9-19.42-.2-1-2.8-14-.2-1-6.09-30.46-.2-1-2.8-14-.2-1-6.17-30.44-.2-1-2.8-14-.2-1-6.12-30.5-.2-1-2.8-13.95-.2-1-1.11-5.5-1.67-8.33s-5.33-7.62-11.33-16.63l-.67-1c-1.71-2.53-3.47-5.16-5.18-7.74-.57-.85-1.12-1.69-1.67-2.52q-1.25-1.89-2.42-3.69l-.54-.83-.11-.17c-8.62-13.34-2.85-19.14-2.85-19.14s3.62-4.9 8.29-11.38c.23-.33.47-.66.72-1 2-2.8 4.2-5.86 6.36-8.92l1.67-2.38c.63-.89 1.25-1.78 1.85-2.66.24-.33.47-.67.69-1 4.61-6.66 8.41-12.47 9.19-14.53 1.22-3.25 9-12.86 16.75-21.29 6.11-6.66 12.19-12.58 14.92-14 6.19-3.27 8.74-13.84 8.74-13.84s13.47-4.72 15.29-8.36 27.31-20 27.31-20 10.31-6.64 14.48-10.64a8.53 8.53 0 0 0 1.53-1.79c1.45-2.6 10.92-4.74 14.77-5.51 1-.2 1.62-.31 1.62-.31a32.59 32.59 0 0 1 5.83-7.65c1.57-1.39 3.53-6.18 5.18-10.82 1.79-5.06 3.18-9.93 3.18-9.93 2.92-9.83 8.74-6.92 8.74-6.92a20 20 0 0 0 .38 4c2.43 12 15.63 17 22.56 22.61 7.65 6.18 19.66 22.21 29.13 25.48 7.84 2.71 16.93 12.93 19.81 16.34l.22.26c.48.56.72.88.72.88s5.37-.28 8.64-.34h1.19a3.48 3.48 0 0 0 1.82-.74c3.25-2.21 8.09-8.69 10.2-10.18 2.54-1.83 5.1-31.32 5.1-31.32l.13-.06c9.07-4.25 18.8 38.29 18.8 38.29s17.11 5.1 18.57 8.74c.28.72 1.57 2 3.51 3.55a192.4 192.4 0 0 0 28.1 17.85c.22.11.43.22.65.31a6.67 6.67 0 0 0 .61.29c.37.18.73.34 1.07.49q.81.36 1.5.6l.6.21a14.46 14.46 0 0 1 4 2.07c.36.26.72.53 1.07.82a28.26 28.26 0 0 1 3.74 3.76c.17.2.33.41.49.61.76.95 1.44 1.89 2 2.76a40.89 40.89 0 0 1 2.51 4.18s14.92 25.49 19.66 28.39 7.65 32.41 7.65 32.41l-16 59.31s-.75 15-2.15 30.3c-.78 8.58-1.77 17.31-2.95 23.59Z"/>
  <path fill="#63667e" d="M249.66 290.51s-10.73 5.82-19.11 6.37a15.75 15.75 0 0 1-3.28-.19c-8.78-1.33-21.66-8.55-21.66-8.55l15.11-16.57 18.38 9.11 6.76 6.29Z"/>
  <path d="M335.6 142.2a10.06 10.06 0 0 1-1.29 1.49c-5.26 5-14.6 2.93-21.77 1.77a79.28 79.28 0 0 1-18.13-5.24c-5.06-2.16-11.13-4.8-15.68-1.7-1.75 1.18-2.95 3.07-4.77 4.11s-4.14 1.11-6.29 1.14c-7 0-14 .08-20.83-1.5-10.19-2.38-20.73-8.37-30.42-4.42-7.58 3.08-11.69 11.33-13.74 19.26-1 3.89-1.74 8-4 11.3s-6.63 5.64-10.35 4.09c-5.49-2.29-6.3-11.61-12.92-12.08-7.27-.51-7.18 7-5.06 12.43 3.14 8 7.25 16 7.43 24.34a84.89 84.89 0 0 1 4.84-90.44 9.14 9.14 0 0 0 3.61-4.22 6.31 6.31 0 0 0 .18-.72c.55-2.79-1-5.72-1.09-8.64-.35-7.13 7.37-12.1 14.45-13 4.71-.6 9.53-.14 14.25-.29a32.24 32.24 0 0 0 7.05-.94 33.91 33.91 0 0 0 11-5.65 85 85 0 0 1 103.47 68.93Z" opacity=".1"/>
  <path fill="#896363" d="M337.31 136.31a11 11 0 0 1-3 5.2c-5.26 5-14.6 2.92-21.77 1.76a78.29 78.29 0 0 1-18.13-5.2c-5.06-2.15-11.13-4.79-15.68-1.69-1.75 1.18-2.95 3.07-4.77 4.11s-4.14 1.11-6.29 1.13c-7 .05-14 .09-20.83-1.49-10.19-2.39-20.73-8.37-30.42-4.43-7.58 3.08-11.69 11.34-13.74 19.27-1 3.89-1.74 8-4 11.29s-6.63 5.65-10.35 4.1c-5.49-2.29-6.3-11.61-12.92-12.08-7.27-.51-7.18 7-5.06 12.43 3.72 9.47 8.78 18.89 7.12 28.93-1.65 0-4.38-.06-6-.1 1.26-2.15-1.14-4.71-3.53-5.44s-5.18-.72-7-2.46-1.83-4.43-1.64-6.84a47.07 47.07 0 0 1 3.73-14.94c1.31-3 3-6.25 2-9.39a26.68 26.68 0 0 0-2.16-4.09c-2.08-4-1.59-9 .19-13.13.76-1.76 1.31-3.42 1.94-5a22.24 22.24 0 0 1 3.41-6.23c2.29-2.85 4.53-7.14 2-9.79-.64-.67.64-1.13.23-2a1.71 1.71 0 0 1-.15-.47 4.54 4.54 0 0 1 .72-3 7.33 7.33 0 0 1 .39-.67 5.69 5.69 0 0 1 .39-.66 31.79 31.79 0 0 1 8.65-9.43c2.17-1.57 4.71-3.08 5.57-5.62 1-3-.76-6.19-.91-9.36-.35-7.13 7.37-12.1 14.45-13s14.42.59 21.32-1.24c9.79-2.58 16.67-11.22 25.56-16.07a36.19 36.19 0 0 1 31.8-1.14c10.38 4.74 18.21 14.32 29.05 17.92 3.84 1.28 8 1.79 11.46 3.91 4 2.46 6.43 6.76 8.51 11 3.17 6.43 3.81 12.89 6 19.7 1.74 5.4 4.15 12.46 4.35 18.68a18.72 18.72 0 0 1-.49 5.53Z"/>
  <g opacity=".1">
    <path d="M171.71 123.78a4.45 4.45 0 0 0-.75-3.74c.26.78-.87 1.23-.25 1.88a4 4 0 0 1 1 1.86ZM170.93 117.75a4.13 4.13 0 0 0-.21 1.08c.19-.32.45-.65.21-1.08ZM334.59 139.07c-5.27 5-14.6 2.93-21.79 1.76a77.76 77.76 0 0 1-18.11-5.23c-5.07-2.16-11.13-4.8-15.69-1.7-1.74 1.18-2.94 3.07-4.77 4.11s-4.14 1.11-6.29 1.13c-7 0-14 .09-20.84-1.5-10.18-2.38-20.72-8.35-30.41-4.42-7.58 3.09-11.69 11.34-13.74 19.27-1 3.89-1.73 8-4 11.3s-6.64 5.64-10.35 4.1c-5.49-2.3-6.3-11.61-12.92-12.08-5.17-.37-6.61 3.33-6.26 7.44.3-3.14 2-5.56 6.26-5.26 6.62.47 7.43 9.79 12.92 12.08 3.71 1.55 8.09-.78 10.35-4.1s3-7.41 4-11.29c2.05-7.93 6.16-16.19 13.74-19.27 9.69-3.94 20.23 2 30.41 4.42 6.8 1.59 13.86 1.54 20.84 1.49 2.15 0 4.42-.06 6.29-1.12s3-2.93 4.77-4.12c4.56-3.09 10.62-.45 15.69 1.7a78.27 78.27 0 0 0 18.11 5.24c7.19 1.16 16.52 3.25 21.79-1.77 2.86-2.73 3.72-6.68 3.53-11-.16 3.43-1.16 6.54-3.53 8.82ZM185.65 89.21a10.63 10.63 0 0 0-.06 1.5c.1 2.08.89 4.16 1.14 6.19.37-2.49-.78-5.09-1.08-7.69ZM165.33 160.16a7.36 7.36 0 0 1 .19.91 7.18 7.18 0 0 0-.19-3.09 25.93 25.93 0 0 0-2.16-4.1 12.35 12.35 0 0 1-1.31-4.75 13.17 13.17 0 0 0 1.31 6.94 25.41 25.41 0 0 1 2.16 4.09ZM177.74 197.14l-5.85-.09a2.51 2.51 0 0 1-.18 2.18c1.65 0 4.39.06 6 .1a24.5 24.5 0 0 0 .29-5.18 23.45 23.45 0 0 1-.26 2.99ZM168.17 191.61c-2.39-.72-5.17-.73-6.95-2.48a6.34 6.34 0 0 1-1.66-4.19c-.15 2.3 0 4.78 1.66 6.38 1.78 1.75 4.56 1.76 6.95 2.48a5.94 5.94 0 0 1 3.63 3c1.01-2.07-1.31-4.5-3.63-5.19Z"/>
  </g>
  <path d="M350.1 641.19c-1.12-.65-2.26-1.26-3.42-1.84a78.31 78.31 0 0 0-7.34-3.24c-11.55-4.4-23.92-6-36.46-5.73-5 1.91-8.25 3.28-8.25 3.28l-6.36 1.92-1.06.32c-.07-.7-.15-1.4-.22-2.11s-.15-1.39-.23-2.09c-2.24-21.21-4-43-4-43v-21.01l-.12-55.45-1-18.28-.47-8.09-.09-1.54-.18-3.16-.1-1.88a16.9 16.9 0 0 1-.56-1.82c-.07-.25-.14-.53-.2-.82-.25-1-.52-2.29-.8-3.69-1.83-9.2-4.12-24.71-4.26-27.86-.18-4.2-3.82-29.32-3.82-29.32-.37-13.83-12-39.87-14.93-44.78s-6.2-34.41-5.1-36c.57-.85.94-5.88 1.17-10.52 0-.53.05-1.05.07-1.56.15-3.63.22-6.66.22-6.66l11.44-2.26 3.07-.6.24-.05.1.2c.33.61 1.36 2.56 2.57 5.12.14.27.27.56.41.85.06.14.13.28.2.42 2.24 4.9 4.83 11.35 4.72 15.06-.18 6.56 7.29 22.4 7.29 22.4.72 3.64 16.56 39.86 16.56 39.86s12.93 35.5 12.2 41.33 6.19 44.42 6.19 44.42l7.1 39.69c3.45 7.82 8 25.84 8 25.84l1.73 10.22.33 1.95 4.61 27.27 2.26 13.36s.95 7.1 2.39 15c.12.71.26 1.43.4 2.15a110.06 110.06 0 0 0 3.77 15.35 57.47 57.47 0 0 1 1.93 7.35Z" opacity=".1"/>
  <path fill="#63667e" d="M351.34 641.9c-.41-.24-.82-.48-1.24-.71-1.12-.65-2.26-1.26-3.42-1.84a78.31 78.31 0 0 0-7.34-3.24c-11.55-4.4-23.92-6-36.46-5.73-5 1.91-8.25 3.28-8.25 3.28l-6.36 1.92c-.08-.7-.15-1.4-.23-2.11s-.14-1.28-.2-1.92c-2.24-21.16-4-42.85-4-42.85v-21.19l-.12-55.31-1-17.46-.2-3.62-.14-2.45-.18-3.24-.18-3.29-.13-2.37v-.52c0-.05 0-.11-.07-.17-.19-.54-.42-1.36-.67-2.4l-.12-.5c-.05-.23-.11-.48-.16-.73-1.88-8.53-4.64-26.92-4.79-30.37-.18-4.2-3.82-29.32-3.82-29.32-.37-13.83-12-39.87-14.93-44.78s-6.19-34.41-5.1-36c.63-1 1-7.07 1.24-12.08v-1.16c.13-3.09.18-5.5.18-5.5l10.64-2.1 2.7-.53.42-.08 1-.2s1.31 2.42 2.88 5.75l.2.42c2.29 4.94 5 11.66 4.92 15.48-.18 6.56 7.29 22.4 7.29 22.4.72 3.64 16.56 39.86 16.56 39.86s12.93 35.5 12.2 41.33 6.19 44.42 6.19 44.42l7.1 39.69c3.45 7.82 8 25.84 8 25.84l1.61 9.52.33 1.93 3.63 21.52 3.35 19.83s1 7.07 2.38 15c.13.72.26 1.44.4 2.17a110.63 110.63 0 0 0 3.77 15.42 61 61 0 0 1 2.12 7.99Z"/>
  <path fill="#fed253" d="M342.32 128.31s-3.82 4.92-7.27 4.92-16.88-.55-23.88-2.73-41.32-3.83-41.32-3.83-48.6.18-50.24-1.46-30.22-10.38-33.13-9.83c-.61.12-2.1.38-4.09.71l-2.28.37c-3.45.55-7.76 1.19-11.7 1.66-4.87.57-9.15.86-10.51.36v-4.19s5.64-8.2 6-10.55 5.1-36.42 17.48-48.61a48.8 48.8 0 0 1 23.48-22c16.75-7.29 33.5-13.47 33.5-13.47l2.93-.42 9.45-1.4a7.13 7.13 0 0 1 .93-.78c2.62-2 10.56-6.35 20.91 3l1.83 2.92s31.85 7.46 46.59 33.49 15.48 51.52 16.57 63.17c0 0-.73 3.28.73 4.55a20.41 20.41 0 0 1 1.51 1.48c.13.13.26.26.38.4.42.42.81.86 1.13 1.22a.47.47 0 0 1 .1.1 3.2 3.2 0 0 0 .25.27Z"/>
  <path d="M342.32 128.31s-3.82 4.92-7.27 4.92-16.88-.55-23.88-2.73-41.32-3.83-41.32-3.83-48.6.18-50.24-1.46-30.22-10.38-33.13-9.83c-.61.12-2.1.38-4.09.71l-.52-3.2-.13-.79s55.16-11.83 91.93-5.63 63.9 13.1 63.9 13.1-.73 3.28.73 4.55a20.41 20.41 0 0 1 1.51 1.48c.13.13.26.26.38.4.42.42.81.86 1.13 1.22a.47.47 0 0 1 .1.1 3.32 3.32 0 0 0 .25.27Z" opacity=".05"/>
  <path d="M337.31 136.31c-6.81.53-19.36-1.13-24.85-1.94-1.56-.23-3.09-.51-4.63-.85-5.89-1.28-24-4.87-35-3.21-13.29 2-50.79-1.64-50.79-1.64s-23.12-4.73-32.41-8.55c-3.41-1.41-9.11-1.85-14.78-1.15a41.15 41.15 0 0 0-4.3.77c-7.74 1.83-14.27 6-13.14 13.11a16.7 16.7 0 0 1-1.2-1.63c-.49-6.5 1.53-10.37 4.33-12.65l.66-.27a80.76 80.76 0 0 1 10.42-2.23c.55-.09 1.12-.17 1.7-.24 9.95-1.34 24.34-1.64 36.48 4.47 0 0 11.28 5.29 18.93 5.29s69.9.55 84.47 4.73a62 62 0 0 0 8.85 1.87 36 36 0 0 0 15.8-1.49 18.72 18.72 0 0 1-.54 5.61Z" opacity=".1"/>
  <path d="M342.32 128.31s-3.82 4.92-7.27 4.92-16.88-.55-23.88-2.73-41.32-3.83-41.32-3.83-48.6.18-50.24-1.46-30.22-10.38-33.13-9.83c-.61.12-2.1.38-4.09.71l-2.28.37a40.6 40.6 0 0 0-11.7 1.66c-4.87.57-9.15.86-10.51.36v-.83a24 24 0 0 1 3.27-1.58 88.44 88.44 0 0 1 20.7-3.22c8.73-.32 18.94.7 27.91 5.22 0 0 11.28 5.29 18.93 5.29s69.9.54 84.47 4.73a63.32 63.32 0 0 0 8.85 1.86 36.8 36.8 0 0 0 19.29-2.77.47.47 0 0 1 .1.1 3.32 3.32 0 0 0 .25.27Z" opacity=".1"/>
  <path fill="#fed253" d="M157.55 132.68s-12.2-9.29 3.64-15.48c0 0 27.67-8.55 48.61 2 0 0 11.28 5.27 18.93 5.27s69.9.55 84.47 4.74a63 63 0 0 0 8.85 1.86 37.67 37.67 0 0 0 22.47-4.27c1-.55 1.9-.83 2.17-.51.91 1.1.19 7.47-7.82 8.74-6.25 1-20.45-.89-26.42-1.76-1.55-.23-3.09-.52-4.62-.85-5.89-1.28-24-4.87-35.05-3.21-13.28 2-50.79-1.64-50.79-1.64s-23.11-4.73-32.4-8.56-35.5-.53-32.04 13.67Z"/>
  <path d="M260.4 35.07c-1-1.44-13.85-11.73-19.09-15.89l9.45-1.4a7.13 7.13 0 0 1 .93-.78c6.87 7.21 8.71 18.07 8.71 18.07ZM218.72 90.26l-4.19 6.19 16.02-.54.36-6.92-12.19 1.27zM316.47 97.73l1.82 5.64 10.2 1.64-4.37-6.74-7.65-.54zM141.35 287.07c1.09 1.82 36.95 49 46.42 47.69s-46.42-47.69-46.42-47.69ZM261.5 330.19s8.74 8.38 7.46 11.65-7.46-11.65-7.46-11.65ZM166.11 387.72s-7.65 35.86-3.64 37 3.64-37 3.64-37ZM264.41 526.98c1.27 3.64 11.83 27.31 14.2 28.58s-14.2-28.58-14.2-28.58ZM387.11 429.77c-.37 1.27-9.47 8.74-7.47 11.47s7.47-11.47 7.47-11.47ZM316.47 496.21c-.18.92-2 20 1.46 23.67s-1.46-23.67-1.46-23.67Z" opacity=".1"/>
  <path d="M409.75 595.33c-2.64 1.47-5.37 2.89-8.15 4.25-3 1.46-6 2.85-9.06 4.16-1.22.53-2.44 1.05-3.65 1.55q-2.76 1.14-5.46 2.19c-5.47 2.14-10.74 4-15.43 5.57-1.82.61-3.56 1.17-5.18 1.69-8.16 2.59-13.58 4-13.58 4a14.72 14.72 0 0 0-3.77-.31h-1.08a47.44 47.44 0 0 0-5.05.64c-11.17 2-26.95 7.61-36.46 11.28-5 1.91-8.25 3.28-8.25 3.28l-6.36 1.92-1.06.32c-6.89 2.1-16.58 5.08-20.07 6.32-5.64 2-54.61 12.19-54.61 12.19a81.35 81.35 0 0 1-13.66 2.5 249.29 249.29 0 0 1-34.22.78c-11.46.74-30-1.78-40.79-3.48l-1.72-.27c-4.17-.68-6.82-1.17-6.82-1.17l1.4-1.93 28.71-39.61.17-.24 26.75-36.89 1-1.34 2.43-3.35s1.46-2 7.08-2.13h2.17a58.61 58.61 0 0 1 13.87 2.83l1.3.39c19.37 5.55 49.31 4.16 49.31 4.16s18.63-3 33.27-4.8l1.09-.14a134.29 134.29 0 0 1 14.43-1.25c8.92.18 28.22-4.55 28.22-4.55 4.15-.89 5.9-1.64 8.24-3.31.31-.22.64-.46 1-.72 1-.75 2.15-1.67 3.63-2.81 2.7-2.07 6.49-4.88 12.45-8.82.52-.34 1.07-.68 1.66-1s1.34-.75 2.06-1.11a78.09 78.09 0 0 1 18.12-6 106.22 106.22 0 0 1 15.77-2.17h.79c15-.8 30.32 1.77 39.28 10.2a24.59 24.59 0 0 1 4.06 5 22.8 22.8 0 0 1 1.46 2.72 25.51 25.51 0 0 1 1.81 5.6q.11.54.18 1.08v.32c0 .29.06.58.08.87.8 11.97-11.62 22.79-27.36 31.59Z" opacity=".1"/>
  <path fill="#ffa2a2" d="M115.32 650.59s32.4 6 49.33 4.91c0 0 31.13 1.64 47.88-3.27 0 0 49-10.2 54.61-12.2s27.49-8.56 27.49-8.56 42.6-17.84 54.61-14.93c0 0 94.3-24.39 87.56-57.34s-66.26-25.48-85-13.11-16 13.66-25.3 15.66c0 0-19.3 4.73-28.22 4.55s-48.79 6.19-48.79 6.19-31.31 1.46-50.6-4.55-23.12-.73-23.12-.73Z"/>
  <path d="M185.58 565.07a.49.49 0 0 1 0 .12 6.75 6.75 0 0 1-.57 2.15c-3.84 9.42-25.64 34.83-25.64 34.83a69.59 69.59 0 0 1-3.59 8.82 135.25 135.25 0 0 1-10.35 17.55 237.64 237.64 0 0 1-18.83 23.87h-.05a28.61 28.61 0 0 1-2.69 1.77c-2.35 1.4-5.88 3.13-9.21 3.34a9.58 9.58 0 0 1-1.7-.05c.35 0 .69-.08 1-.14l-1.22-.36-1.67-.52q-4.2-1.32-8.33-2.89l-1.67-.64q-4-1.54-7.83-3.31l-1.67-.76q-4-1.86-7.83-3.93c-.92-.48-1.83-1-2.73-1.49q-4.08-2.28-8-4.78-4.16-2.65-8.14-5.53c-2-3.71-3.65-7-4.55-8.77-1.64-3.29-1.78-8-1.58-11.41 0-.35 0-.68.06-1 .17-2.14.43-3.61.43-3.61a51.4 51.4 0 0 1-4-6.24 7.34 7.34 0 0 1-1.12-3.59 4.26 4.26 0 0 0-.14-1.52c-.77-3.16-4.08-8.59-7.14-12-2.28-2.51-2.42-11.89-2.2-18.54.13-4 .38-6.94.38-6.94a2.33 2.33 0 0 1-.95-1.23 29.72 29.72 0 0 1-1.62-6.78c0-.33-.09-.66-.14-1-.64-4.59-.93-9.2-.93-9.2-7.4-5.39-10.92-13.8-12.56-21.3l-.21-1a63 63 0 0 1-1.14-14v-1.25s.98-21.67 3.72-30.13c.11-.36.23-.69.35-1a7.49 7.49 0 0 1 .78-1.51c1-1.33 1.71-3.84 2.3-6.81.41-2.06.75-4.35 1-6.63.23-1.9.41-3.79.55-5.54.39-4.68.51-8.33.51-8.33l-1.85-9.12c-.51-2.49-.9-5-1.17-7.51 0-.33-.08-.66-.12-1a84.51 84.51 0 0 1-.25-13.95c0-.34 0-.67.06-1a84.55 84.55 0 0 1 8.16-30.5l.5-1q1-2 2.1-3.93c.53-.95 1.09-1.89 1.67-2.82a82.48 82.48 0 0 1 5-7.21c.26-.34.53-.67.8-1a81.48 81.48 0 0 1 10.36-10.68c10.1-8.68 19.37-12.45 27.79-12.74 36.82-1.3 57.47 63.82 60.81 75.23.32 1.1.48 1.7.48 1.7s14.92 14.93 10.55 21.48a11.27 11.27 0 0 0-1.51 4.72c-1.2 8.81 2.24 23.32 2.24 23.32s1.22 4 4.78 13.58l1.05 2.8c2.23 6 2.75 16.07 1.47 25.09-1.23 8.64-4.12 16.28-8.75 18.24-9.47 4-6.92 8-4.74 11.29a44.94 44.94 0 0 1 3.23 7.38c1.37 3.69 2.64 7.57 3.12 9.08.14.42.21.65.21.65a19.77 19.77 0 0 1 4.11-1.1c1.79-.25 3.56-.07 3.9 1.46.18.82 1.21 1.79 2.66 2.76 4.3 2.96 12.26 6.06 12.26 6.06Z" opacity=".1"/>
  <path fill="#ced7e7" d="M183.4 565.07a6.59 6.59 0 0 1-.57 2.2c-3.82 9.43-25.64 34.9-25.64 34.9a71.1 71.1 0 0 1-3.59 8.82 127.4 127.4 0 0 1-8.17 14.27 235.15 235.15 0 0 1-20.78 26.9l-.23.25s-.88.67-2.28 1.53a26 26 0 0 1-8.15 3.42l-1.22-.36-1.67-.52q-4.2-1.32-8.33-2.89l-1.67-.64q-4-1.54-7.83-3.31l-1.67-.76q-4-1.86-7.83-3.93c-.92-.48-1.83-1-2.73-1.49q-4.08-2.28-8-4.78-4.16-2.65-8.14-5.53-1.84-1.32-3.64-2.71c-1.35-2.56-2.43-4.72-3.1-6.06-1.64-3.29-1.78-8-1.58-11.41 0-.35 0-.68.06-1 .17-2.14.43-3.61.43-3.61s-.81-1.09-1.79-2.57c-.55-.82-1.14-1.77-1.67-2.71-1-1.76-1.78-3.54-1.63-4.55a2.23 2.23 0 0 0 0-.52 4.85 4.85 0 0 0-.15-1c-.77-3.16-4.09-8.59-7.15-12-2.28-2.51-2.42-11.89-2.21-18.54v-1c.14-3.45.35-5.94.35-5.94-1.13-.49-2-4.12-2.56-8l-.15-1c-.64-4.59-.93-9.2-.93-9.2-7.4-5.39-10.92-13.8-12.55-21.3a61.06 61.06 0 0 1-1.3-16v-.25s.86-21.78 3.6-30.25c.11-.36.23-.69.35-1a7.49 7.49 0 0 1 .89-1.46c1.52-2.12 2.53-7.22 3.19-12.44l.12-1c.83-7 1.06-13.87 1.06-13.87l-1.86-9.12q-.76-3.75-1.17-7.51c-.05-.33-.08-.67-.12-1a84.53 84.53 0 0 1-.25-13.95c0-.34 0-.67.07-1a84.35 84.35 0 0 1 8.16-30.5c.16-.34.32-.67.5-1a78.35 78.35 0 0 1 4.28-7.56c.54-.85 1.09-1.69 1.67-2.52.91-1.32 1.86-2.62 2.85-3.88l.8-1a81.58 81.58 0 0 1 10.27-10.65c11-9.43 21-13.07 30-12.74 35.45 1.27 55.35 64.05 58.62 75.23.32 1.1.48 1.7.48 1.7s14.93 14.93 10.56 21.48a11.27 11.27 0 0 0-1.51 4.72c-1.21 8.81 2.24 23.32 2.24 23.32s1.22 4 4.78 13.58c.32.89.67 1.82 1 2.8 2.23 6 2.75 16.07 1.47 25.09-1.23 8.65-4.11 16.28-8.75 18.24-9.46 4-6.92 8-4.73 11.29a44.94 44.94 0 0 1 3.23 7.38c1.73 4.71 3.32 9.73 3.32 9.73a19.46 19.46 0 0 1 2-.65 10.23 10.23 0 0 1 4.32-.45 1.91 1.91 0 0 1 1.71 1.46c.27 1.2 2.34 2.69 4.85 4.1a92.62 92.62 0 0 0 10.07 4.72Z"/>
  <path d="M51.78 468.91c3.46-.18 40.6-14.56 48.25-9.65s55 36.77 55 36.77-29.67-38.77-55.52-47.87-47.73 20.75-47.73 20.75ZM105.17 527.53s37.14 7.46 42.78 12.56ZM98.02 583.07c-.54.55-14 30.76-12.92 30.76s12.56-18 12.56-18ZM123.33 546.82s-10.92 3.83-9.65 4.19 9.28-2.55 9.65-4.19ZM112.41 592.52c1.82 3.82 7.64 15.29 8.92 13.47s-8.92-13.47-8.92-13.47ZM248.73 289.74l-1.56 2.22s-12.39-8.73-17.48-13.1-17.11 15.65-26.58 21.11-25.48 6.92-25.48 6.92-12.38-12.38-12-16-5.82-4.73-6.19-7.28-2.55-9.83-5.46-13.47c-1.54-1.92-1.76-7.93-1.62-13.16 1-.2 1.62-.31 1.62-.31a32.59 32.59 0 0 1 5.83-7.65c3.28-2.91 8.37-20.75 8.37-20.75 2.91-9.83 8.73-6.92 8.73-6.92 0 14.93 15.3 20.39 22.94 26.58s19.66 22.21 29.13 25.49c7.77 2.65 16.86 12.9 19.75 16.32Z" opacity=".1"/>
  <path fill="#ced7e7" d="m248.73 287.55-1.56 2.23s-12.44-8.71-17.53-13.11-17.11 15.65-26.58 21.11-25.48 6.93-25.48 6.93-12.38-12.39-12-16-5.82-4.73-6.19-7.29-2.55-9.83-5.46-13.47c-1.54-1.92-1.76-7.93-1.62-13.16l1.62-.3a32.59 32.59 0 0 1 5.83-7.65c3.28-2.92 8.37-20.75 8.37-20.75 2.91-9.83 8.73-6.93 8.73-6.93 0 14.93 15.3 20.4 22.94 26.59s19.66 22.2 29.13 25.48c7.82 2.69 16.91 12.9 19.8 16.32Z"/>
  <path d="M249.66 290.51s-10.73 5.82-19.11 6.37a15.75 15.75 0 0 1-3.28-.19s9.25-6.91 17.84-8.32ZM271.51 320.18s-13.53-5.27-18 2.66c.15-3.64.21-6.66.21-6.66l14.75-2.92s1.42 2.63 3.08 6.17c-.04.47-.04.75-.04.75Z" opacity=".1"/>
  <path fill="#63667e" d="M227.27 296.69s16.21-9.73 24-8.91c8.17.85 24 1.45 24 1.45s-5.46 12.38-4.73 14.93.91 14.93.91 14.93-16.38-6.37-19.11 5.46c0 0-8.92-13.29-14.93-17.3a40.88 40.88 0 0 1-10.14-10.56Z"/>
  <path d="M318.84 307.99c-4.73 0-21.48-10.57-25.12-17.48s-8.74.72-13.47 3.28c-3 1.64-14.89-1.79-21.3-4.28 3.25-2.21 10.45-8.43 12.56-9.92 2.54-1.83 5.1-31.32 5.1-31.32 9.1-4.73 18.93 38.23 18.93 38.23s17.12 5.1 18.57 8.74c.28.72 1.57 2 3.51 3.55 2 5.04 3.1 9.2 1.22 9.2Z" opacity=".1"/>
  <path fill="#ced7e7" d="M318.84 305.8c-4.73 0-21.48-10.56-25.12-17.47s-8.74.72-13.47 3.27c-3 1.64-12.53-1.53-18.94-4 3.25-2.2 8.09-8.68 10.2-10.18 2.54-1.82 5.1-31.31 5.1-31.31 9.1-4.73 18.93 38.23 18.93 38.23s17.12 5.1 18.57 8.74c.28.72 1.57 2 3.51 3.55 2 5.01 3.1 9.17 1.22 9.17Z"/>
  <path fill="#6c63ff" d="m383.53 624.77 158.31-132a8.48 8.48 0 0 1 5.66-2l59.06 1.55s4.09 3-1.91 9.56L455.31 624.43a9.5 9.5 0 0 1-5.7 2.14l-64.58 2.14a2.23 2.23 0 0 1-1.5-3.94Z"/>
  <path fill="#ffa2a2" d="M460.11 608.53s34.58 49.52 73 3.46 27.31-70.26 15.66-71.54-77.2 49.15-88.66 68.08Z"/>
  <path fill="#6c63ff" d="M693.34 54.67s44.57-86.5 97.25-41.89c0 0 11.5 4.19 10.63 16.35 0 0-4.43-2.43-7.95 6.86a44.88 44.88 0 0 1-5 9.33 22 22 0 0 1-11.1 8.38s-23.64 17.71-67.43 4.05c0 0-12.38 1.78-14.38.24l14.39-10.52s7.31 10.85 18 12.09c0 0-18-11.3-15.94-13.75.42-.5 7.88-5.23 7.88-5.23s12.79 18.81 29.37 20.2c0 0-23.23-10.59-26.56-22l11.67-6.51s12.54 20.55 31.37 22.85c0 0-23.9-11.91-28.72-24.1l12.35-4.82s12.63 19.8 28.3 21.61c0 0-26.22-16.55-25.4-22.53 0 0 11.61-3.74 15.17-3.25 0 0 9.39 14 18.59 14.25 0 0-16.35-12.92-15.27-14.91 0 0 16.42-.85 25 3.12 0 0-12.2-6.79-25-5.69 0 0 5.79-6.81 13.34-8.31 0 0-9.05-3.72-17.32 8.56 0 0-12.77 1.17-14.35 2.59 0 0 6.46-13.28 14.41-18.93 0 0-11.85 2.09-17.72 20.09l-12.52 4.57s7.61-18 14.32-23.56c0 0-11.76 4-17.38 25l-11.52 6.26s5.37-16 11.5-23.81c0 0-10.11 6.06-14.74 25.72l-7.2 5.07s4.13-11.62 5.62-14.85.74-3.9.74-3.9a41.87 41.87 0 0 0-9.43 20.77s-14.14 11.4-14.97 10.6ZM877.67 100.93S897.81 61.84 921.61 82c0 0 5.2 1.89 4.8 7.38 0 0-2-1.09-3.59 3.11a20 20 0 0 1-2.24 4.21 10 10 0 0 1-5 3.79s-10.69 8-30.48 1.83c0 0-5.59.8-6.49.11l6.5-4.76s3.3 4.91 8.14 5.46c0 0-8.12-5.1-7.2-6.21.18-.22 3.55-2.36 3.55-2.36s5.78 8.5 13.28 9.13c0 0-10.5-4.79-12-10l5.28-2.93s5.66 9.29 14.17 10.33c0 0-10.8-5.38-13-10.89l5.58-2.18s5.7 8.95 12.78 9.77c0 0-11.85-7.48-11.47-10.18 0 0 5.24-1.69 6.85-1.47 0 0 4.24 6.33 8.4 6.43 0 0-7.39-5.83-6.9-6.73 0 0 7.42-.38 11.28 1.41 0 0-5.51-3.07-11.28-2.57a12.39 12.39 0 0 1 6-3.76s-4.09-1.68-7.83 3.87c0 0-5.77.53-6.48 1.17 0 0 2.92-6 6.51-8.55 0 0-5.36.94-8 9.08l-5.6 2.1s3.43-8.13 6.47-10.65c0 0-5.32 1.81-7.86 11.29l-5.2 2.82s2.42-7.24 5.19-10.76c0 0-4.57 2.74-6.65 11.62l-3.26 2.29s1.87-5.25 2.54-6.71.33-1.76.33-1.76a19 19 0 0 0-4.26 9.41s-6.45 5.15-6.8 4.79ZM659.44 146.41s20.14-39.09 44-18.93c0 0 5.19 1.89 4.8 7.39 0 0-2-1.1-3.59 3.1a20.42 20.42 0 0 1-2.24 4.21 10 10 0 0 1-5.05 3.79s-10.68 8-30.47 1.83c0 0-5.59.81-6.49.11l6.5-4.76s3.3 4.91 8.13 5.47c0 0-8.12-5.11-7.2-6.22.19-.22 3.56-2.36 3.56-2.36s5.78 8.5 13.27 9.13c0 0-10.49-4.79-12-10l5.28-2.92s5.67 9.28 14.18 10.32c0 0-10.8-5.38-13-10.89l5.58-2.18s5.71 8.95 12.79 9.77c0 0-11.85-7.48-11.48-10.18 0 0 5.25-1.69 6.86-1.47 0 0 4.24 6.33 8.4 6.44 0 0-7.39-5.84-6.9-6.74 0 0 7.41-.38 11.28 1.41 0 0-5.52-3.07-11.29-2.57a12.39 12.39 0 0 1 6-3.76s-4.08-1.68-7.82 3.87c0 0-5.77.53-6.48 1.17 0 0 2.91-6 6.51-8.55 0 0-5.36.94-8 9.08l-5.67 2.1s3.44-8.13 6.47-10.64c0 0-5.31 1.8-7.85 11.28l-5.21 2.82s2.43-7.24 5.2-10.76c0 0-4.57 2.74-6.66 11.62l-3.26 2.29s1.87-5.25 2.54-6.71.34-1.76.34-1.76a18.9 18.9 0 0 0-4.26 9.41s-6.42 5.15-6.77 4.79Z" opacity=".1"/>
</svg>
