<?xml version="1.0" encoding="UTF-8"?>
<svg xmlns="http://www.w3.org/2000/svg" viewBox="0 0 600.8 615.147">
    <path
        fill="#f2f2f2"
        d="m377.647 583.021-18.187 31.5h36.373l-18.186-31.5-18.187 31.5h36.373l-18.186-31.5zM331.147 158.271v86.41a8.856 8.856 0 0 1-8.84 8.84h-66.28l.61-.78c34.87-23.28 59.58-54.34 73.73-93.48Z"
    />
    <path
        fill="#e6e6e6"
        d="M398.31 72.21H22.69A22.717 22.717 0 0 0 0 94.9v225.62a22.717 22.717 0 0 0 22.69 22.69h375.62A22.717 22.717 0 0 0 421 320.52V94.9a22.717 22.717 0 0 0-22.69-22.69ZM419 320.52a20.686 20.686 0 0 1-20.69 20.69H22.69A20.686 20.686 0 0 1 2 320.52v-90.63q0-7.92.77-15.65A155.598 155.598 0 0 1 157.68 74.21h240.63A20.692 20.692 0 0 1 419 94.9Z"
    />
    <path
        fill="#e6e6e6"
        d="M278.35 177.42H82.98a6.035 6.035 0 1 0 0 12.07h195.37a6.035 6.035 0 0 0 0-12.07ZM143.55 143.57H82.98a6.04 6.04 0 1 0 0 12.08h60.57a6.04 6.04 0 0 0 0-12.08Z"
    />
    <path
        fill="#6c63ff"
        d="M82.98 177.42h29.95a112.867 112.867 0 0 1-12.28 12.07H82.98a6.035 6.035 0 1 1 0-12.07ZM82.98 143.57h50.55a111.071 111.071 0 0 1-5.57 12.08H82.98a6.04 6.04 0 1 1 0-12.08ZM138.38 75.4A155.753 155.753 0 0 0 2.77 214.24c-.93-.18-1.85-.39-2.77-.61V94.9a22.717 22.717 0 0 1 22.69-22.69h114.89c.29 1.05.55 2.12.8 3.19Z"
    />
    <circle cx="137.249" cy="74.122" r="18.887" fill="#fff" />
    <path
        fill="#3f3d56"
        d="M137.25 94.009a19.887 19.887 0 1 1 19.886-19.887 19.91 19.91 0 0 1-19.887 19.887Zm0-37.775a17.887 17.887 0 1 0 17.886 17.888 17.907 17.907 0 0 0-17.887-17.888Z"
    />
    <path
        fill="#6c63ff"
        d="M134.673 83.952a2.1 2.1 0 0 1-1.681-.841l-5.153-6.87a2.1 2.1 0 1 1 3.362-2.521l3.37 4.494 8.66-12.987a2.101 2.101 0 0 1 3.495 2.33l-10.305 15.459a2.102 2.102 0 0 1-1.69.935Z"
    />
    <circle cx="286.249" cy="207.122" r="18.887" fill="#fff" />
    <path
        fill="#e6e6e6"
        d="M286.25 227.009a19.887 19.887 0 1 1 19.886-19.887 19.91 19.91 0 0 1-19.887 19.887Zm0-37.775a17.887 17.887 0 1 0 17.886 17.888 17.907 17.907 0 0 0-17.887-17.888Z"
    />
    <path
        fill="#e6e6e6"
        d="M283.673 216.952a2.1 2.1 0 0 1-1.681-.841l-5.153-6.87a2.1 2.1 0 1 1 3.362-2.521l3.37 4.494 8.66-12.987a2.101 2.101 0 0 1 3.495 2.33l-10.305 15.459a2.102 2.102 0 0 1-1.69.935ZM235.374 9.339A48.472 48.472 0 0 0 206.638 0a47.805 47.805 0 0 0-39.353 21.49c-.732 1.118.869 2.48 1.609 1.349a46.322 46.322 0 0 1 21.703-17.653 45.714 45.714 0 0 1 43.428 5.762c1.084.797 2.44-.807 1.349-1.61Z"
    />
    <path
        fill="#e6e6e6"
        d="m155.493 14.176-4.684 17.404a1.055 1.055 0 0 0 1.125 1.235l19.601-3.14c1.327-.211 1.153-2.305-.184-2.09l-19.601 3.138 1.125 1.235 4.684-17.403c.351-1.307-1.717-1.675-2.066-.379ZM166.167 246.946a48.472 48.472 0 0 0 28.736 9.339 47.805 47.805 0 0 0 39.353-21.49c.732-1.118-.869-2.48-1.609-1.349a46.322 46.322 0 0 1-21.703 17.653 45.714 45.714 0 0 1-43.428-5.762c-1.084-.797-2.44.807-1.349 1.61Z"
    />
    <path
        fill="#e6e6e6"
        d="m246.048 242.109 4.684-17.404a1.055 1.055 0 0 0-1.125-1.235l-19.601 3.139c-1.327.212-1.153 2.306.184 2.092l19.6-3.14-1.124-1.234-4.684 17.403c-.352 1.307 1.717 1.675 2.066.379Z"
    />
    <path
        fill="#f2f2f2"
        d="M412.38 50.427h-74.902a9.079 9.079 0 0 1 0-18.157h74.902a9.079 9.079 0 0 1 0 18.157Z"
    />
    <path
        fill="#fff"
        d="m410.659 41.348 3.574-3.575a1.085 1.085 0 1 0-1.535-1.535l-3.574 3.575-3.575-3.575a1.085 1.085 0 1 0-1.535 1.535l3.575 3.575-3.55 3.55a1.085 1.085 0 1 0 1.535 1.534l3.55-3.549 3.549 3.55a1.085 1.085 0 0 0 1.535-1.536Z"
    />
    <path
        fill="#3f3d56"
        d="M293.401 325.255a.997.997 0 0 1-.715-.3l-5.706-5.834a1 1 0 0 1 0-1.398l5.706-5.833a1 1 0 1 1 1.43 1.399l-5.022 5.133 5.022 5.134a1 1 0 0 1-.715 1.7ZM302.99 325.255a1 1 0 0 1-.715-1.7l5.021-5.133-5.021-5.133a1 1 0 0 1 1.43-1.399l5.705 5.833a1 1 0 0 1 0 1.398l-5.706 5.833a.997.997 0 0 1-.715.301Z"
    />
    <path
        fill="#a0616a"
        d="M322.213 220.08a10.67 10.67 0 0 1 15.382-5.577l94.332-24.72 1.548 19.433-92.303 20.588a10.728 10.728 0 0 1-18.959-9.725Z"
    />
    <path
        fill="#3f3d56"
        d="M464.432 185.858a20.293 20.293 0 0 0-20.533-8.347l-34.687 6.729s11.941 39.975 27.064 39.092c6.373-.372 14.438-4.116 21.638-8.324a20.328 20.328 0 0 0 6.518-29.15Z"
    />
    <path
        fill="#a0616a"
        d="m429.689 594.175-9.191-.077-4.069-36.279 13.565.114-.305 36.242z"
    />
    <path
        fill="#2f2e41"
        d="m433.84 612.77-1.71-22.83-2.4-.16-9.79-.67-3.15-.21-.06 6.57-14.68 9.96a4.11 4.11 0 0 0 1.14 7.34 3.88 3.88 0 0 0 1.14.17l18.27.15.16-.32 3.04-6.16 1.11 6.16.06.36 6.9.06Z"
    />
    <path
        fill="#a0616a"
        d="m526.46 587.46-8.786 2.7-14.83-33.358 12.967-3.985 10.649 34.643z"
    />
    <path
        fill="#2f2e41"
        d="m527.51 582.69-2.34.57-9.53 2.31h-.01l-3.06.75 1.93 6.29-10.99 13.92a4.125 4.125 0 0 0 3.23 6.66 4.155 4.155 0 0 0 1.2-.18l.78-.24 16.69-5.13 1.09-7.15 3.09 5.86 6.59-2.03ZM411.201 289.122l-17.54 50.974-.58 4.08c-4.419 4.195 1.133 5.578-.949 6.685s-3.481 4.208-.676 4.763 11.85 199.373 23.78 207.092 19.192 13.304 17 2c-.882-4.554.367-28.972 2.173-56.508.204-3.12 3.438-6.423.633-9.458s.345-5.03.522-7.548c2.516-35.957 5.422-71.456 5.422-71.456s18.594 63.857 23.422 58.914 2.918 7.227 4.393 10.864c1.233 3.04-4.028 9.01 3.704 9.1s25.89 62.162 27.732 62.092c3.65-.139 13.908.254 20-1 3.008-.619-10.346-47.613-21.497-88.193-.889-3.236-5.728-3.311-2.616-9.559S483.75 415.29 485.08 413.42c3.527-4.962 4.87-7.12 1.392-7.444s-4.507 1.583-4.695-3.231-.788-16.685-.788-16.685-2.52-46.949-20.166-72.888l-1.505-15.412Z"
    />
    <path
        fill="#3f3d56"
        d="M412 290.213c-15.2 2.208-40.06 15.686-22.775-14l18.173-45.327c-13.317-10.34-2.128-29.445 9.031-48.539l25.912-25.911h22.51l5.953 22.64a67.61 67.61 0 0 1 2.62 50.445c-3.704 10.763 5.399 34.122 3.577 35.865-4 3.827-11-.834-4 6.497s8.401 9.676 5.7 12.503-8.7 11.827-8.7 11.827l-9.18 16.96Z"
    />
    <circle
        cx="749.295"
        cy="269.634"
        r="25.654"
        fill="#a0616a"
        transform="rotate(-21.25 219.895 996.927)"
    />
    <path
        fill="#2f2e41"
        d="M484.212 160.539a41.04 41.04 0 0 1 6.83 16.705 17.254 17.254 0 0 1-9.42 2.72c-.113-.438-.227-.875-.356-1.312a37.509 37.509 0 0 0-4.274-9.599 22.595 22.595 0 0 1-1.278 9.486 16.647 16.647 0 0 0-5.585-1.44 10.146 10.146 0 0 0-4.532 1.068c-1.635-5.423-3.14-10.409-4.209-13.986-.032 8.968-13.176 16.786-27.518 15.653-.518-.324 4.678-15.07 4.176-15.41-1.149-.761-2.266-1.587-3.383-2.396 4.695-7.252 9.793-15.021 8.92-16.187.064 1.44-5.083 8.369-10.684 14.908-3.108-2.282 14.552-39.415 5.827-42.426-.145 1.311-2.072 1.311-4.419 1.036a23.95 23.95 0 0 0-2.735-6.135 14.41 14.41 0 0 1-.68 5.682 33.09 33.09 0 0 0-6.896.728 22.098 22.098 0 0 0-1.732-2.363 14.071 14.071 0 0 1-.08 2.736c-2.316.501-4.226 1.084-4.5 1.554-1.814-.664 1.278-3.659.145-5.213-2.881-3.884 1.392-9.55 4.095-13.564 5.552-8.223 17.741-11.072 26.369-6.135.388-1.344 2.38-2.234 4.937-2.833a13.395 13.395 0 0 1 3.302-.308c11.007.195 26.288 9.276 26.887 20.267.048 1.1.13 2.298.21 3.577.777 12.302-.178 23.65 8.223 32.65 3.043 3.253 3.076 18.663 1.91 26.595-3.027-3.19-5.18-15.589-9.55-16.058Z"
    />
    <path
        fill="#f2f2f2"
        d="M546.54 597.814a2.27 2.27 0 0 0 1.645-3.933l-.155-.618q.03-.075.062-.149a6.094 6.094 0 0 1 11.241.042c1.839 4.428 4.18 8.864 4.756 13.546a18.029 18.029 0 0 1-.317 6.2 72.281 72.281 0 0 0 6.575-30.02 69.766 69.766 0 0 0-.432-7.783q-.359-3.178-.995-6.31a73.119 73.119 0 0 0-14.5-30.99 19.459 19.459 0 0 1-8.093-8.397 14.843 14.843 0 0 1-1.35-4.056c.394.052 1.486-5.949 1.188-6.317.55-.833 1.532-1.247 2.132-2.06 2.982-4.043 7.091-3.337 9.236 2.157 4.582 2.313 4.627 6.148 1.815 9.837-1.789 2.347-2.035 5.522-3.604 8.035.161.207.33.407.49.613a73.59 73.59 0 0 1 7.682 12.17 30.592 30.592 0 0 1 1.826-14.21c1.748-4.218 5.025-7.77 7.91-11.416a6.28 6.28 0 0 1 11.185 3.084l.017.161q-.643.363-1.259.77a3.078 3.078 0 0 0 1.241 5.602l.063.01a30.628 30.628 0 0 1-.807 4.579c3.702 14.316-4.29 19.53-15.702 19.764-.252.129-.497.258-.749.38a75.115 75.115 0 0 1 4.043 19.029 71.245 71.245 0 0 1-.051 11.503l.02-.136a18.826 18.826 0 0 1 6.426-10.87c4.945-4.063 11.933-5.559 17.268-8.824a3.533 3.533 0 0 1 5.411 3.437l-.022.142a20.675 20.675 0 0 0-2.318 1.118q-.643.363-1.259.77a3.078 3.078 0 0 0 1.241 5.602l.063.01.129.019a30.655 30.655 0 0 1-5.639 8.829c-2.314 12.497-12.256 13.683-22.89 10.043h-.006a75.093 75.093 0 0 1-5.045 14.727h-18.02c-.064-.2-.123-.407-.18-.608a20.475 20.475 0 0 0 4.986-.297c-1.337-1.64-2.674-3.294-4.011-4.934a1.12 1.12 0 0 1-.084-.097c-.679-.84-1.363-1.673-2.041-2.513a29.99 29.99 0 0 1 .878-7.64Z"
    />
    <path
        fill="#ccc"
        d="M344.99 613.957a1.186 1.186 0 0 0 1.19 1.19h253.29a1.19 1.19 0 1 0 0-2.38H346.18a1.187 1.187 0 0 0-1.19 1.19Z"
    />
    <path
        fill="#f2f2f2"
        d="m465.735 357.202-52.45 48.668-68.373-21.089-15.922-69.757 52.45-48.668 68.373 21.089 15.922 69.757z"
    />
    <path
        fill="#a0616a"
        d="M378.535 321.082a10.67 10.67 0 0 1 5.74-15.322l42.405-87.814 15.79 11.433-44.233 83.589a10.728 10.728 0 0 1-19.702 8.114Z"
    />
    <path
        fill="#3f3d56"
        d="M444.787 190.667a20.293 20.293 0 0 0-19.676 10.206l-17.389 30.759s38.164 16.855 47.306 4.776c3.852-5.09 6.237-13.657 7.708-21.865a20.328 20.328 0 0 0-17.95-23.876Z"
    />
    <path
        fill="#6c63ff"
        d="M336.147 179.271v86.41a8.856 8.856 0 0 1-8.84 8.84h-66.28l.61-.78c34.87-23.28 59.58-54.34 73.73-93.48Z"
    />
    <path
        fill="#f2f2f2"
        d="m56.647 242.521-18.187 31.5h36.373l-18.186-31.5-18.187 31.5h36.373l-18.186-31.5z"
    />
    <circle cx="194.293" cy="330.594" r="60.327" fill="#f2f2f2" />
</svg>
