<?xml version="1.0" encoding="UTF-8" standalone="no"?>
<svg
   xmlns:dc="http://purl.org/dc/elements/1.1/"
   xmlns:cc="http://creativecommons.org/ns#"
   xmlns:rdf="http://www.w3.org/1999/02/22-rdf-syntax-ns#"
   xmlns:svg="http://www.w3.org/2000/svg"
   xmlns="http://www.w3.org/2000/svg"
   xmlns:xlink="http://www.w3.org/1999/xlink"
   xmlns:sodipodi="http://sodipodi.sourceforge.net/DTD/sodipodi-0.dtd"
   xmlns:inkscape="http://www.inkscape.org/namespaces/inkscape"
   id="f1a3512c-954b-43cd-b4a7-b2a657bfa049"
   data-name="Layer 1"
   width="1135.18"
   height="814.22"
   viewBox="0 0 1135.18 814.22"
   version="1.1"
   sodipodi:docname="launchLeft.svg"
   inkscape:version="1.0 (6e3e5246a0, 2020-05-07)">
  <metadata
     id="metadata196">
    <rdf:RDF>
      <cc:Work
         rdf:about="">
        <dc:format>image/svg+xml</dc:format>
        <dc:type
           rdf:resource="http://purl.org/dc/dcmitype/StillImage" />
        <dc:title>Outer space</dc:title>
      </cc:Work>
    </rdf:RDF>
  </metadata>
  <sodipodi:namedview
     inkscape:document-rotation="0"
     pagecolor="#ffffff"
     bordercolor="#666666"
     borderopacity="1"
     objecttolerance="10"
     gridtolerance="10"
     guidetolerance="10"
     inkscape:pageopacity="0"
     inkscape:pageshadow="2"
     inkscape:window-width="1920"
     inkscape:window-height="974"
     id="namedview194"
     showgrid="false"
     inkscape:zoom="1.4142136"
     inkscape:cx="615.47636"
     inkscape:cy="306.5631"
     inkscape:window-x="1080"
     inkscape:window-y="1065"
     inkscape:window-maximized="0"
     inkscape:current-layer="f1a3512c-954b-43cd-b4a7-b2a657bfa049" />
  <defs
     id="defs23">
    <linearGradient
       id="a846f69c-c3f1-49f3-adee-5a4e8443ee4e"
       x1="277.46"
       y1="697.11"
       x2="277.46"
       y2="669.52"
       gradientUnits="userSpaceOnUse">
      <stop
         offset="0"
         stop-color="gray"
         stop-opacity="0.25"
         id="stop2" />
      <stop
         offset="0.54"
         stop-color="gray"
         stop-opacity="0.12"
         id="stop4" />
      <stop
         offset="1"
         stop-color="gray"
         stop-opacity="0.1"
         id="stop6" />
    </linearGradient>
    <linearGradient
       id="b1395abd-e294-4466-9af9-40f9f1f4ad0f"
       x1="748.15"
       y1="567.16"
       x2="748.15"
       y2="544.13"
       xlink:href="#a846f69c-c3f1-49f3-adee-5a4e8443ee4e" />
    <linearGradient
       gradientTransform="translate(-336.68124,26.796768)"
       id="a8b11853-451e-4181-8600-fa718044326b"
       x1="556.93"
       y1="707.16"
       x2="556.93"
       y2="42.89"
       xlink:href="#a846f69c-c3f1-49f3-adee-5a4e8443ee4e" />
    <linearGradient
       id="f1ea05b4-3102-498a-ab85-05d222a08540"
       x1="456.95"
       y1="628.14"
       x2="456.95"
       y2="692.54"
       gradientUnits="userSpaceOnUse">
      <stop
         offset="0"
         stop-color="#e0e0e0"
         id="stop11" />
      <stop
         offset="0.31"
         stop-color="#fccc63"
         id="stop13" />
      <stop
         offset="0.77"
         stop-color="#f55f44"
         id="stop15" />
    </linearGradient>
    <linearGradient
       gradientTransform="translate(-336.68124,26.796768)"
       id="a65a9945-4cea-45de-8969-2abf9ed9c602"
       x1="534.05"
       y1="628.14"
       x2="534.05"
       y2="692.54"
       xlink:href="#f1ea05b4-3102-498a-ab85-05d222a08540" />
    <linearGradient
       gradientTransform="translate(-336.68124,26.796768)"
       id="e83da883-60d3-4fc8-a1fc-2d21e84cc652"
       x1="582.35"
       y1="628.14"
       x2="582.35"
       y2="692.54"
       xlink:href="#f1ea05b4-3102-498a-ab85-05d222a08540" />
    <linearGradient
       gradientTransform="translate(-336.68124,26.796768)"
       id="e7319a41-e0d4-4be9-9de6-9ff87ed2cc66"
       x1="660.3"
       y1="628.14"
       x2="660.3"
       y2="692.54"
       xlink:href="#f1ea05b4-3102-498a-ab85-05d222a08540" />
    <linearGradient
       id="a8b1f8cd-6e4b-4699-9cd1-501c51b12a87"
       x1="766.05"
       y1="409.23"
       x2="766.05"
       y2="340.57"
       xlink:href="#a846f69c-c3f1-49f3-adee-5a4e8443ee4e" />
    <linearGradient
       id="ef97273a-5cfd-4109-a624-feeb24fdeadc"
       x1="331.05"
       y1="577.85"
       x2="331.05"
       y2="529.94"
       xlink:href="#a846f69c-c3f1-49f3-adee-5a4e8443ee4e" />
    <linearGradient
       gradientTransform="translate(-336.68124,26.796768)"
       y2="692.54"
       x2="456.95"
       y1="628.14"
       x1="456.95"
       gradientUnits="userSpaceOnUse"
       id="linearGradient972"
       xlink:href="#f1ea05b4-3102-498a-ab85-05d222a08540"
       inkscape:collect="always" />
  </defs>
  <title
     id="title25">Outer space</title>
  <path
     d="M1023.41,751.25a139.92,139.92,0,0,1-27.7-.37c-101.12-11.18-238.82-8-351.07,61.55C489.4,908.6,246.11,826.27,138.79,781.48c-82-34.21-124.57-118-99-196.65.36-1.11.73-2.22,1.12-3.33C57,534.76,88.76,498.18,128.09,478.79c34.28-16.9,84.33-52.19,106.6-120,9.2-28,21.82-54.34,38.21-77.3C316.79,220,408.67,128.43,566.69,129a254.66,254.66,0,0,1,81.41,13.78c57.73,19.67,109.87,59.66,149.63,115.1,25.37,35.36,63.39,68.23,117.82,70.91,75.54,3.74,147.63,38.91,201.71,101.5,1.56,1.8,3.1,3.61,4.64,5.44C1218.19,550.44,1151.31,740.07,1023.41,751.25Z"
     transform="translate(-32.41 -42.89)"
     fill="#2979ff"
     id="path27" />
  <g
     opacity="0.7"
     id="g31">
    <circle
       cx="277.46"
       cy="683.31"
       r="13.8"
       fill="url(#a846f69c-c3f1-49f3-adee-5a4e8443ee4e)"
       id="circle29" />
  </g>
  <circle
     cx="277.46"
     cy="683.31"
     r="13.18"
     opacity="0.2"
     id="circle33"
     style="fill:#ffc400;fill-opacity:1;opacity:1" />
  <circle
     cx="203.11"
     cy="414.14"
     r="5.1"
     fill="#fff"
     id="circle35" />
  <circle
     cx="567.11"
     cy="710.14"
     r="5.1"
     fill="#fff"
     id="circle37"
     style="fill:#ffc400;fill-opacity:1" />
  <circle
     cx="352.11"
     cy="736.14"
     r="2.85"
     fill="#fff"
     id="circle39" />
  <circle
     cx="983.11"
     cy="598.14"
     r="2.85"
     fill="#fff"
     id="circle41" />
  <circle
     cx="820.11"
     cy="342.14"
     r="2.85"
     fill="#fff"
     id="circle43"
     style="fill:#ffc400;fill-opacity:1" />
  <circle
     cx="1051.11"
     cy="467.14"
     r="2.85"
     fill="#fff"
     id="circle45" />
  <circle
     cx="293.11"
     cy="247.14"
     r="5.1"
     fill="#fff"
     id="circle47" />
  <polygon
     points="152.94 592.21 148.4 592.21 148.4 587.67 146.55 587.67 146.55 592.21 142.01 592.21 142.01 594.06 146.55 594.06 146.55 598.59 148.4 598.59 148.4 594.06 152.94 594.06 152.94 592.21"
     fill="#fff"
     id="polygon49" />
  <polygon
     points="266.94 590.21 262.4 590.21 262.4 585.67 260.55 585.67 260.55 590.21 256.01 590.21 256.01 592.06 260.55 592.06 260.55 596.59 262.4 596.59 262.4 592.06 266.94 592.06 266.94 590.21"
     fill="#fff"
     id="polygon51" />
  <polygon
     points="429.94 682.21 425.4 682.21 425.4 677.67 423.55 677.67 423.55 682.21 419.01 682.21 419.01 684.06 423.55 684.06 423.55 688.59 425.4 688.59 425.4 684.06 429.94 684.06 429.94 682.21"
     fill="#fff"
     id="polygon53" />
  <polygon
     points="656.97 130.71 654.9 130.71 654.9 128.64 654.06 128.64 654.06 130.71 651.99 130.71 651.99 131.55 654.06 131.55 654.06 133.62 654.9 133.62 654.9 131.55 656.97 131.55 656.97 130.71"
     fill="#fff"
     id="polygon55" />
  <polygon
     points="951.97 320.71 949.9 320.71 949.9 318.64 949.06 318.64 949.06 320.71 946.99 320.71 946.99 321.55 949.06 321.55 949.06 323.62 949.9 323.62 949.9 321.55 951.97 321.55 951.97 320.71"
     fill="#fff"
     id="polygon57" />
  <polygon
     points="777.97 444.71 775.9 444.71 775.9 442.64 775.06 442.64 775.06 444.71 772.99 444.71 772.99 445.55 775.06 445.55 775.06 447.62 775.9 447.62 775.9 445.55 777.97 445.55 777.97 444.71"
     fill="#fff"
     id="polygon59" />
  <polygon
     points="69.97 522.71 67.9 522.71 67.9 520.64 67.06 520.64 67.06 522.71 64.99 522.71 64.99 523.55 67.06 523.55 67.06 525.62 67.9 525.62 67.9 523.55 69.97 523.55 69.97 522.71"
     fill="#fff"
     id="polygon61" />
  <polygon
     points="154.97 692.71 152.9 692.71 152.9 690.64 152.06 690.64 152.06 692.71 149.99 692.71 149.99 693.55 152.06 693.55 152.06 695.62 152.9 695.62 152.9 693.55 154.97 693.55 154.97 692.71"
     fill="#fff"
     id="polygon63" />
  <polygon
     points="421.97 155.71 419.9 155.71 419.9 153.64 419.06 153.64 419.06 155.71 416.99 155.71 416.99 156.55 419.06 156.55 419.06 158.62 419.9 158.62 419.9 156.55 421.97 156.55 421.97 155.71"
     fill="#fff"
     id="polygon65" />
  <polygon
     points="295.97 454.71 293.9 454.71 293.9 452.64 293.06 452.64 293.06 454.71 290.99 454.71 290.99 455.55 293.06 455.55 293.06 457.62 293.9 457.62 293.9 455.55 295.97 455.55 295.97 454.71"
     fill="#fff"
     id="polygon67" />
  <polygon
     points="322.97 368.71 320.9 368.71 320.9 366.64 320.06 366.64 320.06 368.71 317.99 368.71 317.99 369.55 320.06 369.55 320.06 371.62 320.9 371.62 320.9 369.55 322.97 369.55 322.97 368.71"
     fill="#fff"
     id="polygon69" />
  <g
     opacity="0.7"
     id="g73">
    <circle
       cx="748.15"
       cy="555.65"
       r="11.52"
       fill="url(#b1395abd-e294-4466-9af9-40f9f1f4ad0f)"
       id="circle71" />
  </g>
  <circle
     cx="748.15"
     cy="555.65"
     r="10.67"
     opacity="0.2"
     id="circle75"
     style="opacity:1;fill:#ffc400;fill-opacity:1" />
  <circle
     cx="776.88"
     cy="630.76"
     r="11.93"
     opacity="0.2"
     id="circle77"
     style="opacity:1;fill:#ffc400;fill-opacity:1" />
  <g
     opacity="0.7"
     id="g81">
    <path
       style="fill:url(#a8b11853-451e-4181-8600-fa718044326b)"
       d="m 365.69876,376.71677 a 154.77,154.77 0 0 0 -17.5,-72 c -5.49,-10.44 -10.5,-16.92 -14.36,-20.91 a 10.25,10.25 0 0 0 -11.74,-2.26 10.64,10.64 0 0 0 -4.11,2.65 c -5.21,5.4 -9.92,12.54 -14,20.13 a 155.43,155.43 0 0 0 -18.37,74 v 15.48 h -9.93 v -180.01 c 0,-37.72 -8.44,-74.93 -25,-107.93 -7.84,-15.640002 -15,-25.360002 -20.49,-31.330002 a 14.2,14.2 0 0 0 -21.35,0 c -7.44,8.09 -14.16,18.79 -20,30.160002 -17.39,33.72 -26.22,72 -26.22,110.82 v 178.22 h -8.58 v -16.23 a 155.39,155.39 0 0 0 -18.37,-73.95 c -4.11,-7.59 -8.82,-14.73 -14,-20.13 a 10.27,10.27 0 0 0 -12,-2.18 l 0.36,0.19 a 10.76,10.76 0 0 0 -3.35,2.34 c -3.85,4 -8.860001,10.47 -14.350001,20.91 a 154.77,154.77 0 0 0 -17.5,72 v 269 h 30.640001 l -3.38,22.11 v 66.13 h 25.06 v -66.13 l -3.35,-22.12 h 30.2 v -245 h 8.58 v 243.94 h 24.47 l -3.51,23.18 v 66.13 h 25.06 v -66.13 l -3.51,-23.21 h 33 l -3.53,23.21 v 66.13 h 25.06 v -66.13 l -3.51,-23.21 h 19.54 v -243.88 h 9.93 v 245.37 h 8.05 v -0.37 h 26.62 l -3.34,22.09 v 66.13 h 25.06 v -66.13 l -3.35,-22.12 h 27.07 z"
       fill="url(#a8b11853-451e-4181-8600-fa718044326b)"
       id="path79" />
  </g>
  <polygon
     transform="translate(-304.27124,69.686768)"
     points="412.67,585.25 416.91,556.44 432.16,556.44 436.4,585.25 "
     fill="#535461"
     id="polygon83" />
  <polygon
     transform="translate(-304.27124,69.686768)"
     points="616.03,585.25 620.26,556.44 635.52,556.44 639.75,585.25 "
     fill="#535461"
     id="polygon89" />
  <polygon
     transform="translate(-304.27124,69.686768)"
     points="489.78,585.25 494.01,556.44 509.27,556.44 513.5,585.25 "
     fill="#535461"
     id="polygon95" />
  <polygon
     transform="translate(-304.27124,69.686768)"
     points="538.08,585.25 542.31,556.44 557.56,556.44 561.8,585.25 "
     fill="#535461"
     id="polygon101" />
  <rect
     x="132.12875"
     y="388.03677"
     width="169.46001"
     height="6.7800002"
     fill="#535461"
     id="rect107" />
  <path
     d="m 327.77876,280.95677 a 9.55,9.55 0 0 0 -14.16,0 c -4.93,5.26 -9.39,12.21 -13.28,19.6 a 154.77,154.77 0 0 0 -17.39,72 v 260.84 h 75 v -261.94 a 154.22,154.22 0 0 0 -16.57,-70.14 c -5.21,-10.16 -9.95,-16.52 -13.6,-20.36 z"
     fill="#e0e0e0"
     id="path109" />
  <path
     d="m 112.70876,280.95677 a 9.55,9.55 0 0 1 14.16,0 c 4.94,5.26 9.39,12.21 13.29,19.6 a 154.89,154.89 0 0 1 17.39,72 v 260.84 H 82.548759 v -261.94 a 154.22,154.22 0 0 1 16.57,-70.14 c 5.200001,-10.16 9.940001,-16.52 13.590001,-20.36 z"
     fill="#e0e0e0"
     id="path111" />
  <polygon
     transform="translate(-304.27124,69.686768)"
     points="405.05,307.42 405.05,329.36 387.25,329.36 387.25,307.33 "
     fill="#535461"
     id="polygon113" />
  <polygon
     transform="translate(-304.27124,69.686768)"
     points="461.82,307.42 461.82,329.36 444.02,329.36 444.02,307.33 "
     fill="#535461"
     id="polygon115" />
  <polygon
     transform="translate(-304.27124,69.686768)"
     points="605.01,307.42 605.01,329.36 587.22,329.36 587.22,307.33 "
     fill="#535461"
     id="polygon117" />
  <polygon
     transform="translate(-304.27124,69.686768)"
     points="661.78,307.42 661.78,329.36 643.99,329.36 643.99,307.33 "
     fill="#535461"
     id="polygon119" />
  <g
     opacity="0.1"
     id="g123">
    <path
       d="m 140.15876,300.21677 c -3.9,-7.39 -8.35,-14.34 -13.29,-19.6 a 9.51,9.51 0 0 0 -11.33,-2.13 10.11,10.11 0 0 1 2.86,2.13 c 4.93,5.26 9.39,12.21 13.28,19.6 a 154.75,154.75 0 0 1 17.39,72 v 260.82 h 8.48 v -260.81 a 154.88,154.88 0 0 0 -17.39,-72.01 z"
       id="path121" />
  </g>
  <g
     opacity="0.1"
     id="g127">
    <path
       d="m 307.11876,300.93677 c 3.89,-7.39 8.35,-14.34 13.28,-19.6 a 9.92,9.92 0 0 1 3.28,-2.34 9.54,9.54 0 0 0 -10.9,2.34 c -4.94,5.26 -9.4,12.21 -13.29,19.6 a 154.89,154.89 0 0 0 -17.39,72 v 260.86 h 7.63 v -260.84 a 154.77,154.77 0 0 1 17.39,-72.02 z"
       id="path125" />
  </g>
  <path
     style="fill:url(#linearGradient972)"
     d="m 120.58876,719.33677 h -0.65 a 11.54,11.54 0 0 1 -11.54,-11.54 v -52.86 h 23.73 v 52.86 a 11.54,11.54 0 0 1 -11.54,11.54 z"
     fill="url(#f1ea05b4-3102-498a-ab85-05d222a08540)"
     id="path129" />
  <path
     style="fill:url(#a65a9945-4cea-45de-8969-2abf9ed9c602)"
     d="m 197.69876,719.33677 h -0.66 a 11.54,11.54 0 0 1 -11.53,-11.54 v -52.86 h 23.72 v 52.86 a 11.54,11.54 0 0 1 -11.53,11.54 z"
     fill="url(#a65a9945-4cea-45de-8969-2abf9ed9c602)"
     id="path131" />
  <path
     style="fill:url(#e83da883-60d3-4fc8-a1fc-2d21e84cc652)"
     d="m 245.98876,719.33677 h -0.67 a 11.54,11.54 0 0 1 -11.51,-11.54 v -52.86 h 23.72 v 52.86 a 11.54,11.54 0 0 1 -11.54,11.54 z"
     fill="url(#e83da883-60d3-4fc8-a1fc-2d21e84cc652)"
     id="path133" />
  <path
     style="fill:url(#e7319a41-e0d4-4be9-9de6-9ff87ed2cc66)"
     d="m 323.94876,719.33677 h -0.63 a 11.54,11.54 0 0 1 -11.56,-11.54 v -52.86 h 23.72 v 52.86 a 11.54,11.54 0 0 1 -11.53,11.54 z"
     fill="url(#e7319a41-e0d4-4be9-9de6-9ff87ed2cc66)"
     id="path135" />
  <path
     d="m 229.65876,76.436768 a 13.2,13.2 0 0 0 -20.21,0 c -7,7.88 -13.4,18.29 -19,29.370002 -16.46,32.84 -24.82,70.12 -24.82,107.92 v 418.61 h 107 v -420.29 c 0,-36.73 -8,-73 -23.64,-105.1 -7.35,-15.230002 -14.12,-24.700002 -19.33,-30.510002 z"
     fill="#eee"
     id="path137" />
  <rect
     x="190.51877"
     y="122.93677"
     width="55.84"
     height="25.59"
     rx="11"
     fill="#535461"
     id="rect139" />
  <g
     opacity="0.1"
     id="g143">
    <rect
       x="166.20877"
       y="228.03677"
       width="105.91"
       height="4.1100001"
       id="rect141" />
  </g>
  <path
     d="M793.45,354.22h0a34.62,34.62,0,0,0-10.22-9h0a34.33,34.33,0,1,0-17.17,64.07c.73,0,1.46,0,2.17-.08a34.32,34.32,0,0,0,25.23-54.93Z"
     transform="translate(-32.41 -42.89)"
     fill="url(#a8b1f8cd-6e4b-4699-9cd1-501c51b12a87)"
     id="path145" />
  <path
     d="M798.5,374.9a32.45,32.45,0,0,1-30.4,32.38c-.67,0-1.36.07-2.05.07a32.46,32.46,0,1,1,16.23-60.56h0a32.59,32.59,0,0,1,9.66,8.56h0A32.3,32.3,0,0,1,798.5,374.9Z"
     transform="translate(-32.41 -42.89)"
     opacity="0.2"
     id="path147"
     style="fill:#ffc400;fill-opacity:1;opacity:1" />
  <path
     d="M758.06,354.31a34.88,34.88,0,0,0-4.84,2.55,7.61,7.61,0,0,0-2.59,2.32,3,3,0,0,0-.06,3.31c.79,1.08,2.31,1.24,3.65,1.32a9.34,9.34,0,0,0,4.18-.42,9,9,0,0,0,2.44-1.77l2.79-2.53c1-.88,2-2.09,1.61-3.33a3,3,0,0,0-2.37-1.6,9.92,9.92,0,0,0-7,1.23"
     transform="translate(-32.41 -42.89)"
     opacity="0.1"
     id="path149" />
  <g
     opacity="0.1"
     id="g153">
    <circle
       cx="714"
       cy="344.82"
       r="1.71"
       id="circle151" />
  </g>
  <g
     opacity="0.1"
     id="g157">
    <circle
       cx="748.72"
       cy="334"
       r="6.26"
       id="circle155" />
  </g>
  <g
     opacity="0.1"
     id="g161">
    <path
       d="M792,355.35h0a8.54,8.54,0,1,1-9.67-8.56h0A32.59,32.59,0,0,1,792,355.35Z"
       transform="translate(-32.41 -42.89)"
       id="path159" />
  </g>
  <g
     opacity="0.1"
     id="g165">
    <path
       d="M792.58,393.58a32.37,32.37,0,0,1-24.48,13.7c0-.45-.06-.9-.06-1.36a15.38,15.38,0,0,1,24.54-12.34Z"
       transform="translate(-32.41 -42.89)"
       id="path163" />
  </g>
  <path
     d="m 515.09968,197.66321 a 22.64,22.64 0 0 1 -21.21,22.59 c -0.47,0 -1,0 -1.43,0 a 22.64,22.64 0 1 1 11.32,-42.25 v 0 a 22.67,22.67 0 0 1 6.74,6 v 0 a 22.52,22.52 0 0 1 4.58,13.66 z"
     opacity="0.2"
     id="path169"
     style="opacity:1;fill:#ffc400;fill-opacity:1" />
  <path
     d="m 486.87968,183.30321 a 23.5,23.5 0 0 0 -3.37,1.77 5.54,5.54 0 0 0 -1.81,1.62 2.13,2.13 0 0 0 0,2.31 3.23,3.23 0 0 0 2.54,0.92 6.51,6.51 0 0 0 2.92,-0.29 6.29,6.29 0 0 0 1.71,-1.24 l 1.94,-1.76 c 0.68,-0.62 1.42,-1.46 1.12,-2.32 a 2,2 0 0 0 -1.65,-1.12 6.87,6.87 0 0 0 -4.87,0.86"
     opacity="0.1"
     id="path171" />
  <g
     transform="translate(193.81968,-313.34679)"
     opacity="0.1"
     id="g175">
    <circle
       cx="284.92999"
       cy="519.94"
       r="1.1900001"
       id="circle173" />
  </g>
  <g
     transform="translate(193.81968,-313.34679)"
     opacity="0.1"
     id="g179">
    <circle
       cx="309.16"
       cy="512.40002"
       r="4.3699999"
       id="circle177" />
  </g>
  <g
     transform="translate(193.81968,-313.34679)"
     opacity="0.1"
     id="g183">
    <path
       d="m 349.12,540.26 v 0 a 6,6 0 1 1 -6.75,-6 v 0 a 22.67,22.67 0 0 1 6.75,6 z"
       transform="translate(-32.41,-42.89)"
       id="path181" />
  </g>
  <g
     transform="translate(193.81968,-313.34679)"
     opacity="0.1"
     id="g187">
    <path
       d="m 349.56,566.93 a 22.59,22.59 0 0 1 -17.08,9.56 c 0,-0.31 0,-0.63 0,-1 a 10.73,10.73 0 0 1 17.12,-8.61 z"
       transform="translate(-32.41,-42.89)"
       id="path185" />
  </g>
  <polyline
     points="837.69 539.42 859.49 551.02 842.47 570.06"
     fill="none"
     id="polyline189" />
  <circle
     cx="954.9"
     cy="428.23"
     r="1.84"
     fill="#fff"
     id="circle191" />
  <path
     style="opacity:1;fill:#ffc400;fill-opacity:1;stroke-width:0.00719853"
     d="m 880.78878,574.62838 c -0.42018,-0.0138 -0.86549,-0.0868 -1.27054,-0.20815 -1.14185,-0.34215 -2.12299,-1.0658 -2.78295,-2.05259 -0.34084,-0.50962 -0.5932,-1.09342 -0.72939,-1.68733 -0.33523,-1.46183 -0.0155,-2.98802 0.87762,-4.1892 0.35539,-0.47798 0.80771,-0.9041 1.29869,-1.22346 0.65102,-0.42347 1.36962,-0.68911 2.13507,-0.78926 0.3728,-0.0488 0.79978,-0.0549 1.16976,-0.0168 0.77354,0.0797 1.52164,0.33417 2.17396,0.73957 1.27797,0.79423 2.13812,2.1058 2.35667,3.59349 0.18333,1.24796 -0.10231,2.51615 -0.8042,3.57048 -0.6476,0.97277 -1.62474,1.70017 -2.7449,2.04334 -0.54192,0.16602 -1.09944,0.23901 -1.67979,0.21992 z"
     id="path1051" />
  <path
     style="opacity:1;fill:#ffc400;fill-opacity:1;stroke-width:0.0220971"
     d="m 351.82588,738.98158 c -1.16636,-0.14556 -2.09574,-0.90454 -2.43848,-1.99138 -0.18114,-0.57442 -0.1607,-1.31001 0.0516,-1.85796 0.14805,-0.38206 0.35319,-0.69247 0.66119,-1.00047 0.56174,-0.56174 1.22468,-0.83759 2.01293,-0.83759 0.33639,0 0.59317,0.0413 0.90509,0.14557 1.47651,0.49361 2.29074,2.1119 1.8018,3.58113 -0.33159,0.9964 -1.13261,1.70632 -2.16551,1.91924 -0.17265,0.0356 -0.67448,0.0607 -0.82864,0.0415 z"
     id="path1055" />
  <path
     style="opacity:1;fill:#ffc400;fill-opacity:1;stroke-width:0.00390625"
     d="m 152.05892,694.5872 v -1.03517 h -1.03516 -1.03515 v -0.42188 -0.42187 h 1.03515 1.03516 v -1.03517 -1.03518 l 0.4209,10e-4 0.42089,9.9e-4 9.9e-4,1.03417 9.8e-4,1.03417 1.03417,9.9e-4 1.03418,9.8e-4 v 0.41992 0.41993 l -1.03418,9.8e-4 -1.03417,9.8e-4 -9.8e-4,1.03418 -9.9e-4,1.03417 -0.42089,9.9e-4 -0.4209,10e-4 z"
     id="path1059" />
  <path
     style="opacity:1;fill:#ffc400;fill-opacity:1;stroke-width:0.176777"
     d="m 146.56694,598.6041 c -0.0648,-0.0648 -0.11785,-1.09896 -0.11785,-2.2981 v -2.18024 h -2.20971 -2.20971 v -0.97228 -0.97227 h 2.20971 2.20971 v -2.2981 -2.29809 h 0.97227 0.97227 v 2.29809 2.2981 h 2.2981 2.2981 v 0.97227 0.97228 h -2.2981 -2.2981 v 2.29809 2.2981 h -0.85442 c -0.46993,0 -0.90745,-0.053 -0.97227,-0.11785 z"
     id="path1061" />
  <path
     style="opacity:1;fill:#ffc400;fill-opacity:1;stroke-width:0.125"
     d="m 467.58724,765.86103 v -2.25 h -2.25 -2.25 v -0.9375 -0.9375 h 2.24718 2.24718 l 0.0341,-2.28125 0.0341,-2.28125 h 0.9375 0.9375 l 0.0341,2.28125 0.0341,2.28125 h 2.24718 2.24718 v 0.9375 0.9375 h -2.25 -2.25 v 2.25 2.25 h -1 -1 z"
     id="path1063" />
  <path
     style="opacity:1;fill:#ffc400;fill-opacity:1;stroke-width:0.0441942"
     d="m 67.045206,524.6095 v -1.04017 H 66.006643 64.96808 v -0.44194 -0.44194 h 1.038563 1.038563 v -1.04016 -1.04017 l 0.430893,0.0126 0.430894,0.0127 0.01186,1.0267 0.01186,1.0267 1.026702,0.0119 1.026702,0.0119 v 0.41984 0.41985 l -1.026702,0.0119 -1.026702,0.0119 -0.01186,1.0267 -0.01186,1.0267 -0.430894,0.0127 -0.430893,0.0127 z"
     id="path1065" />
  <path
     style="opacity:1;fill:#ffc400;fill-opacity:1;stroke-width:0.0441942"
     d="m 293.0588,456.59304 v -1.03856 h -1.03856 -1.03856 v -0.41984 -0.41985 h 1.03856 1.03856 v -1.03856 -1.03856 h 0.41985 0.41984 v 1.03856 1.03856 h 1.03857 1.03856 v 0.41985 0.41984 h -1.03856 -1.03857 v 1.03856 1.03857 h -0.41984 -0.41985 z"
     id="path1067" />
  <path
     style="opacity:1;fill:#ffc400;fill-opacity:1;stroke-width:0.0441942"
     d="m 320.04374,370.58705 v -1.03856 h -1.03856 -1.03857 v -0.41984 -0.41985 h 1.03857 1.03856 v -1.03856 -1.03856 h 0.44194 0.44194 v 1.03856 1.03856 h 1.03857 1.03856 v 0.41985 0.41984 h -1.03856 -1.03857 v 1.03856 1.03857 h -0.44194 -0.44194 z"
     id="path1069" />
  <path
     style="opacity:1;fill:#ffc400;fill-opacity:1;stroke-width:0.0625"
     d="m 292.07565,252.157 c -1.89648,-0.44057 -3.28685,-1.72174 -3.87479,-3.57049 -0.19816,-0.62309 -0.24416,-1.83192 -0.0954,-2.50781 0.56174,-2.55282 2.98484,-4.31207 5.54051,-4.02256 1.25427,0.14209 2.25994,0.63794 3.12105,1.53884 0.72443,0.7579 1.08485,1.41058 1.31687,2.3847 0.10707,0.44953 0.12501,0.68584 0.10299,1.35683 -0.0233,0.7105 -0.0521,0.88704 -0.22888,1.40625 -0.55531,1.63052 -1.89142,2.89523 -3.53856,3.34947 -0.4906,0.13529 -1.87545,0.17356 -2.34375,0.0648 z"
     id="path1071" />
  <path
     style="opacity:1;fill:#ffc400;fill-opacity:1;stroke-width:0.03125"
     d="m 419.05916,157.59587 v -1.03083 l -1.03907,-0.008 -1.03906,-0.008 v -0.42188 -0.42187 l 1.03906,-0.008 1.03907,-0.008 v -1.03083 -1.03083 h 0.42187 0.42188 v 1.03125 1.03125 h 1.03125 1.03125 v 0.4375 0.4375 h -1.03125 -1.03125 v 1.03125 1.03125 h -0.42188 -0.42187 z"
     id="path1073" />
  <path
     style="opacity:1;fill:#ffc400;fill-opacity:1;stroke-width:0.0625"
     d="m 423.53653,686.36675 v -2.25 h -2.28125 -2.28125 v -0.96875 -0.96875 h 2.28125 2.28125 v -2.28125 -2.28125 h 0.9375 0.9375 v 2.28125 2.28125 h 2.28125 2.28125 v 0.96875 0.96875 h -2.28125 -2.28125 v 2.25 2.25 h -0.9375 -0.9375 z"
     id="path1077" />
  <path
     style="opacity:1;fill:#ffc400;fill-opacity:1;stroke-width:0.353553"
     d="m 564.862,714.68968 c -1.72073,-0.92284 -2.5561,-2.20365 -2.72656,-4.18044 -0.44149,-5.11963 6.44987,-7.46054 9.27406,-3.15028 1.63874,2.50103 0.6269,6.07428 -2.0663,7.297 -1.87252,0.85013 -2.94388,0.85819 -4.4812,0.0337 z"
     id="path1079" />
  <path
     style="opacity:1;fill:#ffc400;fill-opacity:1;stroke-width:0.176777"
     d="m 981.60652,600.60954 c -1.03381,-0.69669 -1.44219,-1.48021 -1.3629,-2.61481 0.0848,-1.21357 0.6137,-2.02102 1.62442,-2.48004 0.96017,-0.43605 1.63357,-0.42019 2.58676,0.0609 1.09508,0.55272 1.62223,1.49743 1.53304,2.74737 -0.0743,1.04103 -0.44745,1.66936 -1.36047,2.29076 -0.80874,0.55043 -2.20071,0.54849 -3.02085,-0.004 z"
     id="path1083" />
  <path
     style="opacity:1;fill:#ffc400;fill-opacity:1;stroke-width:0.25"
     d="m 1049.0773,469.1345 c -0.7255,-0.72553 -0.85,-1.02206 -0.85,-2.025 0,-1.00294 0.1245,-1.29947 0.85,-2.025 1.2247,-1.22464 2.8254,-1.22464 4.05,0 0.6871,0.68703 0.85,1.04426 0.85,1.86324 0,2.02252 -1.0061,3.03676 -3.0126,3.03676 -0.8464,0 -1.1938,-0.15645 -1.8874,-0.85 z"
     id="path1085" />
  <path
     style="opacity:1;fill:#ffc400;fill-opacity:1;stroke-width:0.03125"
     d="m 775.03087,446.59619 v -1.03125 h -1.03125 -1.03125 v -0.4375 -0.4375 h 1.03125 1.03125 v -1.03125 -1.03125 h 0.4375 0.4375 v 1.03125 1.03125 h 1.04688 1.04687 v 0.4375 0.4375 h -1.04687 -1.04688 v 1.03125 1.03125 h -0.4375 -0.4375 z"
     id="path1089" />
  <path
     style="opacity:1;fill:#ffc400;fill-opacity:1;stroke-width:0.0883883"
     d="m 954.12625,429.9394 c -0.19487,-0.0912 -0.47902,-0.30784 -0.63145,-0.48145 -0.72829,-0.82948 -0.58129,-2.12749 0.31244,-2.75882 0.49858,-0.3522 1.39107,-0.42339 1.91843,-0.15302 0.67725,0.34722 1.02648,0.92758 1.02648,1.70582 0,0.6464 -0.26639,1.16046 -0.7929,1.53012 -0.48887,0.34323 -1.28898,0.41191 -1.833,0.15735 z"
     id="path1091" />
  <path
     style="opacity:1;fill:#ffc400;fill-opacity:1;stroke-width:0.0625"
     d="m 949.05351,322.61761 v -1.02974 l -1.04688,-0.0171 -1.04687,-0.0171 -0.0185,-0.42188 -0.0185,-0.42187 h 1.06535 1.06536 v -1.0625 -1.0625 h 0.4375 0.4375 v 1.0625 1.0625 h 1.03125 1.03125 v 0.4375 0.4375 h -1.03125 -1.03125 v 1.03125 1.03125 h -0.4375 -0.4375 z"
     id="path1093" />
  <path
     style="opacity:1;fill:#ffc400;fill-opacity:1;stroke-width:0.125"
     d="m 654.01254,132.6208 v -1 h -1.0625 -1.0625 v -0.5 -0.5 h 1.0625 1.0625 v -1 -1 h 0.5 0.5 v 1 1 h 1 1 v 0.5 0.5 h -1 -1 v 1 1 h -0.5 -0.5 z"
     id="path1095" />
</svg>
