<svg xmlns="http://www.w3.org/2000/svg" viewBox="0 0 1823 575">
    <g fill="none" stroke-linecap="round" stroke-width="81.767">
        <path stroke="#2879fe"
            d="M54.257 524.998V265.056c13.687-103.11 78.946-181.08 164.666-202.41 85.72-21.33 174.357 18.342 223.285 99.939" />
        <path stroke="#fec401" stroke-linejoin="round" d="M353.388 162.585h88.82v-88.82" />
        <path stroke="#2879fe" stroke-linejoin="round"
            d="M840.922 483.139a213.13 238.494 0 0 1-252.682-6.964 213.13 238.494 0 0 1-69.047-272.08A213.13 238.494 0 0 1 730.89 49.564 213.13 238.494 0 0 1 925.594 229.92" />
        <path stroke="#fec401" d="M605.77 228.02h226.6" />
        <path stroke="#2879fe" stroke-linejoin="round"
            d="M1034.469 525.61c115.519-6.028 205.674-114.026 203.188-243.403-2.485-129.377-96.704-232.94-212.348-233.407m530.647-.071a192.044 192.044 0 0 0-56.073 8.531c-82.15 25.301-145.182 104.354-155.179 203.17-12.176 120.347 58.178 231.802 163.61 259.19 105.433 27.388 212.472-37.987 248.92-152.03 36.448-114.042-9.264-240.548-106.305-294.19" />
        <path stroke="#fec401" d="M1027.066 139.595V435.66" />
        <path stroke="#fec401" stroke-linejoin="round" d="M1739.75 73.4h-88.82v88.82" />
    </g>
</svg>