<svg xmlns="http://www.w3.org/2000/svg" version="1.1" viewBox="0 0 1823 575">
    <g fill="none" stroke="#fec401" stroke-width="5">
        <path id="e-main" d="M 748.01 9.49 C 767.10 10.62 785.67 14.55 803.94 20.09 C 836.49 30.67 865.95 48.78 891.02 71.97 C 915.96 95.25 936.27 123.29 950.89 154.11 C 961.18 175.26 968.42 197.51 973.56 220.43 C 975.58 229.18 976.47 238.22 977.80 247.13 C 979.33 257.50 977.65 268.17 972.20 277.19 C 965.29 288.98 952.63 296.88 939.03 298.03 C 926.76 299.23 914.53 294.74 905.45 286.53 C 901.05 282.44 897.70 277.14 895.39 271.62 C 891.83 263.16 891.75 253.71 889.61 244.41 C 883.71 214.58 872.38 186.21 854.49 161.51 C 836.70 136.97 812.23 116.16 783.76 105.23 C 778.67 103.24 773.50 101.21 768.22 99.80 C 763.78 98.61 759.17 97.83 754.63 97.14 C 729.35 93.08 702.76 96.98 679.45 107.43 C 652.93 119.19 630.91 138.58 613.85 161.85 C 599.46 181.90 588.62 204.64 582.44 228.54 C 568.48 279.58 572.93 336.22 596.06 383.94 C 609.92 412.26 629.91 437.14 656.22 454.77 C 675.79 468.08 698.86 476.42 722.43 478.49 C 749.09 480.76 776.28 474.59 799.62 461.61 C 806.12 458.10 811.78 454.02 819.03 452.13 C 834.09 448.06 850.47 452.48 861.32 463.67 C 872.54 474.99 876.40 492.26 871.35 507.34 C 868.21 516.85 861.65 524.87 853.26 530.26 C 827.02 546.77 797.56 558.01 766.92 562.80 C 747.14 565.79 727.05 566.10 707.19 563.76 C 675.11 559.68 643.76 548.79 616.27 531.73 C 592.26 516.94 570.64 498.02 552.91 476.08 C 515.82 430.46 494.09 373.44 489.16 315.00 C 487.79 301.42 488.02 287.62 488.29 273.98 C 489.46 244.76 495.10 215.97 504.21 188.20 C 513.76 160.21 527.34 133.68 544.82 109.82 C 556.42 94.27 569.50 79.91 584.01 67.03 C 601.84 51.98 621.03 38.91 642.41 29.41 C 663.56 19.59 686.21 13.48 709.31 10.58 C 722.23 8.95 735.02 9.00 748.01 9.49 Z"/>
        <path id="r-main" d="M 229.00 9.69 C 283.24 9.97 336.26 31.48 376.83 67.19 C 380.38 70.43 383.87 73.68 387.88 76.35 C 387.81 91.86 387.48 107.46 387.89 123.00 C 388.29 129.01 388.58 134.93 387.75 140.92 C 375.95 142.12 363.84 140.99 352.00 140.70 C 344.11 140.49 336.34 141.49 328.46 140.65 C 322.47 133.69 314.97 127.81 307.58 122.42 C 283.92 105.71 255.17 95.44 226.00 96.39 C 206.50 95.95 187.51 100.70 169.92 108.93 C 150.72 117.53 133.52 130.88 119.30 146.30 C 108.48 158.48 98.87 171.92 91.32 186.37 C 88.57 191.47 89.18 196.43 89.21 202.00 C 89.37 207.68 89.11 213.33 88.95 219.00 C 89.26 251.75 89.24 284.26 88.59 317.00 C 88.54 360.36 88.50 403.69 88.49 447.05 C 87.99 466.37 88.28 485.68 88.20 505.00 C 88.13 512.16 88.56 519.67 87.55 526.74 C 85.90 538.08 79.42 548.47 70.11 555.11 C 57.72 564.15 40.63 565.71 26.76 559.23 C 17.06 554.86 9.33 546.63 5.17 536.88 C 2.42 530.50 1.78 523.88 1.71 517.00 C 1.65 471.66 1.97 426.33 1.87 381.00 C 2.36 359.67 2.09 338.33 2.12 317.00 C 1.56 303.66 1.93 290.34 1.92 277.00 C 1.81 248.66 2.04 220.34 2.27 192.01 C 2.44 183.74 2.13 175.65 4.81 167.72 C 7.17 160.88 10.59 154.34 13.91 147.92 C 25.10 126.01 39.44 106.08 55.69 87.66 C 72.40 69.38 91.90 53.87 113.09 41.10 C 127.51 32.85 142.79 26.05 158.47 20.59 C 181.28 13.20 205.01 9.42 229.00 9.69 Z"/>
        <path id="d-main" d="M 1051.97 13.25 C 1087.76 12.94 1123.73 21.95 1155.37 38.64 C 1172.61 47.38 1188.23 58.62 1202.98 71.04 C 1225.41 90.95 1244.52 114.63 1259.23 140.76 C 1278.03 173.76 1289.95 210.77 1295.29 248.31 C 1296.46 259.21 1297.91 270.01 1297.85 281.00 C 1298.36 304.38 1297.08 327.34 1292.29 350.29 C 1285.03 387.61 1270.81 424.08 1249.89 455.87 C 1225.97 493.08 1192.19 524.61 1152.69 544.69 C 1125.04 558.88 1094.60 566.90 1063.67 569.33 C 1053.07 569.62 1042.27 570.60 1032.22 566.70 C 1017.89 561.68 1006.87 548.83 1004.20 533.87 C 1001.56 519.71 1006.36 504.73 1016.86 494.85 C 1025.48 486.61 1037.16 482.68 1048.96 482.52 C 1057.58 482.45 1065.98 482.52 1074.53 481.13 C 1081.35 479.84 1087.99 477.53 1094.65 475.61 C 1126.01 465.13 1152.60 443.46 1171.90 416.89 C 1205.15 371.09 1217.69 311.26 1208.71 255.67 C 1206.39 238.88 1201.76 222.49 1195.30 206.83 C 1185.71 182.70 1171.15 160.58 1152.72 142.28 C 1135.35 125.54 1114.76 112.53 1091.65 105.36 C 1082.40 102.45 1072.55 101.02 1062.91 100.06 C 1056.39 99.39 1049.72 99.89 1043.37 98.70 C 1028.67 96.06 1015.97 85.12 1010.88 71.11 C 1006.52 59.81 1007.58 46.91 1013.27 36.27 C 1020.61 22.10 1036.03 13.03 1051.97 13.25 Z"/>
        <path id="o-main" d="M 1534.95 20.46 C 1542.03 21.08 1549.06 24.25 1555.03 27.97 C 1559.98 31.01 1563.71 35.36 1566.77 40.23 C 1576.85 55.83 1575.40 78.10 1562.93 91.97 C 1555.99 100.01 1546.73 104.12 1536.61 106.64 C 1519.98 110.81 1504.39 118.47 1490.58 128.57 C 1471.08 142.49 1454.56 160.66 1442.06 181.06 C 1433.96 193.81 1428.16 207.53 1422.52 221.48 C 1404.26 275.09 1407.04 335.38 1431.25 386.68 C 1440.61 407.47 1454.11 425.73 1470.23 441.77 C 1485.93 456.92 1504.95 469.41 1525.66 476.50 C 1547.11 484.55 1569.94 486.05 1592.54 483.09 C 1597.37 482.26 1602.13 481.03 1606.88 479.86 C 1623.95 475.56 1639.89 467.29 1654.31 457.32 C 1675.64 441.68 1693.41 421.37 1706.19 398.22 C 1711.20 388.49 1716.19 378.96 1719.64 368.54 C 1726.02 350.87 1730.13 332.50 1731.84 313.79 C 1732.80 304.36 1732.50 294.55 1732.50 285.00 C 1732.52 277.79 1731.81 270.63 1730.76 263.51 C 1728.60 246.04 1724.09 228.83 1717.70 212.45 C 1713.47 201.74 1708.52 190.90 1701.71 181.57 C 1701.52 172.68 1701.83 163.88 1702.25 155.00 C 1702.11 141.33 1701.10 127.49 1701.94 113.81 C 1713.26 113.06 1724.66 113.75 1736.00 113.57 C 1745.00 113.81 1753.64 112.85 1762.56 114.36 C 1766.36 121.98 1772.10 128.27 1776.30 135.69 C 1790.56 158.65 1800.47 183.72 1808.33 209.51 C 1814.57 232.85 1818.20 256.83 1819.48 280.96 C 1819.53 293.43 1819.99 305.54 1818.54 317.92 C 1816.66 340.32 1812.59 362.48 1805.84 383.93 C 1795.02 420.10 1776.66 453.63 1752.80 482.84 C 1737.18 501.54 1719.03 518.25 1698.68 531.68 C 1683.58 541.52 1667.49 550.30 1650.56 556.53 C 1633.62 562.98 1615.73 567.11 1597.79 569.60 C 1588.86 570.92 1580.01 570.82 1571.00 570.85 C 1562.36 570.84 1553.77 570.68 1545.19 569.57 C 1515.91 565.80 1487.43 556.63 1461.61 542.28 C 1446.84 533.69 1432.82 524.36 1419.96 513.06 C 1408.70 503.76 1399.31 493.18 1389.82 482.16 C 1376.81 466.32 1365.58 449.09 1356.22 430.86 C 1339.34 396.83 1328.59 359.88 1325.28 322.01 C 1323.99 310.07 1324.13 298.10 1324.22 286.00 C 1324.25 269.81 1326.19 253.60 1328.94 237.66 C 1332.34 221.26 1336.15 204.73 1342.00 189.01 C 1354.34 152.70 1374.96 119.10 1400.96 90.96 C 1413.41 78.00 1427.13 66.08 1442.10 56.12 C 1454.74 48.22 1467.73 40.69 1481.27 34.45 C 1492.59 29.71 1504.37 25.51 1516.18 22.20 C 1522.33 20.43 1528.58 19.88 1534.95 20.46 Z"/>
        <path id="o-arrow" d="M 1659.96 25.47 C 1687.98 25.54 1716.00 25.53 1744.02 25.56 C 1751.37 25.80 1758.64 26.60 1766.01 26.58 C 1773.34 26.81 1780.76 30.30 1786.89 34.14 C 1794.74 39.06 1800.03 46.91 1803.68 55.26 C 1805.97 60.58 1805.89 66.34 1805.81 72.04 C 1805.79 85.57 1798.21 98.53 1787.08 106.04 C 1779.72 111.11 1771.34 113.33 1762.56 114.36 C 1753.64 112.85 1745.00 113.81 1736.00 113.57 C 1724.66 113.75 1713.26 113.06 1701.94 113.81 C 1701.10 127.49 1702.11 141.33 1702.25 155.00 C 1701.83 163.88 1701.52 172.68 1701.71 181.57 C 1699.32 192.24 1693.27 202.76 1684.25 209.15 C 1676.24 214.34 1667.78 218.24 1657.99 217.65 C 1648.56 218.04 1640.59 214.12 1632.97 209.01 C 1624.77 203.42 1619.01 194.24 1616.52 184.73 C 1613.86 173.43 1614.59 160.59 1614.48 149.00 C 1614.34 134.00 1614.56 119.00 1614.29 104.00 C 1614.13 97.00 1614.33 90.00 1614.38 83.00 C 1614.48 74.11 1613.72 66.05 1616.57 57.43 C 1619.72 48.13 1625.88 39.57 1634.14 34.17 C 1641.63 29.17 1650.86 25.41 1659.96 25.47 Z"/>
        <path id="r-arrow" d="M 437.85 37.56 C 456.13 39.94 471.56 55.35 474.08 73.61 C 474.98 81.36 475.55 89.20 475.51 97.00 C 475.46 125.68 475.73 154.34 475.54 183.01 C 475.44 193.08 472.04 202.97 465.85 210.92 C 459.27 219.11 450.00 225.04 439.82 227.63 C 434.20 229.03 427.78 228.51 422.00 228.55 C 394.34 228.63 366.67 228.48 339.00 228.50 C 331.99 228.52 324.74 228.15 317.85 226.79 C 308.61 224.81 300.64 219.60 294.39 212.60 C 287.53 205.44 284.27 195.38 283.63 185.65 C 283.37 170.92 290.58 156.22 303.02 148.11 C 310.59 143.00 319.42 140.88 328.46 140.65 C 336.34 141.49 344.11 140.49 352.00 140.70 C 363.84 140.99 375.95 142.12 387.75 140.92 C 388.58 134.93 388.29 129.01 387.89 123.00 C 387.48 107.46 387.81 91.86 387.88 76.35 C 388.71 69.60 390.69 63.08 394.38 57.32 C 399.20 49.17 406.96 43.30 415.65 39.76 C 422.50 36.90 430.56 36.95 437.85 37.56 Z"/>
        <path id="d-cross" d="M 1050.04 107.88 C 1068.41 108.68 1085.07 122.66 1089.31 140.50 C 1091.42 149.26 1090.58 159.02 1090.73 168.00 C 1090.93 185.34 1090.26 202.66 1090.75 220.00 C 1090.93 236.67 1090.85 253.33 1090.84 270.00 C 1091.54 307.65 1091.08 345.34 1091.19 383.00 C 1091.24 388.67 1091.09 394.33 1090.91 400.00 C 1090.83 411.02 1090.70 422.03 1090.66 433.05 C 1090.79 448.38 1082.01 464.13 1068.25 471.22 C 1061.69 474.92 1054.55 476.80 1047.00 476.64 C 1035.70 476.78 1024.87 472.02 1016.87 464.13 C 1009.88 457.45 1005.83 448.57 1004.09 439.14 C 1003.12 433.25 1003.60 426.97 1003.52 421.00 C 1003.33 331.99 1003.60 242.96 1003.50 153.96 C 1003.61 145.09 1005.84 135.98 1010.41 128.34 C 1018.57 114.82 1034.27 106.68 1050.04 107.88 Z"/>
        <path id="e-cross" d="M 647.00 212.31 C 706.66 211.87 766.34 212.88 826.00 212.36 C 835.77 212.42 844.74 211.14 853.93 215.12 C 870.66 221.22 882.54 238.14 882.19 256.01 C 882.27 267.91 877.07 279.30 868.48 287.44 C 862.68 292.73 855.65 296.32 847.98 297.99 C 839.17 300.19 830.98 299.41 822.00 299.50 C 788.33 299.49 754.67 299.42 721.00 299.59 C 691.00 300.15 660.96 299.95 630.95 299.59 C 622.11 299.65 613.43 297.72 605.81 293.14 C 590.52 284.31 582.04 265.59 585.51 248.28 C 588.05 233.78 598.24 221.39 611.92 215.97 C 622.36 211.62 635.84 212.68 647.00 212.31 Z"/>
    </g>
</svg>
