<?xml version="1.0" encoding="UTF-8"?>
<svg version="1.1" viewBox="0 0 1100 576" xmlns="http://www.w3.org/2000/svg">
    <g id="background" fill="none" stroke-linecap="round" stroke-width="72">
        <path id="rMain"
            d="m54.26 516.9v-259.9c10.07-85.6 64.81-169.7 148.8-197.8 74.87-26.98 162.5 0.3147 213.4 60.18 9.632 10.87 18.22 22.65 25.68 35.11"
            stroke="#264bcf" />
        <path id="rArrow" d="m353.4 154.4h88.82v-88.82" stroke="#ffc40c" stroke-linejoin="round" />
        <path id="eMain"
            d="m840.9 482.5a213.1 238.5 0 0 1-252.7-6.964 213.1 238.5 0 0 1-69.05-272.1 213.1 238.5 0 0 1 211.7-154.5 213.1 238.5 0 0 1 194.7 180.4"
            stroke="#264bcf" stroke-linejoin="round" />
        <path id="eLine" d="m600 225h235" stroke="#ffc40c" />

        <circle id="colonTop" cx="1031" cy="225" r="36" fill="#c80815" />
        <circle id="colonBottom" cx="1033" cy="392.1" r="36" fill="#c80815" />
    </g>
</svg>