<?xml version="1.0" encoding="UTF-8" standalone="no"?>
<svg
   version="1.1"
   id="root"
   sodipodi:docname="logo.svg"
   viewBox="0 0 1823 575"
   xmlns="http://www.w3.org/2000/svg"
   xmlns:svg="http://www.w3.org/2000/svg">
  <g
     fill="none"
     stroke-linecap="round"
     stroke-width="75"
     id="background">
    <path
       stroke="#162b79"
       d="M 54.257,524.998 V 265.056 c 13.687,-103.11 78.946,-181.08 164.666,-202.41 85.72,-21.33 174.357,18.342 223.285,99.939"
       id="rMain"
       style="display:inline" />
    <path
       stroke="#ffc40c"
       stroke-linejoin="round"
       d="m 353.388,162.585 h 88.82 v -88.82"
       id="rArrow" />
    <path
       stroke="#162b79"
       stroke-linejoin="round"
       d="M 840.922,483.139 A 213.13,238.494 0 0 1 588.24,476.175 213.13,238.494 0 0 1 519.193,204.095 213.13,238.494 0 0 1 730.89,49.564 213.13,238.494 0 0 1 925.594,229.92"
       id="eMain" />
    <path
       stroke="#c80815"
       d="m 605.77,228.02 h 226.6"
       id="eLine" />
    <path
       d="m 1559.3054,48.729 a 192.044,192.044 0 0 0 -56.073,8.531 c -82.15,25.301 -145.182,104.354 -155.179,203.17 -12.176,120.347 58.178,231.802 163.61,259.19 105.433,27.388 212.472,-37.987 248.92,-152.03 36.448,-114.042 -9.264,-240.548 -106.305,-294.19"
       id="oMain"
       stroke="#162b79" />
    <path
       d="m 1037.8184,525.61 c 115.519,-6.028 205.674,-114.026 203.188,-243.403 -2.485,-129.377 -96.704,-232.94 -212.348,-233.407"
       id="dMain"
       stroke="#162b79" />
    <path
       stroke="#ffc40c"
       d="M 1030.4154,139.595 V 435.66"
       id="dLine" />
    <path
       stroke="#c80815"
       stroke-linejoin="round"
       d="m 1743.0994,73.4 h -88.82 v 88.82"
       id="oArrow" />
    <circle
       id="colonTop"
       cx="1050"
       cy="139.78362"
       r="40.5"
       fill="#c80815"
       style="display:none" />
    <circle
       id="colonBottom"
       cx="1050"
       cy="435.88745"
       r="40.5"
       fill="#c80815"
       style="display:none" />
  </g>
</svg>
