<svg id="c9110790-68f5-421a-bd61-01bf55405315" data-name="Layer 1" xmlns="http://www.w3.org/2000/svg" xmlns:xlink="http://www.w3.org/1999/xlink" width="915.35" height="848.79" viewBox="0 0 915.35 848.79"><defs><linearGradient id="da9b23d9-0e41-46fc-9133-b8e9e7730c16" x1="597.14" y1="866.91" x2="597.14" y2="202.55" gradientUnits="userSpaceOnUse"><stop offset="0" stop-color="gray" stop-opacity="0.25"/><stop offset="0.54" stop-color="gray" stop-opacity="0.12"/><stop offset="1" stop-color="gray" stop-opacity="0.1"/></linearGradient><linearGradient id="9864eb82-b8e8-438f-a72c-0f0a4e60d74d" x1="559.39" y1="490.86" x2="559.39" y2="488.99" xlink:href="#da9b23d9-0e41-46fc-9133-b8e9e7730c16"/></defs><title>super thank you</title><ellipse cx="491.87" cy="831.88" rx="221.12" ry="16.91" fill="#2979ff"/><ellipse cx="491.87" cy="831.88" rx="221.12" ry="16.91" opacity="0.4"/><path d="M425,108.08C456,80.41,504.77,74.77,549.15,77c139.37,6.92,265.19,74.21,374,150.32,39.39,27.56,78.18,57.25,103.76,95.19,52.06,77.24,36.61,184.25-35.78,247.88-24.63,21.65-54.48,38.25-85.13,53-54.5,26.16-113.31,47.16-175.16,53.13-44.11,4.27-88.77.8-132.62-5.15C475.72,654.69,355.46,618,254.66,555.08c-44.21-27.57-85.88-61.84-104.1-106.45S144,347.51,189.14,321.11c18.67-10.92,41-15.85,62.85-20.48,32.17-6.82,64.86-13.54,93.89-27.39,30-14.32,65.48-42,59.55-73.67C399.06,165.58,394,135.72,425,108.08Z" transform="translate(-142.33 -25.61)" fill="#2979ff"/><path d="M425,108.08C456,80.41,504.77,74.77,549.15,77c139.37,6.92,265.19,74.21,374,150.32,39.39,27.56,78.18,57.25,103.76,95.19,52.06,77.24,36.61,184.25-35.78,247.88-24.63,21.65-54.48,38.25-85.13,53-54.5,26.16-113.31,47.16-175.16,53.13-44.11,4.27-88.77.8-132.62-5.15C475.72,654.69,355.46,618,254.66,555.08c-44.21-27.57-85.88-61.84-104.1-106.45S144,347.51,189.14,321.11c18.67-10.92,41-15.85,62.85-20.48,32.17-6.82,64.86-13.54,93.89-27.39,30-14.32,65.48-42,59.55-73.67C399.06,165.58,394,135.72,425,108.08Z" transform="translate(-142.33 -25.61)" opacity="0.4"/><path d="M732.48,98.56v.62c0,.17,0,.35,0,.53s0,.43,0,.64c0,.51,0,1-.07,1.54l0,.32c0,.43-.05.86-.09,1.28l0,.37a1.36,1.36,0,0,1,0,.2c0,.39-.06.78-.1,1.17s-.07.62-.1.94c-.09.77-.19,1.54-.31,2.31-.07.51-.15,1-.23,1.52a.43.43,0,0,0,0,.11c-.05.25-.09.5-.14.76s-.05.29-.08.44,0,.26-.08.4-.1.54-.16.8-.11.53-.17.8-.08.39-.13.59-.15.67-.23,1a.13.13,0,0,0,0,.06l-.18.69-.21.84c-.09.34-.19.68-.28,1,0,.1,0,.18-.08.27l-.3,1c-.32,1.06-.67,2.12-1,3.17l-.36,1-.21.55A71,71,0,0,1,718.22,141c-.24.34-.5.67-.75,1a74.66,74.66,0,0,1-6.15,7L609.07,251.26,506.83,149a72.41,72.41,0,0,1-8-9.52,70,70,0,0,1-4.16-6.64,72.35,72.35,0,0,1-8.74-41.11c.11-1.31.26-2.62.44-3.92.32-2.3.76-4.59,1.3-6.86.11-.46.23-.92.35-1.37.06-.23.12-.47.18-.69s.07-.28.11-.42l.3-1v0h0c.24-.79.48-1.58.74-2.37l.37-1.08c.54-1.53,1.12-3,1.76-4.54l.39-.89c.2-.45.4-.9.61-1.35.34-.72.69-1.44,1-2.15l.09-.16v0h0c.16-.33.33-.64.5-1l.59-1.09c.25-.45.51-.9.77-1.35.12-.21.25-.42.37-.64s.15-.23.22-.36a.43.43,0,0,0,0-.07h0c.16-.26.32-.52.49-.78s.37-.59.56-.88c.42-.65.85-1.3,1.29-1.94l.47-.67.59-.81c.2-.29.41-.57.63-.85l.76-1c.24-.29.47-.59.7-.88l.25-.3.51-.62c.26-.32.53-.63.8-.94l.35-.41.06-.07.61-.68.68-.75c.64-.69,1.3-1.38,2-2l.79-.78,1.23-1.16c.27-.25.54-.5.82-.74s.64-.58,1-.86l.64-.54c.21-.19.43-.37.64-.54.43-.36.87-.71,1.3-1l.66-.52c1.1-.84,2.21-1.65,3.35-2.43l.68-.46.69-.45.65-.42,1-.6.48-.29.7-.41c.94-.55,1.88-1.08,2.83-1.58l.57-.3.88-.45.73-.36.73-.34.73-.35.74-.33.74-.32c1-.43,2-.83,3-1.21L533,30l.8-.29.71-.25.6-.2,1.38-.44.71-.22.57-.16.56-.16q.5-.15,1-.27l1.32-.34c1.36-.33,2.73-.63,4.1-.88l.56-.1.78-.13.8-.13,1-.15.59-.08c1.32-.17,2.64-.31,4-.41l.71,0,.44,0,.57,0h0l.5,0h.19l.67,0,.79,0h3.17l.79,0,.66,0h.21l.5,0h.09c.32,0,.65,0,1,.06h.11l.57,0c1.06.08,2.12.19,3.17.31l1.42.19,1,.14.79.13.79.13.52.09q2.05.38,4.08.87l1.66.43.46.13.71.2c.46.13.92.26,1.37.41l.6.19q1.5.46,3,1l.68.25.89.34,1.34.54c.52.22,1,.44,1.53.67l.6.26.82.39.73.34.72.36.91.46.72.38c.56.3,1.12.6,1.67.92l.7.4c.82.47,1.62,1,2.42,1.47l.65.42.69.45.68.46,0,0,.45.31c1,.67,1.91,1.37,2.85,2.09l.66.52c.43.34.87.69,1.3,1,.21.17.43.35.64.54l.64.54,1,.86c.28.24.55.49.82.74L608.28,46l.79.78.8-.78,1.22-1.16c.27-.25.54-.5.82-.74s.64-.58,1-.86l.64-.54c.21-.19.43-.37.64-.54.43-.36.87-.71,1.3-1l.66-.52c1.1-.84,2.21-1.65,3.35-2.43l.68-.46.69-.45.65-.42.95-.6.48-.29.7-.41c.94-.55,1.88-1.08,2.83-1.58l.57-.3.88-.45.73-.36.73-.34.73-.35.74-.33.74-.32c1-.43,2-.83,3-1.21.24-.09.49-.19.74-.27l.79-.29.72-.25.59-.2,1.38-.44.71-.22.57-.16.56-.16c.33-.1.66-.19,1-.27l1.31-.34c1.36-.33,2.73-.63,4.1-.88l.56-.1.78-.13.8-.13,1-.15.59-.08c1.32-.17,2.64-.31,4-.41l.71,0,.44,0,.57,0h0l.49,0h.2l.66,0,.79,0h3.17l.79,0,.66,0h.21l.5,0H664c.32,0,.65,0,1,.06h.11l.57,0c1.06.08,2.12.19,3.17.31l1.42.19,1,.14.79.13.79.13.52.09q2.05.38,4.08.87l1.66.43.46.13.71.2c.46.13.92.26,1.38.41l.59.19c1,.31,2,.65,3,1l.67.25.89.34,1.34.54c.52.22,1,.44,1.53.67l.6.26.82.39.73.34.72.36.91.46.73.38c.55.3,1.11.6,1.66.92l.7.4c.82.47,1.63,1,2.42,1.47l.65.42.69.45.68.46.05,0,.45.31c1,.67,1.91,1.37,2.85,2.09l.66.52c.43.34.87.69,1.3,1,.21.17.43.35.64.54l.64.54.83.74c.28.25.56.5.83.76l.47.43h0a.46.46,0,0,1,.07.07c.27.24.53.5.8.75l.36.35c.14.15.28.29.43.43l.79.81c.4.41.8.83,1.19,1.26.23.24.46.49.68.74.38.42.75.84,1.12,1.27l1.18,1.41c1.35,1.66,2.61,3.36,3.8,5.1l.48.73c.18.26.34.52.51.78l.43.67c.24.39.48.77.71,1.16l.63,1.08c.13.22.26.44.38.66l.29.52.29.52.42.79.41.79q1.41,2.76,2.56,5.63l.33.81c.31.79.6,1.57.88,2.37l.25.72c.11.34.23.68.33,1s.2.61.29.92l.18.58c.09.28.17.56.25.84s.19.69.29,1c.15.56.29,1.12.43,1.69l.21.88c.1.42.19.84.28,1.26,0,.18.07.36.11.54s.1.48.14.72.08.38.11.57l.09.48c0,.15,0,.3.08.45s0,.29.07.44l.15.9c0,.3.08.6.13.9s.09.67.13,1,.08.64.11,1l.06.55c0,.33.07.66.1,1,0,.16,0,.33,0,.49,0,.34.06.68.08,1a.15.15,0,0,1,0,.07c0,.21,0,.42,0,.63l0,.66c0,.36,0,.72.05,1.08v0c0,.37,0,.73,0,1.11C732.49,97.14,732.49,97.85,732.48,98.56Z" transform="translate(-142.33 -25.61)" fill="#ff6584"/><path d="M732.48,98.56v.62c0,.17,0,.35,0,.53s0,.43,0,.64c0,.51,0,1-.07,1.54l0,.32c0,.43-.05.86-.09,1.28l0,.37a1.36,1.36,0,0,1,0,.2c0,.39-.06.78-.1,1.17s-.07.62-.1.94c-.09.77-.19,1.54-.31,2.31-.07.51-.15,1-.23,1.52a.43.43,0,0,0,0,.11c-.05.25-.09.5-.14.76s-.05.29-.08.44,0,.26-.08.4-.1.54-.16.8-.11.53-.17.8-.08.39-.13.59-.15.67-.23,1a.13.13,0,0,0,0,.06l-.18.69-.21.84c-.09.34-.19.68-.28,1,0,.1,0,.18-.08.27l-.3,1c-.32,1.06-.67,2.12-1,3.17l-.36,1-.21.55a72.35,72.35,0,0,0-31.54-78q-1.95-1.24-3.94-2.34A72.28,72.28,0,0,0,606.39,55.5,72.47,72.47,0,0,0,597.56,48h0a71.2,71.2,0,0,0-7.48-4.74,72.45,72.45,0,0,0-69.62,0,71.47,71.47,0,0,0-10.27,6.86,72.76,72.76,0,0,0-14,14.81,72.4,72.4,0,0,0-4,6.26.36.36,0,0,1,0,.09,68.65,68.65,0,0,0-3.09,6.19c-.52,1.16-1,2.34-1.45,3.52.11-.46.23-.92.35-1.37.06-.23.12-.47.18-.69s.07-.28.11-.42l.3-1v0c.24-.79.48-1.58.74-2.37l.37-1.08c.54-1.53,1.12-3,1.76-4.54l.39-.89c.2-.45.4-.9.61-1.35.34-.72.69-1.44,1-2.15l.09-.16v0h0c.16-.33.33-.64.5-1l.59-1.09c.25-.45.51-.9.77-1.35.12-.21.25-.42.37-.64s.15-.23.22-.36a.43.43,0,0,0,0-.07h0c.16-.26.32-.52.49-.78s.37-.59.56-.88c.42-.65.85-1.3,1.29-1.94l.47-.67.59-.81c.2-.29.41-.57.63-.85l.76-1c.24-.29.47-.59.7-.88l.25-.3.51-.62c.26-.32.53-.63.8-.94l.35-.41.06-.07.61-.68.68-.75c.64-.69,1.3-1.38,2-2l.79-.78,1.23-1.16c.27-.25.54-.5.82-.74s.64-.58,1-.86l.64-.54c.21-.19.43-.37.64-.54.43-.36.87-.71,1.3-1l.66-.52c1.1-.84,2.21-1.65,3.35-2.43l.68-.46.69-.45.65-.42,1-.6.48-.29.7-.41c.94-.55,1.88-1.08,2.83-1.58l.57-.3.88-.45.73-.36.73-.34.73-.35.74-.33.74-.32c1-.43,2-.83,3-1.21L533,30l.8-.29.71-.25.6-.2,1.38-.44.71-.22.57-.16.56-.16q.5-.15,1-.27l1.32-.34c1.36-.33,2.73-.63,4.1-.88l.56-.1.78-.13.8-.13,1-.15.59-.08c1.32-.17,2.64-.31,4-.41l.71,0,.44,0,.57,0h0l.5,0h.19l.67,0,.79,0h3.17l.79,0,.66,0h.21l.5,0h.09c.32,0,.65,0,1,.06h.11l.57,0c1.06.08,2.12.19,3.17.31l1.42.19,1,.14.79.13.79.13.52.09q2.05.38,4.08.87l1.66.43.46.13.71.2c.46.13.92.26,1.37.41l.6.19q1.5.46,3,1l.68.25.89.34,1.34.54c.52.22,1,.44,1.53.67l.6.26.82.39.73.34.72.36.91.46.72.38c.56.3,1.12.6,1.67.92l.7.4c.82.47,1.62,1,2.42,1.47l.65.42.69.45.68.46,0,0,.45.31c1,.67,1.91,1.37,2.85,2.09l.66.52c.43.34.87.69,1.3,1,.21.17.43.35.64.54l.64.54,1,.86c.28.24.55.49.82.74L608.28,46l.79.78.8-.78,1.22-1.16c.27-.25.54-.5.82-.74s.64-.58,1-.86l.64-.54c.21-.19.43-.37.64-.54.43-.36.87-.71,1.3-1l.66-.52c1.1-.84,2.21-1.65,3.35-2.43l.68-.46.69-.45.65-.42.95-.6.48-.29.7-.41c.94-.55,1.88-1.08,2.83-1.58l.57-.3.88-.45.73-.36.73-.34.73-.35.74-.33.74-.32c1-.43,2-.83,3-1.21.24-.09.49-.19.74-.27l.79-.29.72-.25.59-.2,1.38-.44.71-.22.57-.16.56-.16c.33-.1.66-.19,1-.27l1.31-.34c1.36-.33,2.73-.63,4.1-.88l.56-.1.78-.13.8-.13,1-.15.59-.08c1.32-.17,2.64-.31,4-.41l.71,0,.44,0,.57,0h0l.49,0h.2l.66,0,.79,0h3.17l.79,0,.66,0h.21l.5,0H664c.32,0,.65,0,1,.06h.11l.57,0c1.06.08,2.12.19,3.17.31l1.42.19,1,.14.79.13.79.13.52.09q2.05.38,4.08.87l1.66.43.46.13.71.2c.46.13.92.26,1.38.41l.59.19c1,.31,2,.65,3,1l.67.25.89.34,1.34.54c.52.22,1,.44,1.53.67l.6.26.82.39.73.34.72.36.91.46.73.38c.55.3,1.11.6,1.66.92l.7.4c.82.47,1.63,1,2.42,1.47l.65.42.69.45.68.46.05,0,.45.31c1,.67,1.91,1.37,2.85,2.09l.66.52c.43.34.87.69,1.3,1,.21.17.43.35.64.54l.64.54.83.74c.28.25.56.5.83.76l.47.43h0a.46.46,0,0,1,.07.07c.27.24.53.5.8.75l.36.35c.14.15.28.29.43.43l.79.81c.4.41.8.83,1.19,1.26.23.24.46.49.68.74.38.42.75.84,1.12,1.27l1.18,1.41c1.35,1.66,2.61,3.36,3.8,5.1l.48.73c.18.26.34.52.51.78l.43.67c.24.39.48.77.71,1.16l.63,1.08c.13.22.26.44.38.66l.29.52.29.52.42.79.41.79q1.41,2.76,2.56,5.63l.33.81c.31.79.6,1.57.88,2.37l.25.72c.11.34.23.68.33,1s.2.61.29.92l.18.58c.09.28.17.56.25.84s.19.69.29,1c.15.56.29,1.12.43,1.69l.21.88c.1.42.19.84.28,1.26,0,.18.07.36.11.54s.1.48.14.72.08.38.11.57l.09.48c0,.15,0,.3.08.45s0,.29.07.44l.15.9c0,.3.08.6.13.9s.09.67.13,1,.08.64.11,1l.06.55c0,.33.07.66.1,1,0,.16,0,.33,0,.49,0,.34.06.68.08,1a.15.15,0,0,1,0,.07c0,.21,0,.42,0,.63l0,.66c0,.36,0,.72.05,1.08v0c0,.37,0,.73,0,1.11C732.49,97.14,732.49,97.85,732.48,98.56Z" transform="translate(-142.33 -25.61)" opacity="0.1"/><path d="M899.81,321.41v.35c0,.06,0,.13,0,.19s0,.32,0,.48v.09l0,.39V323a.13.13,0,0,1,0,.06l0,.35,0,.29-.09.71c0,.15-.05.31-.07.46v0c0,.08,0,.16,0,.23l0,.14a.5.5,0,0,1,0,.12c0,.08,0,.17,0,.25a2,2,0,0,1-.05.24c0,.06,0,.12,0,.18s0,.21-.07.31v0l-.06.21-.06.25-.09.31s0,.06,0,.09-.06.21-.1.31c-.09.33-.2.65-.31,1,0,.11-.08.21-.11.31a1.22,1.22,0,0,1-.07.17,21.54,21.54,0,0,1-2.92,5.33l-.23.31a22,22,0,0,1-1.88,2.13L862.15,368l-31.21-31.21a22.27,22.27,0,0,1-2.45-2.9,22.84,22.84,0,0,1-1.27-2,22.16,22.16,0,0,1-2.67-12.55c0-.4.08-.8.14-1.2.1-.7.23-1.4.4-2.09,0-.14.06-.28.1-.42l.06-.21,0-.13.09-.31h0c.07-.24.15-.48.23-.72s.07-.22.11-.33q.24-.71.54-1.38l.12-.28.18-.41c.11-.22.21-.44.33-.65l0-.05h0l.16-.29.18-.33c.07-.14.15-.28.23-.42l.12-.19.06-.11,0,0h0c0-.08.09-.16.14-.24s.12-.18.17-.27.26-.4.4-.59l.14-.21.18-.25.19-.25.24-.31.21-.27.08-.09.15-.19.25-.29.1-.12,0,0,.19-.21c.06-.08.14-.15.21-.23s.39-.42.6-.63l.24-.23.37-.36.25-.23.3-.26.19-.16.2-.17.39-.32.21-.16c.33-.25.67-.5,1-.74l.21-.14.2-.14.2-.12.3-.19.14-.08.22-.13c.28-.17.57-.33.86-.48l.17-.09.27-.14.22-.11.23-.11.22-.1.22-.1.23-.1.91-.37.23-.08.24-.09.22-.08.18-.06.42-.13.22-.07.17-.05.17-.05.31-.08.4-.1c.41-.11.83-.2,1.25-.27l.17,0,.24,0,.24,0,.31,0,.18,0c.4-.05.8-.1,1.21-.13h2.84l.3,0h.21l1,.1.44.06.29,0,.24,0,.24,0,.16,0c.42.07.83.16,1.25.26l.5.13.14,0,.22.06.42.13.18.05c.31.1.61.2.91.32l.21.07.27.11.41.16.46.2.19.09.25.11.22.11.22.11.28.14.22.12.51.27.21.13c.25.14.5.29.74.45l.2.12.21.14.21.14h0l.14.1.87.63a1.56,1.56,0,0,0,.2.16l.4.32.19.17.2.16.29.26.25.23.37.36a2.73,2.73,0,0,1,.25.23,1.75,1.75,0,0,1,.24-.23l.37-.36.25-.23.29-.26.2-.16.19-.17.4-.32a1.56,1.56,0,0,0,.2-.16l1-.74.21-.14.21-.14.2-.12.29-.19.15-.08.21-.13q.43-.26.87-.48l.17-.09.27-.14.22-.11.22-.11.23-.1.22-.1.23-.1.91-.37.23-.08.24-.09.22-.08.18-.06.42-.13.22-.07.17-.05.17-.05.3-.08.4-.1q.63-.16,1.26-.27l.17,0,.24,0,.24,0,.3,0,.18,0c.41-.05.81-.1,1.21-.13h2.85l.3,0h.2l1,.1c.15,0,.29,0,.43.06l.3,0,.24,0,.24,0,.16,0c.41.07.83.16,1.24.26l.51.13.14,0,.22.06.42.13.18.05c.3.1.61.2.91.32l.2.07.27.11.41.16.47.2.18.09.25.11.23.11.22.11.27.14.23.12.5.27.22.13c.25.14.49.29.74.45l.2.12.2.14.21.14h0l.13.1q.45.3.87.63l.21.16.39.32.2.17.19.16.26.23.25.23.14.13h0l0,0,.24.23.11.1.13.13.24.25.37.38c.07.08.14.15.2.23l.35.39.36.43c.41.5.8,1,1.16,1.56l.15.22.15.24.13.2.22.36.19.32.12.21.09.16.08.16a1.71,1.71,0,0,1,.13.23l.12.25c.29.56.55,1.13.79,1.71,0,.09.07.17.1.25l.27.72c0,.08,0,.15.07.23s.07.2.11.31a2.29,2.29,0,0,1,.08.28l.06.17c0,.09.05.17.07.26l.09.32c.05.17.09.34.13.51a2.68,2.68,0,0,1,.07.27c0,.13.06.26.08.39s0,.11,0,.16,0,.15,0,.22l0,.18,0,.14,0,.14,0,.13c0,.1,0,.19,0,.28s0,.18,0,.27,0,.21,0,.31,0,.19,0,.29v.17l0,.3c0,.05,0,.1,0,.16s0,.2,0,.31v0c0,.06,0,.13,0,.19a1.27,1.27,0,0,0,0,.2c0,.11,0,.22,0,.33h0c0,.11,0,.23,0,.34S899.82,321.19,899.81,321.41Z" transform="translate(-142.33 -25.61)" fill="#ff6584"/><path d="M899.81,321.41v.35c0,.06,0,.13,0,.19s0,.32,0,.48v.09l0,.39V323a.13.13,0,0,1,0,.06l0,.35,0,.29-.09.71c0,.15-.05.31-.07.46v0c0,.08,0,.16,0,.23l0,.14a.5.5,0,0,1,0,.12c0,.08,0,.17,0,.25a2,2,0,0,1-.05.24c0,.06,0,.12,0,.18s0,.21-.07.31v0l-.06.21-.06.25-.09.31s0,.06,0,.09-.06.21-.1.31c-.09.33-.2.65-.31,1,0,.11-.08.21-.11.31a1.22,1.22,0,0,1-.07.17,21.48,21.48,0,0,0,.61-5.35,22.12,22.12,0,0,0-10.23-18.45c-.4-.26-.8-.49-1.21-.72a22.13,22.13,0,0,0-21.24,0,23,23,0,0,0-2.1,1.31,22,22,0,0,0-2.88,2.44,22.37,22.37,0,0,0-2.7-2.3h0a23,23,0,0,0-2.28-1.45,22,22,0,0,0-24.39,2.1,23.62,23.62,0,0,0-1.84,1.65,21.77,21.77,0,0,0-2.42,2.87c-.44.62-.85,1.26-1.22,1.91v0a20.76,20.76,0,0,0-.94,1.89c-.16.36-.31.72-.44,1.08,0-.14.06-.28.1-.42l.06-.21,0-.13.09-.31h0c.07-.24.15-.48.23-.72s.07-.22.11-.33q.24-.71.54-1.38l.12-.28.18-.41c.11-.22.21-.44.33-.65l0-.05h0l.16-.29.18-.33c.07-.14.15-.28.23-.42l.12-.19.06-.11,0,0h0c0-.08.09-.16.14-.24s.12-.18.17-.27.26-.4.4-.59l.14-.21.18-.25.19-.25.24-.31.21-.27.08-.09.15-.19.25-.29.1-.12,0,0,.19-.21c.06-.08.14-.15.21-.23s.39-.42.6-.63l.24-.23.37-.36.25-.23.3-.26.19-.16.2-.17.39-.32.21-.16c.33-.25.67-.5,1-.74l.21-.14.2-.14.2-.12.3-.19.14-.08.22-.13c.28-.17.57-.33.86-.48l.17-.09.27-.14.22-.11.23-.11.22-.1.22-.1.23-.1.91-.37.23-.08.24-.09.22-.08.18-.06.42-.13.22-.07.17-.05.17-.05.31-.08.4-.1c.41-.11.83-.2,1.25-.27l.17,0,.24,0,.24,0,.31,0,.18,0c.4-.05.8-.1,1.21-.13h2.84l.3,0h.21l1,.1.44.06.29,0,.24,0,.24,0,.16,0c.42.07.83.16,1.25.26l.5.13.14,0,.22.06.42.13.18.05c.31.1.61.2.91.32l.21.07.27.11.41.16.46.2.19.09.25.11.22.11.22.11.28.14.22.12.51.27.21.13c.25.14.5.29.74.45l.2.12.21.14.21.14h0l.14.1.87.63a1.56,1.56,0,0,0,.2.16l.4.32.19.17.2.16.29.26.25.23.37.36a2.73,2.73,0,0,1,.25.23,1.75,1.75,0,0,1,.24-.23l.37-.36.25-.23.29-.26.2-.16.19-.17.4-.32a1.56,1.56,0,0,0,.2-.16l1-.74.21-.14.21-.14.2-.12.29-.19.15-.08.21-.13q.43-.26.87-.48l.17-.09.27-.14.22-.11.22-.11.23-.1.22-.1.23-.1.91-.37.23-.08.24-.09.22-.08.18-.06.42-.13.22-.07.17-.05.17-.05.3-.08.4-.1q.63-.16,1.26-.27l.17,0,.24,0,.24,0,.3,0,.18,0c.41-.05.81-.1,1.21-.13h2.85l.3,0h.2l1,.1c.15,0,.29,0,.43.06l.3,0,.24,0,.24,0,.16,0c.41.07.83.16,1.24.26l.51.13.14,0,.22.06.42.13.18.05c.3.1.61.2.91.32l.2.07.27.11.41.16.47.2.18.09.25.11.23.11.22.11.27.14.23.12.5.27.22.13c.25.14.49.29.74.45l.2.12.2.14.21.14h0l.13.1q.45.3.87.63l.21.16.39.32.2.17.19.16.26.23.25.23.14.13h0l0,0,.24.23.11.1.13.13.24.25.37.38c.07.08.14.15.2.23l.35.39.36.43c.41.5.8,1,1.16,1.56l.15.22.15.24.13.2.22.36.19.32.12.21.09.16.08.16a1.71,1.71,0,0,1,.13.23l.12.25c.29.56.55,1.13.79,1.71,0,.09.07.17.1.25l.27.72c0,.08,0,.15.07.23s.07.2.11.31a2.29,2.29,0,0,1,.08.28l.06.17c0,.09.05.17.07.26l.09.32c.05.17.09.34.13.51a2.68,2.68,0,0,1,.07.27c0,.13.06.26.08.39s0,.11,0,.16,0,.15,0,.22l0,.18,0,.14,0,.14,0,.13c0,.1,0,.19,0,.28s0,.18,0,.27,0,.21,0,.31,0,.19,0,.29v.17l0,.3c0,.05,0,.1,0,.16s0,.2,0,.31v0c0,.06,0,.13,0,.19a1.27,1.27,0,0,0,0,.2c0,.11,0,.22,0,.33h0c0,.11,0,.23,0,.34S899.82,321.19,899.81,321.41Z" transform="translate(-142.33 -25.61)" opacity="0.1"/><path d="M755.14,280v.19c0,.06,0,.11,0,.16v.2c0,.16,0,.31,0,.47v.1l0,.39v.17l0,.36a2.7,2.7,0,0,1,0,.28c0,.24,0,.48-.09.71s0,.31-.07.46v0a1.85,1.85,0,0,1,0,.23.78.78,0,0,1,0,.14l0,.12c0,.08,0,.16,0,.24l-.06.24a1.16,1.16,0,0,1,0,.18,2.82,2.82,0,0,1-.07.31v0a1.6,1.6,0,0,0,0,.21,2.5,2.5,0,0,0-.07.26l-.09.31a.24.24,0,0,1,0,.08l-.09.32c-.1.32-.2.65-.32,1,0,.1-.07.2-.11.3l-.06.17a22,22,0,0,1-2.93,5.34l-.23.3a22,22,0,0,1-1.87,2.14l-31.21,31.2-31.21-31.2a22.14,22.14,0,0,1-2.44-2.91,21.59,21.59,0,0,1-1.28-2,22,22,0,0,1-2.66-12.54c0-.41.08-.8.13-1.2.1-.71.23-1.4.4-2.1,0-.14.07-.28.11-.41a1.42,1.42,0,0,1,.05-.22.56.56,0,0,1,0-.12l.09-.32h0c.07-.24.14-.48.22-.72l.12-.33c.16-.47.34-.93.53-1.39l.12-.27c.06-.14.12-.28.19-.41s.21-.44.32-.66l0-.05h0l.15-.3.18-.33.24-.41a2,2,0,0,1,.11-.2l.07-.11v0h0l.15-.24c.05-.09.11-.18.17-.27l.39-.59.15-.2.18-.25.19-.26.23-.31a2.75,2.75,0,0,1,.22-.26.86.86,0,0,1,.07-.1l.16-.18.24-.29.11-.13,0,0,.18-.21.21-.23.6-.62.24-.24.38-.35a2.73,2.73,0,0,1,.25-.23l.29-.26.2-.17.19-.16.4-.32.2-.16c.33-.26.68-.51,1-.74l.21-.14.21-.14.2-.13.29-.18.14-.09.22-.13c.28-.16.57-.33.86-.48l.18-.09L692,260l.22-.11.22-.1.22-.11.23-.1.22-.1.92-.37.22-.08.24-.09.22-.07.19-.06.42-.14.21-.06.18-.05.17-.05.3-.09.4-.1,1.25-.27.18,0,.23,0,.25,0,.3,0,.18,0c.4-.05.81-.09,1.21-.12l.22,0h3.13c.32,0,.65.05,1,.09l.43.06.3,0,.24,0,.24,0,.15,0c.42.08.84.17,1.25.27l.51.13.14,0a1.66,1.66,0,0,1,.21.06l.42.12.19.06.9.31.21.08.27.1.41.17.47.2.18.08.25.12.22.1.22.11.28.14.22.12.51.28.22.12.73.45.2.13.21.14.21.14h0l.14.09c.3.21.59.42.87.64a1.56,1.56,0,0,1,.2.16c.14.1.27.21.4.32l.2.16.19.17.29.26a2.73,2.73,0,0,1,.25.23l.38.35.24.24.24-.24.37-.35.25-.23.3-.26.19-.17.2-.16c.13-.11.26-.22.4-.32a1.56,1.56,0,0,1,.2-.16c.33-.26.67-.51,1-.74l.21-.14.21-.14.19-.13.3-.18.14-.09.22-.13c.28-.16.57-.33.86-.48l.17-.09.27-.14.23-.11.22-.1.22-.11.23-.1.22-.1.91-.37.23-.08.24-.09.22-.07.18-.06.42-.14.22-.06.17-.05.17-.05.31-.09.4-.1c.42-.1.83-.19,1.25-.27l.17,0,.24,0,.24,0,.31,0,.18,0c.4-.05.8-.09,1.21-.12l.22,0h3.13l1,.09.43.06.29,0,.24,0,.24,0,.16,0c.42.08.83.17,1.25.27l.51.13.13,0a1.41,1.41,0,0,1,.22.06l.42.12.18.06.91.31.21.08.27.1.41.17.47.2.18.08.25.12.22.1.22.11.28.14.22.12.51.28.21.12.74.45.2.13.21.14.21.14h0l.14.09.87.64.2.16.4.32.19.16.2.17.25.22.26.23.14.14h0l0,0,.25.23.11.11.13.13.24.24.36.39.21.23c.12.12.23.25.34.38l.36.43c.41.51.8,1,1.16,1.56l.15.22.15.24a2.39,2.39,0,0,1,.13.21c.08.11.15.23.22.35s.13.22.19.33l.12.2.09.16.09.16.12.24c0,.08.09.16.13.24.29.56.55,1.14.78,1.72a1.86,1.86,0,0,1,.1.25q.15.36.27.72c0,.07.05.15.08.22l.1.31.09.28c0,.06,0,.12.05.18s0,.17.08.25l.09.32c0,.17.09.35.13.52l.06.27.09.38,0,.17a1.43,1.43,0,0,1,0,.22,1,1,0,0,1,0,.17.77.77,0,0,1,0,.15l0,.13c0,.05,0,.09,0,.14a2.51,2.51,0,0,1,0,.27,2.7,2.7,0,0,1,0,.28c0,.1,0,.2.05.3l0,.3,0,.16,0,.31c0,.05,0,.1,0,.15l0,.31v0c0,.07,0,.13,0,.2s0,.13,0,.2,0,.22,0,.33h0v.33C755.14,279.54,755.14,279.76,755.14,280Z" transform="translate(-142.33 -25.61)" fill="#ff6584"/><path d="M755.14,280v.19c0,.06,0,.11,0,.16v.2c0,.16,0,.31,0,.47v.1l0,.39v.17l0,.36a2.7,2.7,0,0,1,0,.28c0,.24,0,.48-.09.71s0,.31-.07.46v0a1.85,1.85,0,0,1,0,.23.78.78,0,0,1,0,.14l0,.12c0,.08,0,.16,0,.24l-.06.24a1.16,1.16,0,0,1,0,.18,2.82,2.82,0,0,1-.07.31v0a1.6,1.6,0,0,0,0,.21,2.5,2.5,0,0,0-.07.26l-.09.31a.24.24,0,0,1,0,.08l-.09.32c-.1.32-.2.65-.32,1,0,.1-.07.2-.11.3l-.06.17a22.06,22.06,0,0,0-.15-10.9,22.06,22.06,0,0,0-9.48-12.9c-.39-.25-.79-.49-1.2-.71a22.09,22.09,0,0,0-21.25,0,19.75,19.75,0,0,0-2.09,1.31,21.27,21.27,0,0,0-2.89,2.43,22.5,22.5,0,0,0-2.7-2.3h0a21.81,21.81,0,0,0-2.28-1.44,22.1,22.1,0,0,0-26.23,3.74A21.77,21.77,0,0,0,683,269.7c-.44.62-.84,1.26-1.21,1.91l0,0c-.34.62-.66,1.25-.94,1.89-.16.35-.3.71-.44,1.07,0-.14.07-.28.11-.41a1.42,1.42,0,0,1,.05-.22.56.56,0,0,1,0-.12l.09-.32h0c.07-.24.14-.48.22-.72l.12-.33c.16-.47.34-.93.53-1.39l.12-.27c.06-.14.12-.28.19-.41s.21-.44.32-.66l0-.05h0l.15-.3.18-.33.24-.41a2,2,0,0,1,.11-.2l.07-.11v0h0l.15-.24c.05-.09.11-.18.17-.27l.39-.59.15-.2.18-.25.19-.26.23-.31a2.75,2.75,0,0,1,.22-.26.86.86,0,0,1,.07-.1l.16-.18.24-.29.11-.13,0,0,.18-.21.21-.23.6-.62.24-.24.38-.35a2.73,2.73,0,0,1,.25-.23l.29-.26.2-.17.19-.16.4-.32.2-.16c.33-.26.68-.51,1-.74l.21-.14.21-.14.2-.13.29-.18.14-.09.22-.13c.28-.16.57-.33.86-.48l.18-.09L692,260l.22-.11.22-.1.22-.11.23-.1.22-.1.92-.37.22-.08.24-.09.22-.07.19-.06.42-.14.21-.06.18-.05.17-.05.3-.09.4-.1,1.25-.27.18,0,.23,0,.25,0,.3,0,.18,0c.4-.05.81-.09,1.21-.12l.22,0h3.13c.32,0,.65.05,1,.09l.43.06.3,0,.24,0,.24,0,.15,0c.42.08.84.17,1.25.27l.51.13.14,0a1.66,1.66,0,0,1,.21.06l.42.12.19.06.9.31.21.08.27.1.41.17.47.2.18.08.25.12.22.1.22.11.28.14.22.12.51.28.22.12.73.45.2.13.21.14.21.14h0l.14.09c.3.21.59.42.87.64a1.56,1.56,0,0,1,.2.16c.14.1.27.21.4.32l.2.16.19.17.29.26a2.73,2.73,0,0,1,.25.23l.38.35.24.24.24-.24.37-.35.25-.23.3-.26.19-.17.2-.16c.13-.11.26-.22.4-.32a1.56,1.56,0,0,1,.2-.16c.33-.26.67-.51,1-.74l.21-.14.21-.14.19-.13.3-.18.14-.09.22-.13c.28-.16.57-.33.86-.48l.17-.09.27-.14.23-.11.22-.1.22-.11.23-.1.22-.1.91-.37.23-.08.24-.09.22-.07.18-.06.42-.14.22-.06.17-.05.17-.05.31-.09.4-.1c.42-.1.83-.19,1.25-.27l.17,0,.24,0,.24,0,.31,0,.18,0c.4-.05.8-.09,1.21-.12l.22,0h3.13l1,.09.43.06.29,0,.24,0,.24,0,.16,0c.42.08.83.17,1.25.27l.51.13.13,0a1.41,1.41,0,0,1,.22.06l.42.12.18.06.91.31.21.08.27.1.41.17.47.2.18.08.25.12.22.1.22.11.28.14.22.12.51.28.21.12.74.45.2.13.21.14.21.14h0l.14.09.87.64.2.16.4.32.19.16.2.17.25.22.26.23.14.14h0l0,0,.25.23.11.11.13.13.24.24.36.39.21.23c.12.12.23.25.34.38l.36.43c.41.51.8,1,1.16,1.56l.15.22.15.24a2.39,2.39,0,0,1,.13.21c.08.11.15.23.22.35s.13.22.19.33l.12.2.09.16.09.16.12.24c0,.08.09.16.13.24.29.56.55,1.14.78,1.72a1.86,1.86,0,0,1,.1.25q.15.36.27.72c0,.07.05.15.08.22l.1.31.09.28c0,.06,0,.12.05.18s0,.17.08.25l.09.32c0,.17.09.35.13.52l.06.27.09.38,0,.17a1.43,1.43,0,0,1,0,.22,1,1,0,0,1,0,.17.77.77,0,0,1,0,.15l0,.13c0,.05,0,.09,0,.14a2.51,2.51,0,0,1,0,.27,2.7,2.7,0,0,1,0,.28c0,.1,0,.2.05.3l0,.3,0,.16,0,.31c0,.05,0,.1,0,.15l0,.31v0c0,.07,0,.13,0,.2s0,.13,0,.2,0,.22,0,.33h0v.33C755.14,279.54,755.14,279.76,755.14,280Z" transform="translate(-142.33 -25.61)" opacity="0.1"/><path d="M460.09,301.92a1.28,1.28,0,0,1,0,.19v.35l0,.48V303l0,.39v.18l0,.35a2.89,2.89,0,0,1,0,.29c0,.24-.05.47-.09.71s0,.31-.07.46v0a1.57,1.57,0,0,1,0,.23c0,.05,0,.09,0,.14l0,.12c0,.08,0,.17,0,.25l-.06.24a1.16,1.16,0,0,1,0,.18c0,.1,0,.21-.07.31v0a1.6,1.6,0,0,0-.05.21,2.33,2.33,0,0,0-.07.25l-.09.31a.29.29,0,0,1,0,.09l-.09.31c-.1.33-.2.65-.32,1a2.83,2.83,0,0,1-.11.31l-.06.17a21.91,21.91,0,0,1-2.93,5.33l-.23.31a21.93,21.93,0,0,1-1.87,2.13l-31.21,31.21-31.21-31.21a22.27,22.27,0,0,1-2.45-2.9c-.46-.66-.88-1.34-1.27-2a22.07,22.07,0,0,1-2.66-12.55c0-.4.08-.8.13-1.2.1-.7.23-1.4.4-2.09,0-.14.07-.28.1-.42l.06-.21a.65.65,0,0,1,0-.13c0-.1.05-.21.08-.31h0c.07-.24.14-.48.22-.72s.08-.22.11-.33q.25-.71.54-1.38l.12-.28c.06-.13.12-.27.19-.41s.21-.44.32-.65l0-.05h0l.15-.29.18-.33.24-.42.11-.19.07-.11v0h0l.15-.24c.05-.09.11-.18.17-.27l.39-.59.15-.21.18-.25c.06-.08.12-.17.19-.25a3.55,3.55,0,0,1,.23-.31l.22-.27.07-.09.15-.19.25-.29.11-.12,0,0,.18-.21.21-.23.6-.63.24-.23.38-.36.25-.23.29-.26.2-.16.19-.17.4-.32.2-.16c.33-.25.67-.5,1-.74l.21-.14.21-.14.2-.12a2.9,2.9,0,0,1,.29-.19l.14-.08.22-.13c.28-.17.57-.33.86-.48l.18-.1L397,282l.22-.11.22-.11.22-.1.23-.1.22-.1.92-.37.22-.08.24-.09.22-.08.19-.06.42-.13.21-.07.18-.05.17,0,.3-.08.4-.1c.42-.11.83-.2,1.25-.27l.18,0,.23,0,.25,0,.3-.05.18,0c.4,0,.81-.1,1.21-.13H408l.29,0h.21l1,.1.43.05.29.05.25,0,.24,0,.15,0c.42.07.84.16,1.25.26l.51.13.14,0,.21.06.42.13.18.05c.31.1.61.2.91.32l.21.07.27.11.41.16.47.2.18.09.25.11.22.11.22.11.28.14.22.12.51.27.21.13c.25.14.5.29.74.45l.2.12.21.14.21.14h0a.71.71,0,0,1,.14.1q.44.3.87.63l.2.16.4.32.19.17.2.16.29.26.25.23.38.36.24.23.24-.23.37-.36.25-.23.3-.26.19-.16.2-.17.4-.32.2-.16c.33-.25.67-.5,1-.74l.21-.14.21-.14.19-.12.3-.19.14-.08.22-.13c.28-.17.57-.33.86-.48a1,1,0,0,0,.17-.1l.27-.13.22-.11.23-.11.22-.1.23-.1.22-.1.91-.37.23-.08.24-.09.22-.08.18-.06.42-.13.22-.07.17-.05.17,0,.31-.08.4-.1c.41-.11.83-.2,1.25-.27l.17,0,.24,0,.24,0,.31-.05.18,0c.4,0,.8-.1,1.21-.13h2.84l.3,0h.21l1,.1.44.05.29.05.24,0,.24,0,.16,0c.42.07.83.16,1.25.26l.5.13.14,0,.22.06.42.13.18.05c.31.1.61.2.91.32l.21.07.27.11.41.16.46.2.19.09.25.11.22.11.22.11.28.14.22.12.51.27.21.13c.25.14.5.29.74.45l.2.12.21.14.21.14h0l.14.1.87.63.2.16.4.32.19.17.2.16.25.23a2.73,2.73,0,0,1,.25.23l.15.13h0l0,0,.25.23.1.1.14.13.24.25.36.38.21.23.34.39.36.43c.41.5.8,1,1.16,1.56l.15.22.15.24a1.37,1.37,0,0,1,.13.2c.08.12.15.24.22.36s.13.22.19.32l.12.21.09.16.09.16.12.23c.05.08.09.17.13.25a18.74,18.74,0,0,1,.78,1.71l.1.25q.15.36.27.72l.08.23c0,.1.07.2.1.31l.09.28c0,.06,0,.12.05.17l.08.26a3,3,0,0,1,.08.32c.05.17.09.34.14.51l.06.27.09.39,0,.16a1.7,1.7,0,0,1,0,.22,1.16,1.16,0,0,1,0,.18.59.59,0,0,1,0,.14l0,.14s0,.09,0,.13,0,.19,0,.28a2.51,2.51,0,0,1,0,.27c0,.1,0,.21,0,.31a2.89,2.89,0,0,1,0,.29l0,.17,0,.3c0,.05,0,.1,0,.16a3,3,0,0,1,0,.31v0a1.21,1.21,0,0,0,0,.19c0,.07,0,.14,0,.2s0,.22,0,.33h0c0,.11,0,.23,0,.34S460.09,301.7,460.09,301.92Z" transform="translate(-142.33 -25.61)" fill="#ff6584"/><path d="M460.09,301.92a1.28,1.28,0,0,1,0,.19v.35l0,.48V303l0,.39v.18l0,.35a2.89,2.89,0,0,1,0,.29c0,.24-.05.47-.09.71s0,.31-.07.46v0a1.57,1.57,0,0,1,0,.23c0,.05,0,.09,0,.14l0,.12c0,.08,0,.17,0,.25l-.06.24a1.16,1.16,0,0,1,0,.18c0,.1,0,.21-.07.31v0a1.6,1.6,0,0,0-.05.21,2.33,2.33,0,0,0-.07.25l-.09.31a.29.29,0,0,1,0,.09l-.09.31c-.1.33-.2.65-.32,1a2.83,2.83,0,0,1-.11.31l-.06.17a22.1,22.1,0,0,0-.15-10.91A22.07,22.07,0,0,0,449,285.75c-.39-.26-.8-.49-1.2-.72a22.15,22.15,0,0,0-21.25,0,21.52,21.52,0,0,0-2.09,1.31,22.1,22.1,0,0,0-2.89,2.44,21.62,21.62,0,0,0-2.7-2.3h0a21.9,21.9,0,0,0-2.28-1.45,22.15,22.15,0,0,0-21.25,0,21.39,21.39,0,0,0-3.13,2.1,22,22,0,0,0-1.85,1.65,21.77,21.77,0,0,0-2.42,2.87c-.44.62-.84,1.26-1.21,1.91l0,0c-.34.62-.66,1.25-.94,1.89-.16.36-.3.72-.44,1.08,0-.14.07-.28.1-.42l.06-.21a.65.65,0,0,1,0-.13c0-.1.05-.21.08-.31h0c.07-.24.14-.48.22-.72s.08-.22.11-.33q.25-.71.54-1.38l.12-.28c.06-.13.12-.27.19-.41s.21-.44.32-.65l0-.05h0l.15-.29.18-.33.24-.42.11-.19.07-.11v0h0l.15-.24c.05-.09.11-.18.17-.27l.39-.59.15-.21.18-.25c.06-.08.12-.17.19-.25a3.55,3.55,0,0,1,.23-.31l.22-.27.07-.09.15-.19.25-.29.11-.12,0,0,.18-.21.21-.23.6-.63.24-.23.38-.36.25-.23.29-.26.2-.16.19-.17.4-.32.2-.16c.33-.25.67-.5,1-.74l.21-.14.21-.14.2-.12a2.9,2.9,0,0,1,.29-.19l.14-.08.22-.13c.28-.17.57-.33.86-.48l.18-.1L397,282l.22-.11.22-.11.22-.1.23-.1.22-.1.92-.37.22-.08.24-.09.22-.08.19-.06.42-.13.21-.07.18-.05.17,0,.3-.08.4-.1c.42-.11.83-.2,1.25-.27l.18,0,.23,0,.25,0,.3-.05.18,0c.4,0,.81-.1,1.21-.13H408l.29,0h.21l1,.1.43.05.29.05.25,0,.24,0,.15,0c.42.07.84.16,1.25.26l.51.13.14,0,.21.06.42.13.18.05c.31.1.61.2.91.32l.21.07.27.11.41.16.47.2.18.09.25.11.22.11.22.11.28.14.22.12.51.27.21.13c.25.14.5.29.74.45l.2.12.21.14.21.14h0a.71.71,0,0,1,.14.1q.44.3.87.63l.2.16.4.32.19.17.2.16.29.26.25.23.38.36.24.23.24-.23.37-.36.25-.23.3-.26.19-.16.2-.17.4-.32.2-.16c.33-.25.67-.5,1-.74l.21-.14.21-.14.19-.12.3-.19.14-.08.22-.13c.28-.17.57-.33.86-.48a1,1,0,0,0,.17-.1l.27-.13.22-.11.23-.11.22-.1.23-.1.22-.1.91-.37.23-.08.24-.09.22-.08.18-.06.42-.13.22-.07.17-.05.17,0,.31-.08.4-.1c.41-.11.83-.2,1.25-.27l.17,0,.24,0,.24,0,.31-.05.18,0c.4,0,.8-.1,1.21-.13h2.84l.3,0h.21l1,.1.44.05.29.05.24,0,.24,0,.16,0c.42.07.83.16,1.25.26l.5.13.14,0,.22.06.42.13.18.05c.31.1.61.2.91.32l.21.07.27.11.41.16.46.2.19.09.25.11.22.11.22.11.28.14.22.12.51.27.21.13c.25.14.5.29.74.45l.2.12.21.14.21.14h0l.14.1.87.63.2.16.4.32.19.17.2.16.25.23a2.73,2.73,0,0,1,.25.23l.15.13h0l0,0,.25.23.1.1.14.13.24.25.36.38.21.23.34.39.36.43c.41.5.8,1,1.16,1.56l.15.22.15.24a1.37,1.37,0,0,1,.13.2c.08.12.15.24.22.36s.13.22.19.32l.12.21.09.16.09.16.12.23c.05.08.09.17.13.25a18.74,18.74,0,0,1,.78,1.71l.1.25q.15.36.27.72l.08.23c0,.1.07.2.1.31l.09.28c0,.06,0,.12.05.17l.08.26a3,3,0,0,1,.08.32c.05.17.09.34.14.51l.06.27.09.39,0,.16a1.7,1.7,0,0,1,0,.22,1.16,1.16,0,0,1,0,.18.59.59,0,0,1,0,.14l0,.14s0,.09,0,.13,0,.19,0,.28a2.51,2.51,0,0,1,0,.27c0,.1,0,.21,0,.31a2.89,2.89,0,0,1,0,.29l0,.17,0,.3c0,.05,0,.1,0,.16a3,3,0,0,1,0,.31v0a1.21,1.21,0,0,0,0,.19c0,.07,0,.14,0,.2s0,.22,0,.33h0c0,.11,0,.23,0,.34S460.09,301.7,460.09,301.92Z" transform="translate(-142.33 -25.61)" opacity="0.1"/><path d="M450.44,461.16v.35a1.34,1.34,0,0,1,0,.2c0,.15,0,.31,0,.47v.1l0,.39v.11a.13.13,0,0,1,0,.06l0,.36,0,.28-.09.71c0,.15,0,.31-.07.46v0c0,.07,0,.15,0,.23l0,.13a.5.5,0,0,1,0,.12,1.84,1.84,0,0,1-.05.25,2,2,0,0,1-.05.24c0,.06,0,.12,0,.18s0,.21-.07.31v0l-.06.21-.06.26-.09.31s0,.05,0,.08-.06.21-.1.32c-.09.32-.2.65-.31,1l-.11.3a.87.87,0,0,1-.07.17,21.6,21.6,0,0,1-2.92,5.34l-.23.3a22,22,0,0,1-1.88,2.13l-31.2,31.21-31.21-31.21a22.27,22.27,0,0,1-2.45-2.9,22.84,22.84,0,0,1-1.27-2,22,22,0,0,1-2.66-12.55c0-.4.07-.8.13-1.19.1-.71.23-1.4.4-2.1,0-.14.06-.28.1-.42l.06-.21,0-.12.09-.32h0c.08-.24.15-.48.23-.72l.11-.33c.17-.47.34-.93.54-1.39L377,452l.18-.41c.11-.22.21-.44.33-.66l0-.05h0l.16-.29.18-.33c.07-.14.15-.28.23-.41l.12-.2.06-.11,0,0h0c0-.08.09-.16.14-.24s.12-.18.17-.27l.4-.59c.05-.07.09-.14.14-.2l.18-.25.19-.26.24-.31.21-.27.08-.09.15-.19.25-.29.11-.12v0l.19-.21L381,446c.19-.21.39-.42.6-.62l.24-.24.37-.36.25-.22.3-.26.19-.17.2-.16c.13-.11.26-.22.4-.32a1.56,1.56,0,0,1,.2-.16c.33-.26.67-.51,1-.74l.21-.14a1.53,1.53,0,0,1,.21-.14l.19-.13.3-.18.14-.09.22-.13c.28-.17.57-.33.86-.48l.17-.09.27-.14.22-.11.23-.1.22-.11.22-.1.23-.1.91-.37.23-.08.24-.09.22-.07.18-.06.42-.14.22-.07.17-.05.17,0,.31-.09.4-.1c.41-.1.83-.19,1.25-.27l.17,0,.24,0,.24,0,.31,0,.18,0c.4-.05.8-.09,1.21-.12l.21,0h2.63l.3,0h0l.18,0,1,.09.44.06.29,0,.24,0,.24,0,.16,0c.42.07.83.16,1.25.26l.5.14.14,0,.22.07.42.12.18.06c.31.09.61.2.91.31l.21.08.27.1.41.17.46.2.19.08.25.12.22.1.22.11.28.14.22.12.51.28.21.12c.25.15.5.29.74.45l.2.13.21.14.21.14h0l.14.09.87.64.2.16.4.32.19.16.2.17.29.26.25.22.37.36.25.24.24-.24.37-.36.25-.22.29-.26.2-.17.19-.16.4-.32.2-.16c.34-.26.68-.51,1-.74l.21-.14.21-.14.2-.13.29-.18.15-.09.21-.13.87-.48.17-.09.27-.14.22-.11.22-.1.23-.11.22-.1.23-.1.91-.37.23-.08.24-.09.22-.07.18-.06.42-.14.22-.07.17-.05.17,0,.3-.09.41-.1c.41-.1.83-.19,1.25-.27l.17,0,.24,0,.24,0,.3,0,.18,0,1.21-.12.22,0h2.63l.3,0h0l.17,0c.33,0,.65.05,1,.09l.43.06.3,0,.24,0,.24,0,.16,0c.42.07.83.16,1.24.26l.51.14.14,0,.22.07.42.12.18.06c.3.09.61.2.91.31l.2.08.27.1.41.17.47.2.18.08.25.12.23.1.22.11.28.14.22.12c.17.09.34.18.5.28l.22.12.74.45.2.13.21.14.2.14h0l.13.09c.3.21.59.42.87.64l.21.16.39.32.2.16.19.17.26.22.25.23.14.14h0l0,0,.24.23.11.11.13.13.24.24.37.39.21.22.34.39.36.43c.41.51.8,1,1.16,1.56l.15.22.15.24.13.21.22.35.19.33.12.2.09.16c0,.05.05.11.08.16s.09.16.13.24.08.16.13.24c.28.56.54,1.14.78,1.72,0,.08.07.16.1.25l.27.72.07.22c0,.1.07.21.11.31s.06.19.08.28l.06.18.07.25.09.32c.05.17.09.34.13.52a2.68,2.68,0,0,1,.07.27c0,.12.06.25.08.38l0,.16c0,.08,0,.15,0,.23l0,.17,0,.15,0,.13,0,.14c0,.09,0,.18,0,.27s0,.18,0,.28,0,.2,0,.3,0,.2,0,.29v.17l0,.31c0,.05,0,.1,0,.15s0,.21,0,.31v0c0,.07,0,.13,0,.2a1.41,1.41,0,0,0,0,.2c0,.11,0,.22,0,.33h0c0,.12,0,.23,0,.34S450.45,460.94,450.44,461.16Z" transform="translate(-142.33 -25.61)" fill="#ff6584"/><path d="M450.44,461.16v.35a1.34,1.34,0,0,1,0,.2c0,.15,0,.31,0,.47v.1l0,.39v.11a.13.13,0,0,1,0,.06l0,.36,0,.28-.09.71c0,.15,0,.31-.07.46v0c0,.07,0,.15,0,.23l0,.13a.5.5,0,0,1,0,.12,1.84,1.84,0,0,1-.05.25,2,2,0,0,1-.05.24c0,.06,0,.12,0,.18s0,.21-.07.31v0l-.06.21-.06.26-.09.31s0,.05,0,.08-.06.21-.1.32c-.09.32-.2.65-.31,1l-.11.3a.87.87,0,0,1-.07.17,21.43,21.43,0,0,0,.61-5.35,21.7,21.7,0,0,0-.75-5.55,22.17,22.17,0,0,0-9.48-12.9c-.4-.25-.8-.49-1.21-.71a22.07,22.07,0,0,0-21.24,0,21,21,0,0,0-2.1,1.31A21.19,21.19,0,0,0,412,448a22.37,22.37,0,0,0-2.7-2.3h0a22.91,22.91,0,0,0-2.28-1.44,22.09,22.09,0,0,0-24.39,2.09,23.62,23.62,0,0,0-1.84,1.65,21.77,21.77,0,0,0-2.42,2.87,20.39,20.39,0,0,0-1.21,1.91l0,0a20.76,20.76,0,0,0-.94,1.89c-.16.35-.31.71-.44,1.07,0-.14.06-.28.1-.42l.06-.21,0-.12.09-.32h0c.08-.24.15-.48.23-.72l.11-.33c.17-.47.34-.93.54-1.39L377,452l.18-.41.33-.66,0-.05h0l.16-.29.18-.33c.07-.14.15-.28.23-.41l.12-.2.06-.11,0,0h0c0-.08.09-.16.14-.24s.12-.18.17-.27l.4-.59c.05-.07.09-.14.14-.2l.18-.25.19-.26.24-.31.21-.27.08-.09.15-.19.25-.29.11-.12v0l.19-.21L381,446c.19-.21.39-.42.6-.62l.24-.24.37-.36.25-.22.3-.26.19-.17.2-.16c.13-.11.26-.22.4-.32a1.56,1.56,0,0,1,.2-.16c.33-.26.67-.51,1-.74l.21-.14a1.53,1.53,0,0,1,.21-.14l.19-.13.3-.18.14-.09.22-.13c.28-.17.57-.33.86-.48l.17-.09.27-.14.22-.11.23-.1.22-.11.22-.1.23-.1.91-.37.23-.08.24-.09.22-.07.18-.06.42-.14.22-.07.17-.05.17,0,.31-.09.4-.1c.41-.1.83-.19,1.25-.27l.17,0,.24,0,.24,0,.31,0,.18,0c.4-.05.8-.09,1.21-.12l.21,0h2.63l.3,0h0l.18,0,1,.09.44.06.29,0,.24,0,.24,0,.16,0c.42.07.83.16,1.25.26l.5.14.14,0,.22.07.42.12.18.06c.31.09.61.2.91.31l.21.08.27.1.41.17.46.2.19.08.25.12.22.1.22.11.28.14.22.12.51.28.21.12c.25.15.5.29.74.45l.2.13.21.14.21.14h0l.14.09.87.64.2.16.4.32.19.16.2.17.29.26.25.22.37.36.25.24.24-.24.37-.36.25-.22.29-.26.2-.17.19-.16.4-.32.2-.16c.34-.26.68-.51,1-.74l.21-.14.21-.14.2-.13.29-.18.15-.09.21-.13.87-.48.17-.09.27-.14.22-.11.22-.1.23-.11.22-.1.23-.1.91-.37.23-.08.24-.09.22-.07.18-.06.42-.14.22-.07.17-.05.17,0,.3-.09.41-.1c.41-.1.83-.19,1.25-.27l.17,0,.24,0,.24,0,.3,0,.18,0,1.21-.12.22,0h2.63l.3,0h0l.17,0c.33,0,.65.05,1,.09l.43.06.3,0,.24,0,.24,0,.16,0c.42.07.83.16,1.24.26l.51.14.14,0,.22.07.42.12.18.06c.3.09.61.2.91.31l.2.08.27.1.41.17.47.2.18.08.25.12.23.1.22.11.28.14.22.12c.17.09.34.18.5.28l.22.12.74.45.2.13.21.14.2.14h0l.13.09c.3.21.59.42.87.64l.21.16.39.32.2.16.19.17.26.22.25.23.14.14h0l0,0,.24.23.11.11.13.13.24.24.37.39.21.22.34.39.36.43c.41.51.8,1,1.16,1.56l.15.22.15.24.13.21.22.35.19.33.12.2.09.16c0,.05.05.11.08.16s.09.16.13.24.08.16.13.24c.28.56.54,1.14.78,1.72,0,.08.07.16.1.25l.27.72.07.22c0,.1.07.21.11.31s.06.19.08.28l.06.18.07.25.09.32c.05.17.09.34.13.52a2.68,2.68,0,0,1,.07.27c0,.12.06.25.08.38l0,.16c0,.08,0,.15,0,.23l0,.17,0,.15,0,.13,0,.14c0,.09,0,.18,0,.27s0,.18,0,.28,0,.2,0,.3,0,.2,0,.29v.17l0,.31c0,.05,0,.1,0,.15s0,.21,0,.31v0c0,.07,0,.13,0,.2a1.41,1.41,0,0,0,0,.2c0,.11,0,.22,0,.33h0c0,.12,0,.23,0,.34S450.45,460.94,450.44,461.16Z" transform="translate(-142.33 -25.61)" opacity="0.1"/><path d="M533.54,358.83v.25a.57.57,0,0,1,0,.13c0,.11,0,.23,0,.34v.07c0,.09,0,.18,0,.27V360l0,.26a1.5,1.5,0,0,1,0,.2l-.06.5-.06.32v0l0,.16a.36.36,0,0,1,0,.1s0,.05,0,.08,0,.12,0,.18l0,.17,0,.12a2.25,2.25,0,0,0,0,.22v0l0,.14c0,.06,0,.13-.05.19l-.06.22s0,0,0,.05l-.06.23c-.07.23-.15.46-.23.68s0,.15-.07.22l-.05.12a15.77,15.77,0,0,1-2.06,3.77l-.17.21a14.41,14.41,0,0,1-1.32,1.51l-22.05,22.05-22.05-22.05a15.64,15.64,0,0,1-4.51-12.35c0-.28.06-.56.1-.85a14.65,14.65,0,0,1,.28-1.47c0-.1.05-.2.07-.3a.83.83,0,0,0,0-.15l0-.09.06-.22h0c.05-.18.11-.35.16-.51l.08-.24c.12-.33.24-.65.38-1l.09-.19c0-.1.08-.19.13-.29l.22-.46,0,0h0a2.12,2.12,0,0,0,.11-.21l.13-.23a2.75,2.75,0,0,1,.17-.29.64.64,0,0,1,.08-.14l0-.08v0h0l.11-.16.12-.19.28-.42.1-.15.12-.17.14-.19.17-.21a1.39,1.39,0,0,1,.15-.19l.05-.07.11-.13c.06-.07.11-.14.17-.2l.08-.09v0l.13-.14.15-.17.42-.44.17-.17.27-.25a1.29,1.29,0,0,0,.17-.16l.21-.18.14-.12.14-.11.28-.23.14-.11.72-.53.15-.1.15-.09.14-.09.2-.13.11-.06.15-.09c.2-.12.4-.24.61-.34l.12-.07.19-.1.16-.07.16-.08.15-.07.16-.07.16-.07.65-.26.16-.06.17-.06.15-.06.13,0,.3-.1.15,0,.12,0,.12,0,.22-.06.28-.07c.3-.08.59-.14.89-.19l.12,0,.17,0,.17,0,.21,0,.13,0c.28,0,.57-.07.85-.09h2.37l.68.07.31,0,.21,0,.17,0,.17,0,.11,0c.29.05.59.11.88.18l.36.1.1,0,.15,0,.3.08.12,0,.65.22.14.06.19.07.29.12.33.14.13.06.18.08.16.08.15.07.2.1.15.09.36.19.15.09.53.32.14.09.14.09.15.1h0l.1.07c.21.14.41.29.61.45l.14.11.29.23.13.11.14.12.21.18.18.16a3.07,3.07,0,0,0,.26.25l.17.17.17-.17a3.07,3.07,0,0,0,.26-.25l.18-.16.21-.18.14-.12.13-.11.29-.23.14-.11c.23-.18.47-.36.72-.53l.15-.1.14-.09.14-.09.21-.13.1-.06.15-.09c.21-.12.41-.24.62-.34l.12-.07.19-.1.15-.07.16-.08.16-.07.16-.07.16-.07.64-.26.16-.06.17-.06.16-.06.13,0,.29-.1.16,0,.12,0,.12,0,.21-.06.29-.07c.29-.08.59-.14.88-.19l.12,0,.17,0,.17,0,.22,0,.13,0c.28,0,.56-.07.85-.09h2.37l.68.07.31,0,.2,0,.17,0,.17,0,.12,0,.87.18.36.1.1,0,.16,0,.29.08.13,0,.64.22.15.06.19.07.29.12.33.14.13.06.17.08.16.08.16.07.19.1.16.09.36.19.15.09c.18.1.35.21.52.32l.14.09.15.09.15.1h0l.09.07c.21.14.42.29.62.45l.14.11a3.11,3.11,0,0,1,.28.23l.14.11.14.12.18.16.18.16.1.1h0l.17.17.07.07.1.09.17.18.26.27.14.16.24.27.26.31c.29.35.56.72.82,1.1l.1.15c0,.06.07.12.11.17l.09.15c.05.08.11.16.16.25l.13.23a1,1,0,0,1,.08.14l.07.11.06.12.09.17.09.17c.2.39.38.8.55,1.21l.07.18c.07.17.13.33.19.51a.88.88,0,0,1,.05.15c0,.08,0,.15.08.22l.06.2a.93.93,0,0,0,0,.13c0,.06,0,.12.05.18l.06.22c0,.12.07.24.1.36s0,.13,0,.2l.06.27,0,.11,0,.16a.5.5,0,0,0,0,.12s0,.07,0,.1l0,.1s0,.06,0,.1l0,.19,0,.19,0,.22a1.49,1.49,0,0,1,0,.21l0,.11a1.5,1.5,0,0,0,0,.22.41.41,0,0,0,0,.11c0,.07,0,.14,0,.22h0a.71.71,0,0,1,0,.14.66.66,0,0,1,0,.14,1.93,1.93,0,0,1,0,.24h0a1.93,1.93,0,0,1,0,.24Z" transform="translate(-142.33 -25.61)" fill="#ff6584"/><path d="M533.54,358.83v.25a.57.57,0,0,1,0,.13c0,.11,0,.23,0,.34v.07c0,.09,0,.18,0,.27V360l0,.26a1.5,1.5,0,0,1,0,.2l-.06.5-.06.32v0l0,.16a.36.36,0,0,1,0,.1s0,.05,0,.08,0,.12,0,.18l0,.17,0,.12a2.25,2.25,0,0,0,0,.22v0l0,.14c0,.06,0,.13-.05.19l-.06.22s0,0,0,.05l-.06.23c-.07.23-.15.46-.23.68s0,.15-.07.22l-.05.12a15.55,15.55,0,0,0,.43-3.78,15.9,15.9,0,0,0-.53-3.93,15.64,15.64,0,0,0-4-7,15.86,15.86,0,0,0-2.67-2.14c-.28-.17-.56-.34-.85-.5a15.63,15.63,0,0,0-15,0,17.37,17.37,0,0,0-1.48.92,16.45,16.45,0,0,0-2,1.72,16,16,0,0,0-1.9-1.62h0a13.74,13.74,0,0,0-1.62-1,15.63,15.63,0,0,0-15,0,15.22,15.22,0,0,0-2.21,1.48,15.84,15.84,0,0,0-1.3,1.16,16.36,16.36,0,0,0-1.72,2c-.31.44-.59.89-.85,1.35v0a14,14,0,0,0-.67,1.34c-.11.25-.21.5-.31.76,0-.1.05-.2.07-.3a.83.83,0,0,0,0-.15l0-.09.06-.22h0c.05-.18.11-.35.16-.51l.08-.24c.12-.33.24-.65.38-1l.09-.19c0-.1.08-.19.13-.29l.22-.46,0,0h0a2.12,2.12,0,0,0,.11-.21l.13-.23a2.75,2.75,0,0,1,.17-.29.64.64,0,0,1,.08-.14l0-.08v0h0l.11-.16.12-.19.28-.42.1-.15.12-.17.14-.19.17-.21a1.39,1.39,0,0,1,.15-.19l.05-.07.11-.13c.06-.07.11-.14.17-.2l.08-.09v0l.13-.14.15-.17.42-.44.17-.17.27-.25a1.29,1.29,0,0,0,.17-.16l.21-.18.14-.12.14-.11.28-.23.14-.11.72-.53.15-.1.15-.09.14-.09.2-.13.11-.06.15-.09c.2-.12.4-.24.61-.34l.12-.07.19-.1.16-.07.16-.08.15-.07.16-.07.16-.07.65-.26.16-.06.17-.06.15-.06.13,0,.3-.1.15,0,.12,0,.12,0,.22-.06.28-.07c.3-.08.59-.14.89-.19l.12,0,.17,0,.17,0,.21,0,.13,0c.28,0,.57-.07.85-.09h2.37l.68.07.31,0,.21,0,.17,0,.17,0,.11,0c.29.05.59.11.88.18l.36.1.1,0,.15,0,.3.08.12,0,.65.22.14.06.19.07.29.12.33.14.13.06.18.08.16.08.15.07.2.1.15.09.36.19.15.09.53.32.14.09.14.09.15.1h0l.1.07c.21.14.41.29.61.45l.14.11.29.23.13.11.14.12.21.18.18.16a3.07,3.07,0,0,0,.26.25l.17.17.17-.17a3.07,3.07,0,0,0,.26-.25l.18-.16.21-.18.14-.12.13-.11.29-.23.14-.11c.23-.18.47-.36.72-.53l.15-.1.14-.09.14-.09.21-.13.1-.06.15-.09c.21-.12.41-.24.62-.34l.12-.07.19-.1.15-.07.16-.08.16-.07.16-.07.16-.07.64-.26.16-.06.17-.06.16-.06.13,0,.29-.1.16,0,.12,0,.12,0,.21-.06.29-.07c.29-.08.59-.14.88-.19l.12,0,.17,0,.17,0,.22,0,.13,0c.28,0,.56-.07.85-.09h2.37l.68.07.31,0,.2,0,.17,0,.17,0,.12,0,.87.18.36.1.1,0,.16,0,.29.08.13,0,.64.22.15.06.19.07.29.12.33.14.13.06.17.08.16.08.16.07.19.1.16.09.36.19.15.09c.18.1.35.21.52.32l.14.09.15.09.15.1h0l.09.07c.21.14.42.29.62.45l.14.11a3.11,3.11,0,0,1,.28.23l.14.11.14.12.18.16.18.16.1.1h0l.17.17.07.07.1.09.17.18.26.27.14.16.24.27.26.31c.29.35.56.72.82,1.1l.1.15c0,.06.07.12.11.17l.09.15c.05.08.11.16.16.25l.13.23a1,1,0,0,1,.08.14l.07.11.06.12.09.17.09.17c.2.39.38.8.55,1.21l.07.18c.07.17.13.33.19.51a.88.88,0,0,1,.05.15c0,.08,0,.15.08.22l.06.2a.93.93,0,0,0,0,.13c0,.06,0,.12.05.18l.06.22c0,.12.07.24.1.36s0,.13,0,.2l.06.27,0,.11,0,.16a.5.5,0,0,0,0,.12s0,.07,0,.1l0,.1s0,.06,0,.1l0,.19,0,.19,0,.22a1.49,1.49,0,0,1,0,.21l0,.11a1.5,1.5,0,0,0,0,.22.41.41,0,0,0,0,.11c0,.07,0,.14,0,.22h0a.71.71,0,0,1,0,.14.66.66,0,0,1,0,.14,1.93,1.93,0,0,1,0,.24h0a1.93,1.93,0,0,1,0,.24Z" transform="translate(-142.33 -25.61)" opacity="0.1"/><path d="M769.53,443.31v.25a.71.71,0,0,1,0,.14c0,.11,0,.22,0,.33v.07a2.45,2.45,0,0,0,0,.27v.13l0,.25a1.36,1.36,0,0,1,0,.2l-.06.5c0,.11,0,.22,0,.33v0l0,.16a.3.3,0,0,1,0,.1s0,.06,0,.09a1.36,1.36,0,0,1,0,.17l0,.17,0,.13c0,.07,0,.14,0,.22h0a.83.83,0,0,0,0,.15c0,.06,0,.12,0,.18l-.06.22s0,0,0,.06a1.87,1.87,0,0,0-.07.22c-.07.23-.14.46-.22.69a1.8,1.8,0,0,0-.08.21l-.05.12a15.59,15.59,0,0,1-2.06,3.77l-.16.21a15.79,15.79,0,0,1-1.33,1.51l-22.05,22.05-22-22.05a14.46,14.46,0,0,1-1.73-2.05,14.27,14.27,0,0,1-.9-1.43,15.61,15.61,0,0,1-1.88-8.87q0-.42.09-.84a14.84,14.84,0,0,1,.28-1.48c0-.1,0-.2.08-.3a.83.83,0,0,1,0-.15.29.29,0,0,1,0-.09l.06-.22h0c0-.17.11-.34.16-.51a2.25,2.25,0,0,0,.08-.24c.12-.33.25-.65.38-1l.09-.2c0-.09.08-.19.13-.29s.15-.31.23-.46v0h0l.1-.21.13-.23c.06-.1.11-.2.17-.29a1,1,0,0,1,.08-.14s0-.05,0-.08h0c0-.06.07-.12.11-.17l.12-.19.28-.42.1-.14.13-.18.13-.18.17-.22.15-.19,0-.07.11-.13.17-.2.08-.09h0l.13-.15.15-.16c.14-.15.28-.3.43-.44a1.37,1.37,0,0,1,.17-.17,3.07,3.07,0,0,1,.26-.25l.18-.16a1.8,1.8,0,0,1,.2-.19l.14-.12.14-.11.28-.23.14-.11c.24-.18.48-.36.72-.52l.15-.1.15-.1.14-.09.21-.13.1-.06.15-.09.61-.34.12-.07.19-.09.16-.08.16-.07.16-.08.15-.07.16-.07.65-.26.16-.06.17-.06.15-.05.13-.05.3-.09.15,0,.12,0,.12,0,.22-.06.28-.07c.3-.07.59-.14.89-.19l.12,0,.17,0,.17,0,.21,0,.13,0,.86-.09h2.36l.69.07.3,0,.21,0,.17,0,.17,0,.11,0a8.6,8.6,0,0,1,.88.19l.36.09.1,0,.15,0,.3.09.13,0,.64.22.14,0,.19.07.29.12.33.14.13.06.18.09.16.07.15.08.2.1.16.08.35.2.16.08.52.32.14.09.15.1.14.1h0l.1.07.61.45.15.11.28.23.14.11.13.12.21.19.18.16.26.25a1.37,1.37,0,0,1,.17.17c.06-.06.11-.12.17-.17l.27-.25a1.29,1.29,0,0,1,.17-.16l.21-.19.14-.12.14-.11.28-.23.14-.11c.24-.18.48-.36.72-.52l.15-.1.15-.1.14-.09.2-.13.11-.06.15-.09.61-.34.12-.07.19-.09.16-.08.15-.07.16-.08.16-.07.16-.07.64-.26.16-.06.17-.06.16-.05.13-.05.3-.09.15,0,.12,0,.12,0,.22-.06.28-.07c.29-.07.59-.14.88-.19l.13,0,.16,0,.18,0,.21,0,.13,0,.85-.09h2.37l.68.07.31,0,.21,0,.17,0,.17,0,.11,0c.29.05.59.11.88.19l.36.09.09,0,.16,0,.29.09.13,0,.64.22.15,0,.19.07.29.12.33.14.13.06.18.09.15.07.16.08.2.1.15.08.36.2.15.08c.18.1.35.21.52.32l.14.09.15.1.15.1h0l.1.07.61.45.14.11.28.23.14.11.14.12.18.16.18.16a.94.94,0,0,0,.1.1h0c0,.06.11.11.17.17l.08.07.09.1.17.17.26.27.14.16a3.22,3.22,0,0,1,.24.28l.26.3c.29.36.56.72.82,1.1,0,.05.07.1.1.16l.11.16.09.15c.06.08.11.17.16.25l.13.23.09.14.06.12.06.11.09.17.09.17c.2.4.39.8.55,1.21a1.34,1.34,0,0,1,.07.18c.07.17.13.34.19.51l.06.16a1.72,1.72,0,0,0,.07.21l.06.2,0,.13c0,.06,0,.12,0,.18l.06.22c0,.12.07.25.1.37s0,.12,0,.19l.06.27,0,.11,0,.16s0,.08,0,.12,0,.07,0,.11l0,.09s0,.07,0,.1l0,.19,0,.2,0,.21,0,.21v.12c0,.07,0,.14,0,.21s0,.07,0,.11,0,.15,0,.22v0a.57.57,0,0,0,0,.13v.14a1.93,1.93,0,0,1,0,.24h0a1.93,1.93,0,0,1,0,.24Z" transform="translate(-142.33 -25.61)" fill="#ff6584"/><path d="M769.53,443.31v.25a.71.71,0,0,1,0,.14c0,.11,0,.22,0,.33v.07a2.45,2.45,0,0,0,0,.27v.13l0,.25a1.36,1.36,0,0,1,0,.2l-.06.5c0,.11,0,.22,0,.33v0l0,.16a.3.3,0,0,1,0,.1s0,.06,0,.09a1.36,1.36,0,0,1,0,.17l0,.17,0,.13c0,.07,0,.14,0,.22h0a.83.83,0,0,0,0,.15c0,.06,0,.12,0,.18l-.06.22s0,0,0,.06a1.87,1.87,0,0,0-.07.22c-.07.23-.14.46-.22.69a1.8,1.8,0,0,0-.08.21l-.05.12a15.55,15.55,0,0,0,.43-3.78,15.58,15.58,0,0,0-7.23-13c-.28-.18-.56-.35-.85-.51a15.63,15.63,0,0,0-15,0,15.27,15.27,0,0,0-1.48.93,15.63,15.63,0,0,0-2,1.72,15.31,15.31,0,0,0-1.9-1.63h0a18.16,18.16,0,0,0-1.61-1,15.65,15.65,0,0,0-15,0,16.07,16.07,0,0,0-2.21,1.48,14.3,14.3,0,0,0-1.3,1.17,14.76,14.76,0,0,0-1.71,2,12.94,12.94,0,0,0-.86,1.36h0c-.25.44-.47.89-.67,1.34-.11.25-.21.5-.31.76,0-.1,0-.2.08-.3a.83.83,0,0,1,0-.15.29.29,0,0,1,0-.09l.06-.22h0c0-.17.11-.34.16-.51a2.25,2.25,0,0,0,.08-.24c.12-.33.25-.65.38-1l.09-.2c0-.09.08-.19.13-.29s.15-.31.23-.46v0h0l.1-.21.13-.23c.06-.1.11-.2.17-.29a1,1,0,0,1,.08-.14s0-.05,0-.08h0c0-.06.07-.12.11-.17l.12-.19.28-.42.1-.14.13-.18.13-.18.17-.22.15-.19,0-.07.11-.13.17-.2.08-.09h0l.13-.15.15-.16c.14-.15.28-.3.43-.44a1.37,1.37,0,0,1,.17-.17,3.07,3.07,0,0,1,.26-.25l.18-.16a1.8,1.8,0,0,1,.2-.19l.14-.12.14-.11.28-.23.14-.11c.24-.18.48-.36.72-.52l.15-.1.15-.1.14-.09.21-.13.1-.06.15-.09.61-.34.12-.07.19-.09.16-.08.16-.07.16-.08.15-.07.16-.07.65-.26.16-.06.17-.06.15-.05.13-.05.3-.09.15,0,.12,0,.12,0,.22-.06.28-.07c.3-.07.59-.14.89-.19l.12,0,.17,0,.17,0,.21,0,.13,0,.86-.09h2.36l.69.07.3,0,.21,0,.17,0,.17,0,.11,0a8.6,8.6,0,0,1,.88.19l.36.09.1,0,.15,0,.3.09.13,0,.64.22.14,0,.19.07.29.12.33.14.13.06.18.09.16.07.15.08.2.1.16.08.35.2.16.08.52.32.14.09.15.1.14.1h0l.1.07.61.45.15.11.28.23.14.11.13.12.21.19.18.16.26.25a1.37,1.37,0,0,1,.17.17c.06-.06.11-.12.17-.17l.27-.25a1.29,1.29,0,0,1,.17-.16l.21-.19.14-.12.14-.11.28-.23.14-.11c.24-.18.48-.36.72-.52l.15-.1.15-.1.14-.09.2-.13.11-.06.15-.09.61-.34.12-.07.19-.09.16-.08.15-.07.16-.08.16-.07.16-.07.64-.26.16-.06.17-.06.16-.05.13-.05.3-.09.15,0,.12,0,.12,0,.22-.06.28-.07c.29-.07.59-.14.88-.19l.13,0,.16,0,.18,0,.21,0,.13,0,.85-.09h2.37l.68.07.31,0,.21,0,.17,0,.17,0,.11,0c.29.05.59.11.88.19l.36.09.09,0,.16,0,.29.09.13,0,.64.22.15,0,.19.07.29.12.33.14.13.06.18.09.15.07.16.08.2.1.15.08.36.2.15.08c.18.1.35.21.52.32l.14.09.15.1.15.1h0l.1.07.61.45.14.11.28.23.14.11.14.12.18.16.18.16a.94.94,0,0,0,.1.1h0c0,.06.11.11.17.17l.08.07.09.1.17.17.26.27.14.16a3.22,3.22,0,0,1,.24.28l.26.3c.29.36.56.72.82,1.1,0,.05.07.1.1.16l.11.16.09.15c.06.08.11.17.16.25l.13.23.09.14.06.12.06.11.09.17.09.17c.2.4.39.8.55,1.21a1.34,1.34,0,0,1,.07.18c.07.17.13.34.19.51l.06.16a1.72,1.72,0,0,0,.07.21l.06.2,0,.13c0,.06,0,.12,0,.18l.06.22c0,.12.07.25.1.37s0,.12,0,.19l.06.27,0,.11,0,.16s0,.08,0,.12,0,.07,0,.11l0,.09s0,.07,0,.1l0,.19,0,.2,0,.21,0,.21v.12c0,.07,0,.14,0,.21s0,.07,0,.11,0,.15,0,.22v0a.57.57,0,0,0,0,.13v.14a1.93,1.93,0,0,1,0,.24h0a1.93,1.93,0,0,1,0,.24Z" transform="translate(-142.33 -25.61)" opacity="0.1"/><path d="M703.42,448h0a115,115,0,0,0-10.16-9.15c.43-5.36,1.43-18.19,1.52-20.66.1-3.13-4.51-7.13-14.37-10.82s-7,13.52-6.86,15.07,2.29,6.24,6,7.78c1.33.55,1.69,1.24,1.6,1.89l-.31-.05c-8.11-1-11.77-2.88-11.77-2.88s-3,9-3,13.32c0,.24,0,.47,0,.68a5.14,5.14,0,0,0,.24,2.32H667a7.53,7.53,0,0,1-.55,3.42h0a26.42,26.42,0,0,1-1,2.46,68.81,68.81,0,0,1-.47-7.41c.16-2.4-3.66-12.15-3.66-12.15s-1.59-.64-4.93-4.48-6-5.44-8.27-6.24-10.5-11.51-13.89-14c-2.7-2-3.79-.82-4.12-.26l-.2.14c-1.57-2.18-2.69-4.26-2.69-5.74,0-1.09.11-3.33.31-6.17a26,26,0,0,1,3.28,3c2.3,2.55,4,5.59,6.51,7.94a10.6,10.6,0,0,0,7.18,3.14,6.63,6.63,0,0,0,2.6-.41c3.34-1.29,5.49-5.36,9-5.52,2.76.14,4.79,2.69,7.05,4.37a9.45,9.45,0,0,0,5.81,2,6.62,6.62,0,0,0,2.45-.39c2.6-1,4.38-4.17,3.19-6.68-1.84-3.88-8.1-3-10.77-6.38a2.64,2.64,0,0,1-.62-2.48,1.73,1.73,0,0,1,1.62-1.18,5.64,5.64,0,0,1,3.35,1.6c1.3,1.32,3,3,4.61,2.82a2.19,2.19,0,0,0,1.31-.25c.05-1.19.11-2.38.16-3.57a12.45,12.45,0,0,0,5.56,1.58,6.51,6.51,0,0,0,1.08-.05c2.11-.28,4.12-2.24,3.88-4.28a4.85,4.85,0,0,0,3.33,1.11,4.54,4.54,0,0,0,1.6-.2,4.84,4.84,0,0,0,3.24-4.16c.16-2.22-1.21-4.22-2.53-6l-6.54-8.94a3.62,3.62,0,0,1-1-2.58,5.37,5.37,0,0,1,1.12-2c1.78-2.6.91-6.41-1.36-8.6s-5.58-2.95-8.72-2.89c-2.37.05-5,.45-6.91-.9-1.51-1-2.22-2.92-2.7-4.71-1.39-5.26-1.47-10.78-2.44-16.13s-3.06-10.85-7.4-14.11a6.85,6.85,0,0,0-3.43-1.5,24.34,24.34,0,0,0-3.18.26c-3.6.2-6.81-2.28-9.08-5.1s-4-6.1-6.61-8.57c-3.85-3.87-10.22-5-15.34-3.55-2.34.65-4.2,2.55-6.62,2.65-3.55.16-7.4-.65-10.94-1-3.33-.3-6.73-.59-10,.22a10.64,10.64,0,0,0-7,5.19l-.85-7.21s-1.76-13.6-2.55-14.71c-.57-.81-.32-1.94.1-3.21l.16.15c.12-.36.25-.73.38-1.1a2.62,2.62,0,0,0,0-.84c.31-2.73-4.65-20.11-4.65-20.11H570.4c0-.21-.07-.43-.11-.64-1.3-7.07-3.49-18.12-5-20.78-1-1.83-1.11-4.44-.9-6.72a53.88,53.88,0,0,0,.21-7.93,21.71,21.71,0,0,1,.18-3.82,5.36,5.36,0,0,0-2.13-5c-5.85-4.34-20.07-14.22-28.39-14.47-10.66-.32,3.34,18.39,3.18,20.15s10.66,3.36,10.66,3.36.64,5.43,1.28,8.47c.44,2.11,1.18,17.76,1.6,27.15-2.61-.32-7.17-2.69-7.17-2.69s-12.41-3.35-13.53,0,15.12,19.51,15.12,19.51,5.73,15.19,4,20-.48,27.5-.48,27.5.16,27,1.35,33.9-2.15,10.71-2.15,10.71-1.43,16.95,0,18.55a49.53,49.53,0,0,1,3.92,6.29l.42.76c-4.7,5.74-9.37,11.23-11.82,12-4.77,1.44-37.38,15-37.38,15S492.61,433.27,491,433.27s9.7,10.88,9.7,10.88,10.18,8.15,11.3,9.43,29,16.47,29,16.47,4.78,1.44,5.25,2.88,6.84,5.43,6.84,5.43,4.88,5.64,6.16,9.24c0,.26,0,.48.07.69.06,1,.13,1.46.19,1.22.85,2.34,6.58,8.31,3.82,12.57-1.28,2,0,5.59,2.47,8.49-.67,3.58-1.6,7.66-2.6,9-1.91,2.56-1.06,6.18-3,6.61s-2.55,9.81-2.55,9.81L556,556.66s-.43,4.26-2.76,5.33,0,6.82,0,6.82-2.5,4.9-1,7.67-3,15.57-3,15.57-1.91,24.73,0,28.14a28,28,0,0,1,3,10.87c0,2.13,1.06,42,1.06,42s-2.55,16.2-3.4,19.18,2.34,9.6.22,13-1.7,11.08-1.7,11.08-3.18,30.06-1.27,41.15-.61,13.43-.61,13.43a22.72,22.72,0,0,0,4.12,1.82c.05.42.1.87.15,1.33,1,9.3,2.47,25.32,1.13,29s-1.72,10.62-1.85,14.56c0,.23,0,.44,0,.65l0,0-3.71,6s-.74,5.29-1.7,6.14-8.93,15.32-10,17.18l-.11.2s-8.06,14.82,11.88,15.24,17.39-9.8,17.39-9.8.06-2,.25-4.45c.24-3,.68-6.65,1.45-7.6,1.38-1.7,5.41-9.7,5.41-9.7V819.73h-1.28c0-.2,0-.42.07-.64a44.28,44.28,0,0,1,1.11-7.25c.63-1.49-1.38-10.45-1.38-10.45s.44-17.23,2.41-28.12c.09-.48.18-.95.27-1.4a34,34,0,0,0,4.29-2.24s0-21.74,2.55-25.58S581,729.34,581,729.34s.63-9.59,2.54-11.51S585,707.38,585,707.38s1.69-5.54,3.6-10,3-17.05,3-17.05a21.63,21.63,0,0,1,3-6.19c2.13-3,0-9.59,0-9.59s-2.33-4.26-.84-8.53,9.75-38.8,9.75-38.8l3.19-12.36,4.66,15.77s-.63,11.3,0,14.5,5.09,10,5.09,10V678.6s.43,22.6,2.13,26.22,2.54,17.06,2.54,17.06,5.73,39.44,2.12,45.19a34.51,34.51,0,0,0,5.86,3.21v23.23s-4.16,14.06-2.74,23.63c0,.19.06.38.09.57-.38.28-.8.52-1.06.42l.67,16s.18,8.88-1.52,13.55a19.28,19.28,0,0,0-1,5.08c-.37,6.33,2.07,15,16,14.1,18.55-1.18,15.69-13,15.69-13s0-.46-.07-1.27a48.19,48.19,0,0,0-4.6-17.38c-4.45-8.74-3.81-19.62-3.81-19.62a6.87,6.87,0,0,1-1.13.3c0-.21,0-.43.05-.65.24-3,.61-6.89,1-8.71.63-3.2,0-10.65,0-10.65l2.39-23.35.13-1.3a19.14,19.14,0,0,0,3.29-2v0h0a23.93,23.93,0,0,1-1.23-6.5,5.74,5.74,0,0,1,1.23-4.11c2.76-2.77,4.66-37.52,4.66-37.52s1.5-12.23,1.51-16.36c0-.29,0-.54,0-.74-.17-2.49-1.49-12.24-1.47-17.93a11.27,11.27,0,0,1,.41-3.56c1.27-3.2,3-63.32,3-63.32l2.12-26.64V570.67a129,129,0,0,0-3.79-31.07c5.78,3,15.69,9.82,17.5,8,2.23-2.24,3.34-40.62,2.7-44.45,0-.21-.08-.48-.15-.78-.15-.7-.37-1.64-.64-2.73l.88-1.53c4.35-7.53,11-19.49,11.53-23,.6-4,1.39-14.39,2.89-18.94a8.79,8.79,0,0,1,.43-1.07h0c.39-.79.81-1.22,1.29-1.1,2.71.64,4.46,2.72,5.89,1.92a.7.7,0,0,0,.19-.16h0a2.39,2.39,0,0,0,.36-.51h0a5,5,0,0,0,.33-.73v0c.1-.26.19-.55.28-.86l0-.09c0-.13.07-.26.1-.39a.65.65,0,0,0,0-.13c0-.11.05-.23.08-.34l.06-.25,0-.13c.25-1.13.44-2.3.56-3.12,0-.3.07-.55.1-.74l0-.4Z" transform="translate(-142.33 -25.61)" fill="url(#da9b23d9-0e41-46fc-9133-b8e9e7730c16)"/><path d="M559.48,490.78a3.4,3.4,0,0,0-.22-1.79C559.33,490.43,559.41,491.09,559.48,490.78Z" transform="translate(-142.33 -25.61)" fill="url(#9864eb82-b8e8-438f-a72c-0f0a4e60d74d)"/><path d="M679.44,436.47s3.78-2.58.09-4.1-5.86-6.2-6-7.74-3-18.66,6.86-15,14.47,7.64,14.37,10.76-1.7,22.9-1.7,22.9Z" transform="translate(-142.33 -25.61)" fill="#fbbebe"/><path d="M703.42,450.06s0,.46-.15,1.14c-.29,2-1,6.12-2.08,6.71-1.43.8-3.18-1.27-5.89-1.91-.48-.11-.9.31-1.29,1.1a9.29,9.29,0,0,0-.43,1.06c-1.5,4.54-2.29,14.88-2.89,18.86-.54,3.51-7.18,15.42-11.53,22.91-.65,1.13-1.26,2.16-1.78,3-1.2,2-2,3.31-2,3.31l-11-20.62V455.21a27,27,0,0,0,2-4.21h0a7.43,7.43,0,0,0,.55-3.4,1.74,1.74,0,0,0-.47-1,1.2,1.2,0,0,1-.21-.31,1.57,1.57,0,0,1-.1-.26,3.3,3.3,0,0,1-.14-.78c0-.2,0-.43,0-.66,0-4.29,3-13.26,3-13.26s3.66,1.91,11.77,2.86S703.42,450.06,703.42,450.06Z" transform="translate(-142.33 -25.61)" fill="#2979ff"/><path d="M703.27,451.2c-.29,2-1,6.12-2.08,6.71-1.43.8-3.18-1.27-5.89-1.91-.48-.11-.9.31-1.29,1.1a9.29,9.29,0,0,0-.43,1.06c-5.47-2.66-15-7.48-15.61-8.84s-7.25-1.67-11-1.73l-.68,0a5.07,5.07,0,0,1-.24-2.31c.28-4.47,3-12.64,3-12.64s3.66,1.91,11.77,2.86C688.47,436.38,701.75,449.66,703.27,451.2Z" transform="translate(-142.33 -25.61)" opacity="0.1"/><path d="M703.42,450.07s-.8,7.05-2.23,7.84-3.18-1.27-5.89-1.9c-.48-.12-.9.3-1.29,1.09-5.39-2.62-15.45-7.66-16-9.05s-8.12-1.71-11.68-1.75c-1.31-2.74,2.76-15,2.76-15s3.66,1.91,11.77,2.87S703.42,450.07,703.42,450.07Z" transform="translate(-142.33 -25.61)" fill="#2979ff"/><path d="M676.37,549.17c-2.23,2.23-16.71-8.59-20.68-9.23s-18.4-61.08-18.4-61.08l2.17-34.06L631,413.46l-1.1-4.1s.84-2.5,4.24,0,11.66,13.16,13.89,13.95,4.93,2.4,8.27,6.22,4.93,4.45,4.93,4.45,3.82,9.71,3.66,12.09,1.28,18.62,3,20.05,4.61,14.48,4.61,14.48,5.26,18.33,6.37,23.56q.11.46.15.78C679.71,508.76,678.6,546.94,676.37,549.17Z" transform="translate(-142.33 -25.61)" fill="#2979ff"/><path d="M651.55,473.33l10.5,2.81s2,18.14,2.74,19.1,3.3,38.18,3.3,38.18l-16.54-7.48-6.21-20V483.81Z" transform="translate(-142.33 -25.61)" opacity="0.1"/><path d="M573.27,767.78a35.43,35.43,0,0,0-1.51,6c-2,10.84-2.41,28-2.41,28s2,8.91,1.38,10.4a43.64,43.64,0,0,0-1.11,7.21c-.17,1.56-.27,2.75-.27,2.75l-19.42-1.27s0-1.15.06-2.91c.13-3.92.54-10.82,1.85-14.48s-.12-19.64-1.13-28.9c-.43-4-.78-6.74-.78-6.74S576.54,759.26,573.27,767.78Z" transform="translate(-142.33 -25.61)" fill="#fbbebe"/><path d="M649.06,773l-2.39,23.23s.63,7.42,0,10.6c-.36,1.81-.73,5.67-1,8.67-.18,2.27-.3,4.06-.3,4.06s-14.85,10.4-18.24,1.27a16.15,16.15,0,0,1-.84-3.42c-1.42-9.53,2.74-23.52,2.74-23.52V764l20.58,3.36Z" transform="translate(-142.33 -25.61)" fill="#fbbebe"/><path d="M573.27,767.78a35.43,35.43,0,0,0-1.51,6,29.63,29.63,0,0,1-21,.79c-.43-4-.78-6.74-.78-6.74S576.54,759.26,573.27,767.78Z" transform="translate(-142.33 -25.61)" opacity="0.1"/><path d="M649.64,767.35l-.58,5.63c-7.2,3.3-14.89,1.28-20-1v-8Z" transform="translate(-142.33 -25.61)" opacity="0.1"/><path d="M566.77,506.21s-1.69,12.52-3.6,15.07-1.06,6.15-3,6.57-2.55,9.76-2.55,9.76L556,558.19s-.43,4.24-2.76,5.3,0,6.79,0,6.79-2.5,4.88-1,7.64-3,15.48-3,15.48-1.91,24.61,0,28a27.83,27.83,0,0,1,3,10.82c0,2.12,1.06,41.79,1.06,41.79s-2.55,16.13-3.4,19.1,2.34,9.54.22,12.94-1.7,11-1.7,11S545.14,747,547.05,758s-.61,13.36-.61,13.36a29.69,29.69,0,0,0,29.88-1.27s0-21.64,2.55-25.46S581,730,581,730s.63-9.55,2.54-11.46S585,708.17,585,708.17s1.69-5.52,3.6-10,3-17,3-17a21.4,21.4,0,0,1,3-6.16c2.13-3,0-9.54,0-9.54s-2.33-4.25-.84-8.49,9.75-38.61,9.75-38.61l3.19-12.3,4.66,15.7s-.63,11.24,0,14.42,5.09,10,5.09,10v33.31s.43,22.49,2.13,26.09,2.54,17,2.54,17,5.73,39.25,2.12,45c0,0,16.34,11.66,29.28,2.12,0,0-2.76-7.85,0-10.61s4.66-37.34,4.66-37.34,1.7-13.79,1.49-17-2.33-18.24-1.06-21.42,3-63,3-63l2.12-26.51v-21.7a127.47,127.47,0,0,0-4.8-34.74c-3.59-12.65-8.56-27.16-12.74-28.07C645.12,509.32,579.29,516.61,566.77,506.21Z" transform="translate(-142.33 -25.61)" fill="#3f3d56"/><path d="M569.62,819.33c-.17,1.56-.27,2.75-.27,2.75l-19.42-1.27s0-1.15.06-2.91c9.11-8.08,18.19,1.43,18.19,1.43Z" transform="translate(-142.33 -25.61)" opacity="0.1"/><path d="M570.83,820v11.78s-4,8-5.41,9.65c-.77.94-1.21,4.55-1.45,7.56-.19,2.4-.25,4.42-.25,4.42s2.55,10.19-17.39,9.76S534.45,848,534.45,848l.11-.19c1-1.86,9.07-16.3,10-17.1s1.7-6.11,1.7-6.11l3.71-6c9.13-8.16,18.25,1.38,18.25,1.38Z" transform="translate(-142.33 -25.61)" fill="#3f3d56"/><path d="M563.72,853.37s2.55,10.19-17.39,9.76S534.45,848,534.45,848l.11-.19c.55,3,2.9,6.11,10.39,5.71,10.15-.53,16.34-3.12,19-4.53C563.78,851.35,563.72,853.37,563.72,853.37Z" transform="translate(-142.33 -25.61)" opacity="0.1"/><path d="M645.7,815.48c-.18,2.27-.3,4.06-.3,4.06s-14.85,10.4-18.24,1.27a16.15,16.15,0,0,1-.84-3.42,8.14,8.14,0,0,0,.84-.72c2.43-3.6,15.37-3.71,16-2C643.55,815.65,644.78,815.65,645.7,815.48Z" transform="translate(-142.33 -25.61)" opacity="0.1"/><path d="M639.57,866.85c-14,.88-16.41-7.73-16-14a19,19,0,0,1,1-5.05c1.7-4.65,1.52-13.49,1.52-13.49l-.67-15.91c.53.21,1.81-1.06,1.81-1.06,2.43-3.6,15.37-3.71,16-2s3.61.55,3.61.55-.64,10.82,3.81,19.51a47.87,47.87,0,0,1,4.6,17.3c.06.8.07,1.26.07,1.26S658.12,865.68,639.57,866.85Z" transform="translate(-142.33 -25.61)" fill="#3f3d56"/><path d="M639.57,866.85c-14,.88-16.41-7.73-16-14,0,0,3.63,6.17,16.56,4.69a36.29,36.29,0,0,0,15.1-4.87c.06.8.07,1.26.07,1.26S658.12,865.68,639.57,866.85Z" transform="translate(-142.33 -25.61)" opacity="0.1"/><g opacity="0.1"><path d="M654,524.93c-2.87-8.2-6-15-8.84-15.57l-2.53.26c2.64,1.42,5.54,7.74,8.19,15.31a158.64,158.64,0,0,1,8.7,52.24v16.7l-2.12,26.52s-1.7,59.82-3,63,.85,18.24,1.06,21.43-1.49,17-1.49,17-1.91,34.58-4.66,37.33,0,10.61,0,10.61a19,19,0,0,1-10,3.69,19.46,19.46,0,0,0,13.21-3.69s-2.76-7.85,0-10.61,4.66-37.33,4.66-37.33,1.7-13.79,1.49-17-2.33-18.25-1.06-21.43,3-63,3-63l2.12-26.52v-16.7A158.64,158.64,0,0,0,654,524.93Z" transform="translate(-142.33 -25.61)"/></g><g opacity="0.1"><path d="M550.33,771.39s2.52-2.34.61-13.37,1.27-40.94,1.27-40.94-.42-7.64,1.7-11-1.06-10-.22-12.94,3.4-19.1,3.4-19.1S556,634.35,556,632.22a27.75,27.75,0,0,0-3-10.81c-1.91-3.4,0-28,0-28s4.45-12.73,3-15.48,1-7.64,1-7.64-2.33-5.73,0-6.79,2.76-5.3,2.76-5.3l1.69-20.58s.64-9.33,2.55-9.76,1.06-4,3-6.57c1.43-1.91,2.75-9.44,3.31-13.08a13.22,13.22,0,0,1-3.52-2s-1.7,12.51-3.61,15.06-1.06,6.15-3,6.57-2.54,9.76-2.54,9.76L556,558.19s-.43,4.24-2.76,5.3,0,6.79,0,6.79-2.5,4.88-1,7.64-3,15.48-3,15.48-1.91,24.61,0,28a27.75,27.75,0,0,1,3,10.81c0,2.13,1.06,41.79,1.06,41.79s-2.55,16.13-3.39,19.1,2.33,9.54.21,12.94-1.7,11-1.7,11S545.21,747,547.12,758s-.61,13.37-.61,13.37a29.22,29.22,0,0,0,15.74,3.35A28.49,28.49,0,0,1,550.33,771.39Z" transform="translate(-142.33 -25.61)"/></g><path d="M632.13,308.12c2.63,2.46,4.34,5.73,6.61,8.53s5.48,5.27,9.08,5.08a24.36,24.36,0,0,1,3.18-.27,6.85,6.85,0,0,1,3.43,1.5c4.34,3.24,6.43,8.7,7.4,14s1,10.82,2.44,16.06c.48,1.78,1.19,3.64,2.7,4.69,1.95,1.34,4.54.93,6.91.89,3.14-.06,6.45.71,8.72,2.88s3.14,6,1.36,8.56a5.21,5.21,0,0,0-1.12,1.94,3.58,3.58,0,0,0,1,2.57l6.54,8.9c1.32,1.78,2.69,3.78,2.53,6a4.7,4.7,0,0,1-8.28,2.69c.71,2.21-1.47,4.5-3.77,4.8s-4.54-.73-6.63-1.74l-.17,3.77c-1.92,1-3.95-1-5.48-2.56s-4.68-2.46-5.41-.42a2.64,2.64,0,0,0,.62,2.48c2.67,3.33,8.93,2.48,10.77,6.34,1.19,2.5-.59,5.7-3.19,6.65s-5.59,0-7.82-1.6-4.41-4.39-7.32-4.37c-3.63,0-5.8,4.2-9.19,5.51-3.19,1.22-6.84-.37-9.33-2.71s-4.22-5.37-6.52-7.91c-5.92-6.53-14.89-9.12-23.25-11.91s-17.21-6.59-21.53-14.27c-1.32-2.37-2.16-5-3.8-7.17-2.82-3.68-7.56-5.4-10.65-8.85a13.67,13.67,0,0,1-2.09-14.61c1.46-3.09,4-5.48,6.09-8.22a27.64,27.64,0,0,0,5.43-16.22c0-2.2-.23-4.47.47-6.56,1.07-3.16,4.17-5.29,7.41-6.1s6.64-.52,10-.23c3.54.32,7.39,1.12,10.94,1,2.42-.11,4.28-2,6.62-2.64C621.91,303.17,628.28,304.27,632.13,308.12Z" transform="translate(-142.33 -25.61)" fill="#3f3d56"/><g opacity="0.1"><path d="M660.11,334.45c1,5.33,1,10.82,2.45,16.05a10.12,10.12,0,0,0,1.59,3.61c-.12-.35-.23-.71-.32-1.06-1.39-5.24-1.47-10.73-2.44-16.06a28.57,28.57,0,0,0-3.21-9.22A31.72,31.72,0,0,1,660.11,334.45Z" transform="translate(-142.33 -25.61)"/><path d="M682.25,367.52a5.14,5.14,0,0,0-1.13,2,3.56,3.56,0,0,0,1,2.56c.09.12.17.24.26.35a1.56,1.56,0,0,1,0-.37,5.24,5.24,0,0,1,1.13-1.94c1.56-2.29,1.07-5.5-.61-7.72A6.17,6.17,0,0,1,682.25,367.52Z" transform="translate(-142.33 -25.61)"/><path d="M673.18,403.54a5.47,5.47,0,0,1-3.54,5.4c-2.61.94-5.59,0-7.82-1.61s-4.41-4.38-7.31-4.36c-3.64,0-5.8,4.2-9.2,5.5-3.19,1.23-6.84-.37-9.33-2.71s-4.22-5.37-6.51-7.9c-5.92-6.53-14.89-9.13-23.26-11.92s-17.16-6.57-21.49-14.22c.39.85.79,1.69,1.24,2.5,4.32,7.68,13.16,11.48,21.52,14.27s17.34,5.38,23.26,11.91c2.3,2.54,4,5.57,6.51,7.91s6.14,3.93,9.33,2.71c3.4-1.31,5.56-5.48,9.2-5.51,2.9,0,5,2.64,7.32,4.37s5.21,2.55,7.81,1.6,4.39-4.15,3.2-6.65A4.68,4.68,0,0,0,673.18,403.54Z" transform="translate(-142.33 -25.61)"/><path d="M690.91,384.87a5.47,5.47,0,0,1,.28,2.05,4.71,4.71,0,0,1-8.29,2.7c.71,2.2-1.47,4.49-3.77,4.8s-4.54-.73-6.63-1.74c-.06,1.25-.11,2.51-.17,3.76-1.92,1-4-1-5.47-2.55s-4.68-2.47-5.42-.42a2.65,2.65,0,0,0,.62,2.47,5.12,5.12,0,0,0,.55.59,1.84,1.84,0,0,1,.1-.52c.74-2,3.89-1.12,5.42.42s3.55,3.57,5.48,2.56c0-1.26.11-2.51.16-3.77,2.09,1,4.34,2,6.64,1.74s4.48-2.59,3.76-4.8a4.71,4.71,0,0,0,8.29-2.69A7.53,7.53,0,0,0,690.91,384.87Z" transform="translate(-142.33 -25.61)"/><path d="M580.88,364.5c-2.81-3.68-7.56-5.39-10.64-8.85a11.57,11.57,0,0,1-1.17-1.54,12.71,12.71,0,0,0,2.44,4.09c3.08,3.45,7.83,5.17,10.64,8.85a13.57,13.57,0,0,1,1.07,1.64A22.58,22.58,0,0,0,580.88,364.5Z" transform="translate(-142.33 -25.61)"/></g><path d="M599.79,362.39s2.33,25.88-8.28,33.72,22.7,29.28,22.7,29.28l25.25-5.52s-12.31-11.45-12.31-16.33,2.12-32.25,5.52-35.43S599.79,362.39,599.79,362.39Z" transform="translate(-142.33 -25.61)" fill="#fbbebe"/><path d="M592.41,362.39,586.64,375s-8.6,5.1-9.23,5.57-7.48,8.28-7.48,8.28l-16.87,10.82s-.41-.77-1-1.86a50.37,50.37,0,0,0-3.92-6.26c-1.43-1.59,0-18.45,0-18.45s3.34-3.82,2.15-10.66-1.35-33.73-1.35-33.73-1.27-22.6.48-27.37-4-19.89-4-19.89S529.2,265.33,530.31,262s13.53,0,13.53,0,4.93,2.55,7.47,2.71c1.54.09,9.77.13,16.08.14l7.47,0s5.25,18.29,4.62,20.2c-.13.37-.26.74-.38,1.1-.51,1.47-.9,2.78-.26,3.67.79,1.12,2.55,14.64,2.55,14.64l1.75,14.64s2.7,11.45,2.54,13.05-4.14,4.93-2.39,7.95,2.4,12.25,2.4,12.25,2.92,6.77,5.81,9.35A4.89,4.89,0,0,0,592.41,362.39Z" transform="translate(-142.33 -25.61)" fill="#2979ff"/><circle cx="476.92" cy="323.44" r="30.55" opacity="0.1"/><circle cx="476.92" cy="322.17" r="30.55" fill="#fbbebe"/><path d="M651.55,473.33c-2.76,3-3.39,32-1.76,34.58s-8.21,7.64-13.94,7.42S614.44,520,614.44,520s-31.41-8.49-38-4.24-15.91-7.64-13.15-11.88-3-10.18-3.82-12.51a18.67,18.67,0,0,1-.34-3v0c-.77-10.68-1.57-44.9-1.57-44.9V404.18l28.86-20.37a138.44,138.44,0,0,1,13.39,7.75,65.58,65.58,0,0,1,8.66,6.67c7.86,7.43,27.37,15.28,27.37,15.28s21.43,25.67,24.18,28.22S654.3,470.36,651.55,473.33Z" transform="translate(-142.33 -25.61)" fill="#fff"/><path d="M557.57,443.42V409.64s.88,61.53,1.57,78.68C558.37,477.64,557.57,443.42,557.57,443.42Z" transform="translate(-142.33 -25.61)" opacity="0.1"/><path d="M559.26,490.86a3.36,3.36,0,0,1,.22,1.78C559.41,492.94,559.33,492.28,559.26,490.86Z" transform="translate(-142.33 -25.61)" opacity="0.1"/><path d="M600,402.48a25.9,25.9,0,0,0-4.61,6.52c-1.59,3.5-37.82.64-37.82.64v-5.46l28.86-20.37a138.44,138.44,0,0,1,13.39,7.75C600,397.54,600,402.48,600,402.48Z" transform="translate(-142.33 -25.61)" opacity="0.1"/><path d="M559.26,488.31a3.37,3.37,0,0,1,.22,1.78C559.41,490.4,559.33,489.74,559.26,488.31Z" transform="translate(-142.33 -25.61)" opacity="0.1"/><path d="M592.41,362.39,586.64,375s-8.6,5.1-9.23,5.57-7.48,8.28-7.48,8.28l-16.87,10.82s-.41-.77-1-1.86c4.59-5.57,9.28-11.5,12-13.58,5.41-4.13-.16-4.61,0-5.41s11.94-5.09,15.12-8.11c2.59-2.47,9.79-7.28,12.34-9A4.89,4.89,0,0,0,592.41,362.39Z" transform="translate(-142.33 -25.61)" opacity="0.1"/><path d="M592.41,362.39s-10.07,6.52-13.25,9.54-15,7.32-15.12,8.12,5.41,1.27,0,5.41-18.61,23.54-23.39,25-37.38,15-37.38,15-10.66,10-12.25,10,9.7,10.82,9.7,10.82,10.18,8.12,11.3,9.39S541,472,541,472s4.78,1.43,5.25,2.86,6.84,5.41,6.84,5.41,7.11,8.17,6.42,11.08-1.91-83-1.91-83,36.23,2.86,37.82-.64a25.9,25.9,0,0,1,4.61-6.52s-.1-29.43-2.13-31.61S592.45,365.09,592.41,362.39Z" transform="translate(-142.33 -25.61)" fill="#2979ff"/><path d="M508.2,432.23s9.54,10.34,14,12.09a12.05,12.05,0,0,1,6.2,6.37s5.25,3,8.12,3.5,7.16,4.77,7.16,4.77,10.66,3,10.66,5.25,4.3,5.26,4.3,5.26l-1.07-61.1s-17.71,2.22-22.8,9.7S508.2,432.23,508.2,432.23Z" transform="translate(-142.33 -25.61)" opacity="0.1"/><path d="M529,438c.8-.48,22.52-28.46,22.52-28.46l4-.82s-10.31,15.44-10.15,16.71S529,438,529,438Z" transform="translate(-142.33 -25.61)" opacity="0.1"/><path d="M538.11,447.19s5.73-13.21,7.32-15.44,10.15-17.18,10.15-17.18a10.06,10.06,0,0,1,0,3.82C555.13,419.82,538.11,447.19,538.11,447.19Z" transform="translate(-142.33 -25.61)" opacity="0.1"/><path d="M576.45,348.7s-12.73,23.23-11.61,24.35S576.45,348.7,576.45,348.7Z" transform="translate(-142.33 -25.61)" opacity="0.1"/><path d="M580.91,357.93s-10.5,15.35-9.55,15.15S580.91,357.93,580.91,357.93Z" transform="translate(-142.33 -25.61)" opacity="0.1"/><path d="M571.36,270.27l-20.05,1.43s0-.65-.07-1.77c-.28-6.62-1.29-29.7-1.83-32.28-.64-3-1.28-8.43-1.28-8.43s-10.82-1.59-10.66-3.34-13.84-20.37-3.18-20c8.32.25,22.54,10.08,28.39,14.39a5.34,5.34,0,0,1,2.13,4.94,21.43,21.43,0,0,0-.18,3.8,53.3,53.3,0,0,1-.21,7.89c-.21,2.27-.12,4.87.9,6.69,1.48,2.65,3.67,13.64,5,20.67C570.94,267.73,571.36,270.27,571.36,270.27Z" transform="translate(-142.33 -25.61)" fill="#fbbebe"/><path d="M579.48,285.7l-.38,1.09c-4.35-4.31-31.6-7.06-31.6-7.06-2.39-2.78-.25-4,2.3-7.4,1.49-2,10.42-4.84,17.59-6.85h7.47S580.11,283.79,579.48,285.7Z" transform="translate(-142.33 -25.61)" opacity="0.1"/><path d="M571.36,270.27l-20.05,1.43s0-.65-.07-1.77c3.15-1.85,10.24-4.07,16.15-5.72h2.9C570.94,267.73,571.36,270.27,571.36,270.27Z" transform="translate(-142.33 -25.61)" opacity="0.1"/><path d="M579.48,285.06c-.13.37-.26.74-.38,1.1-4.35-4.32-31.6-7.07-31.6-7.07-2.39-2.78-.25-4,2.3-7.39,1.49-2,10.42-4.85,17.59-6.86l7.47,0S580.11,283.15,579.48,285.06Z" transform="translate(-142.33 -25.61)" fill="#2979ff"/><path d="M596.82,442.57s-2.23,42.8,0,44.87S596.82,442.57,596.82,442.57Z" transform="translate(-142.33 -25.61)" opacity="0.1"/><path d="M612.57,460.55s-.8,47.1,0,47.57S612.57,460.55,612.57,460.55Z" transform="translate(-142.33 -25.61)" opacity="0.1"/><path d="M631,466.12s3,32.46,5.73,33.73S631,466.12,631,466.12Z" transform="translate(-142.33 -25.61)" opacity="0.1"/><path d="M678.28,504.8a6.63,6.63,0,0,1-2.55-1c-2.7-1.75-5.73-20.53-9.7-23.07s-18.3-27.53-18.3-27.53-5.57-10-7.8-12.57-1.11-14-1.11-14-5.93-6.83-8.44-12.57a11.4,11.4,0,0,1-1.1-4.09s.85-2.51,4.24,0,11.66,13.16,13.89,13.95,4.93,2.39,8.28,6.21,4.93,4.46,4.93,4.46,3.82,9.7,3.66,12.09,1.27,18.61,3,20.05,4.61,14.47,4.61,14.47S677.17,499.57,678.28,504.8Z" transform="translate(-142.33 -25.61)" opacity="0.1"/><path d="M666.05,445.26c0-.2,0-.43,0-.66a6.23,6.23,0,0,1,.17,1.44A3.3,3.3,0,0,1,666.05,445.26Z" transform="translate(-142.33 -25.61)" opacity="0.1"/><path d="M679.16,499.93c-.65,1.13-1.26,2.16-1.78,3-2.63-2.71-5.59-20.39-9.44-22.85a18,18,0,0,1-3.5-3.93v-21a27,27,0,0,0,2-4.21c.47,5.68,1.55,14.1,2.79,15.12,1.75,1.43,4.61,14.48,4.61,14.48S677.26,492.58,679.16,499.93Z" transform="translate(-142.33 -25.61)" opacity="0.1"/><path d="M678.92,504.16a6.27,6.27,0,0,1-2.55-1c-2.71-1.75-5.73-20.52-9.71-23.07s-18.29-27.52-18.29-27.52-5.57-10-7.8-12.57-1.11-14-1.11-14-5.93-6.84-8.44-12.57a11.5,11.5,0,0,1-1.1-4.1s.84-2.5,4.24,0,11.66,13.16,13.89,13.95,4.93,2.4,8.27,6.22,4.93,4.45,4.93,4.45,3.82,9.71,3.66,12.09,1.28,18.62,3,20.05,4.61,14.48,4.61,14.48S677.81,498.93,678.92,504.16Z" transform="translate(-142.33 -25.61)" fill="#2979ff"/><circle cx="504.13" cy="416.97" r="2.15" fill="#3f3d56"/><circle cx="518.25" cy="436.3" r="2.15" fill="#3f3d56"/><path d="M677,456.21s-10.35-4.73-8.76-2.18S677,456.21,677,456.21Z" transform="translate(-142.33 -25.61)" opacity="0.1"/><path d="M677,463.1s-10.51-2.86-8.28-1.19S677,463.1,677,463.1Z" transform="translate(-142.33 -25.61)" opacity="0.1"/><path d="M675.26,470.66s-7.16-5.18-5.41-3.27S675.26,470.66,675.26,470.66Z" transform="translate(-142.33 -25.61)" opacity="0.1"/><path d="M682.73,476.14s-7.3,14.36-3.81,15.3S682.73,476.14,682.73,476.14Z" transform="translate(-142.33 -25.61)" opacity="0.1"/><path d="M578.79,711.77s-16.76,15.91-11.88,15.7S578.79,711.77,578.79,711.77Z" transform="translate(-142.33 -25.61)" opacity="0.1"/><path d="M555.24,733.84c.85,0,17.82-1.7,13.36-2.55S555.24,733.84,555.24,733.84Z" transform="translate(-142.33 -25.61)" opacity="0.1"/><path d="M637.76,709.23s18,.63,17.61,2.54S637.76,709.23,637.76,709.23Z" transform="translate(-142.33 -25.61)" opacity="0.1"/><path d="M634.79,716.44s10.39,7.85,12.73,5.3S634.79,716.44,634.79,716.44Z" transform="translate(-142.33 -25.61)" opacity="0.1"/><path d="M585,604a5.28,5.28,0,0,1-.66,1.61,1.63,1.63,0,0,1-.46.48c-2.13,1.48-7.64,4.24-8.49,4-.39-.1-1.91-.56-3.58-1-1.95-.57-4.11-1.18-4.92-1.29s-1.28-1.4-1.4-2.66,0-2.24.53-2.43a1.26,1.26,0,0,0,.45-.66,7.91,7.91,0,0,0,.28-.89l.08-.3c.28-1.16.51-2.63.67-3.84.09-.65.15-1.23.2-1.62,0-.21,0-.37,0-.46h0v-.08l1.4-.07,1.33,0c3.6-.15,9.78-.31,12.13.12,1,.2,1.77,1.2,2.21,2.54a11.7,11.7,0,0,1,.5,2.87A12.81,12.81,0,0,1,585,604Z" transform="translate(-142.33 -25.61)" fill="#fbbebe"/><path d="M657.65,611.39a1.48,1.48,0,0,0,0,.21c0,2.17-.15,3.81-.15,4.08,0,.84-22.06,6.79-27.57,6.36-3.62-.28-.93-2.76,1.09-5.32a8.39,8.39,0,0,0,1.6-2.71,2,2,0,0,0,0-1.09c-.11-.4-.21-.76-.28-1.09v0c-.52-2.29-.26-3,.28-3.56a4.24,4.24,0,0,0,.73-1.37,5.48,5.48,0,0,0,.31-1.42,4.3,4.3,0,0,0-.81-3.07c-1.7-2.26,6.37-3.47,6.37-3.47h15.33c1.5,0,2.3,2.12,2.7,4.86a.28.28,0,0,0,0,.09c.11.8.2,1.65.25,2.52s.09,1.64.1,2.44S657.65,610.58,657.65,611.39Z" transform="translate(-142.33 -25.61)" fill="#fbbebe"/><path d="M590.66,675.5s-17,4-15.27,3c.65-.41.8-1.79.74-3.35a22.26,22.26,0,0,0-.2-2.31c-.22-1.77-.54-3.25-.54-3.25s8.91-1.91,12.09-1.06a3.79,3.79,0,0,1,2.39,2.56,3.62,3.62,0,0,1,.13.35A14.55,14.55,0,0,1,590.66,675.5Z" transform="translate(-142.33 -25.61)" fill="#fbbebe"/><path d="M603.56,339.32c2.33-.79,4.38-2.21,6.62-3.23s4.85-1.64,7.12-.7a11.36,11.36,0,0,1,3.12,2.19c2,1.77,4,3.54,5.88,5.43a34.55,34.55,0,0,0,6.13,5.47c5.25,3.21,11.92,2.49,18,1.53a11.09,11.09,0,0,0,3.55-1c2.67-1.46,3.7-5,3.07-7.95s-2.54-5.52-4.57-7.79a64,64,0,0,0-20.87-15.44c-8.42-3.87-18.44-5.8-26.84-1.91a29.11,29.11,0,0,0-7,4.78c-2.92,2.6-10.47,9.21-8.8,13.68C590.81,339.41,599.21,340.78,603.56,339.32Z" transform="translate(-142.33 -25.61)" opacity="0.1"/><path d="M603.56,338.68c2.33-.78,4.38-2.21,6.62-3.23s4.85-1.63,7.12-.7a11.81,11.81,0,0,1,3.12,2.19c2,1.77,4,3.54,5.88,5.43a34.16,34.16,0,0,0,6.13,5.47c5.25,3.21,11.92,2.49,18,1.53a10.84,10.84,0,0,0,3.55-1c2.67-1.45,3.7-5,3.07-7.95s-2.54-5.52-4.57-7.79a63.85,63.85,0,0,0-20.87-15.43c-8.42-3.87-18.44-5.8-26.84-1.92a29.4,29.4,0,0,0-7,4.78c-2.92,2.6-10.47,9.22-8.8,13.69C590.81,338.78,599.21,340.15,603.56,338.68Z" transform="translate(-142.33 -25.61)" fill="#3f3d56"/><path d="M654,347.05a10.73,10.73,0,0,1-3.54,1c-6.08,1-12.74,1.67-18-1.53A34.55,34.55,0,0,1,626.3,341c-1.88-1.9-3.89-3.66-5.88-5.43a11.62,11.62,0,0,0-3.12-2.2c-2.28-.93-4.89-.32-7.13.71s-4.28,2.44-6.61,3.23c-4.35,1.46-12.75.09-14.63-4.92a3.75,3.75,0,0,1-.19-.75,4.15,4.15,0,0,0,.19,2c1.88,5,10.28,6.38,14.63,4.92,2.33-.79,4.38-2.21,6.61-3.23s4.85-1.64,7.13-.7a11.36,11.36,0,0,1,3.12,2.19c2,1.77,4,3.54,5.88,5.43a34.55,34.55,0,0,0,6.13,5.47c5.25,3.21,11.91,2.49,18,1.53a11,11,0,0,0,3.54-1c2.36-1.28,3.43-4.16,3.23-6.86A6.72,6.72,0,0,1,654,347.05Z" transform="translate(-142.33 -25.61)" opacity="0.1"/><path d="M567.86,595.5a41.32,41.32,0,0,1-1.11,5.69,47.48,47.48,0,0,0,1-5.76Z" transform="translate(-142.33 -25.61)" opacity="0.1"/><path d="M583.88,606.13c-2.13,1.48-7.64,4.24-8.49,4s-7-2.12-8.5-2.33-1.89-4.67-.87-5.09a1.26,1.26,0,0,0,.45-.66,8.64,8.64,0,0,1-.36.89c-1.16,2.5,1,4.67,1,4.67l8.82,2.28,8.31-4.54c2-2.75-.24-9.09-1.38-10.12s-14.77,0-14.77,0l-.3-.29h0v-.08l1.4-.07,1.33,0c3.6-.15,9.78-.31,12.13.12C586,595.52,586,604.65,583.88,606.13Z" transform="translate(-142.33 -25.61)" opacity="0.1"/><path d="M654.58,598.92H639.25s-8.07,1.21-6.37,3.47.38,5.22-.23,5.86-.87,1.49,0,4.67-8.24,8.7-2.73,9.12,27.57-5.52,27.57-6.36S658.68,598.92,654.58,598.92Zm2.07,16.46c0,.8-20.79,6.39-26,6s3.39-5.59,2.57-8.59-.58-3.8,0-4.4,1.82-3.4.22-5.53,6-3.27,6-3.27h14.45C657.77,599.58,656.65,614.58,656.65,615.38Z" transform="translate(-142.33 -25.61)" opacity="0.1"/><path d="M587.48,668.5c-3.18-.85-12.09,1.06-12.09,1.06s1.7,7.85,0,8.91,15.28-3,15.28-3S590.67,669.35,587.48,668.5Zm-11.83,9.8c1.64-1,0-8.61,0-8.61s8.61-1.84,11.68-1,3.07,6.76,3.07,6.76S574,679.32,575.65,678.3Z" transform="translate(-142.33 -25.61)" opacity="0.1"/><path d="M657.64,608.83l-25.27,3v0l25.17-5.42C657.59,607.2,657.63,608,657.64,608.83Z" transform="translate(-142.33 -25.61)" opacity="0.1"/><polygon points="489.81 585.62 516.06 579.97 516.62 582.43 489.81 585.62" fill="#3f3d56"/><path d="M657.65,611.39a1.48,1.48,0,0,0,0,.21L631,616.72a8.39,8.39,0,0,0,1.6-2.71Z" transform="translate(-142.33 -25.61)" opacity="0.1"/><polygon points="485.81 588.24 517.81 584.88 486.66 590.87 485.81 588.24" fill="#3f3d56"/><path d="M657.28,603.78l-23.59,1.68a5.48,5.48,0,0,1-.31,1.42l23.91-3Z" transform="translate(-142.33 -25.61)" opacity="0.1"/><polygon points="489.81 579.33 516.62 577.42 489.41 580.84 489.81 579.33" fill="#3f3d56"/><path d="M585.32,600.29l-18.49.6c.28-1.16.51-2.63.67-3.84l17.32.37A11.7,11.7,0,0,1,585.32,600.29Z" transform="translate(-142.33 -25.61)" opacity="0.1"/><polygon points="423.12 570.76 448.34 571.29 445.26 573.98 423.12 574.69 423.12 570.76" fill="#3f3d56"/><path d="M585,604a5.28,5.28,0,0,1-.66,1.61l-12.53,3.47c-1.95-.57-4.11-1.18-4.92-1.29s-1.28-1.4-1.4-2.66Z" transform="translate(-142.33 -25.61)" opacity="0.1"/><polygon points="419.81 579.13 449.19 577.42 422.25 584.88 419.81 579.13" fill="#3f3d56"/><path d="M590,671.41l-13.87,3.71a22.26,22.26,0,0,0-.2-2.31c3.87-.52,10.32-1.31,13.94-1.75A3.62,3.62,0,0,1,590,671.41Z" transform="translate(-142.33 -25.61)" opacity="0.1"/><path d="M572.74,672.63c.53-.21,19.84-2.54,19.84-2.54l-19.84,5.3Z" transform="translate(-142.33 -25.61)" fill="#3f3d56"/><circle cx="744.05" cy="95.31" r="21.63" fill="#2979ff"/><circle cx="840.06" cy="148.3" r="17.01" fill="#2979ff"/><circle cx="744.05" cy="95.31" r="21.63" opacity="0.4"/><circle cx="840.06" cy="148.3" r="17.01" opacity="0.4"/><circle cx="131.6" cy="148.3" r="54.59" fill="#2979ff"/><circle cx="131.6" cy="148.3" r="54.59" opacity="0.4"/><circle cx="835.04" cy="72.34" r="6" fill="#2979ff"/><circle cx="835.04" cy="72.34" r="6" opacity="0.4"/><path d="M461,788s6.22,8.13-2.87,20.41-16.58,22.64-13.55,30.3c0,0,13.71-22.8,24.87-23.12S473.25,801.72,461,788Z" transform="translate(-142.33 -25.61)" fill="#2979ff"/><path d="M461,788a10,10,0,0,1,1.27,2.55c10.89,12.8,16.69,24.74,6.23,25-9.75.27-21.45,17.71-24.25,22.11a9.16,9.16,0,0,0,.33,1s13.71-22.8,24.87-23.12S473.25,801.72,461,788Z" transform="translate(-142.33 -25.61)" opacity="0.1"/><path d="M472.53,798.38c0,2.86-.32,5.18-.72,5.18s-.71-2.32-.71-5.18.4-1.52.79-1.52S472.53,795.51,472.53,798.38Z" transform="translate(-142.33 -25.61)" fill="#ffd037"/><path d="M476.5,801.79c-2.51,1.37-4.71,2.2-4.89,1.85s1.69-1.74,4.2-3.11,1.52-.37,1.71,0S479,800.42,476.5,801.79Z" transform="translate(-142.33 -25.61)" fill="#ffd037"/><path d="M428.13,788s-6.22,8.13,2.87,20.41,16.58,22.64,13.55,30.3c0,0-13.71-22.8-24.87-23.12S415.85,801.72,428.13,788Z" transform="translate(-142.33 -25.61)" fill="#2979ff"/><path d="M428.13,788a10,10,0,0,0-1.27,2.55c-10.89,12.8-16.69,24.74-6.23,25,9.75.27,21.45,17.71,24.25,22.11a9.16,9.16,0,0,1-.33,1s-13.71-22.8-24.87-23.12S415.85,801.72,428.13,788Z" transform="translate(-142.33 -25.61)" opacity="0.1"/><path d="M416.57,798.38c0,2.86.32,5.18.72,5.18s.71-2.32.71-5.18-.4-1.52-.79-1.52S416.57,795.51,416.57,798.38Z" transform="translate(-142.33 -25.61)" fill="#ffd037"/><path d="M412.6,801.79c2.51,1.37,4.7,2.2,4.89,1.85s-1.69-1.74-4.2-3.11-1.52-.37-1.71,0S410.09,800.42,412.6,801.79Z" transform="translate(-142.33 -25.61)" fill="#ffd037"/><path d="M418.55,837.65s17.38-.53,22.62-4.27,26.75-8.18,28.05-2.2,26.12,29.76,6.49,29.92-45.6-3.06-50.83-6.24S418.55,837.65,418.55,837.65Z" transform="translate(-142.33 -25.61)" fill="#a8a8a8"/><path d="M476.06,859c-19.62.16-45.6-3.06-50.83-6.24-4-2.43-5.57-11.14-6.1-15.15l-.58,0s1.1,14,6.33,17.21,31.21,6.4,50.83,6.24c5.67,0,7.63-2.06,7.52-5.05C482.44,857.86,480.28,859,476.06,859Z" transform="translate(-142.33 -25.61)" opacity="0.2"/><path d="M814.54,850.19s-11.11-37.73,2.08-65.5a59.59,59.59,0,0,0,4.82-37.39,100.34,100.34,0,0,0-5.29-17.55" transform="translate(-142.33 -25.61)" fill="none" stroke="#535461" stroke-miterlimit="10" stroke-width="2"/><path d="M824.36,712.2c0,4.63-8.37,18-8.37,18s-8.38-13.41-8.38-18a8.38,8.38,0,0,1,16.75,0Z" transform="translate(-142.33 -25.61)" fill="#2979ff"/><path d="M838.2,737.82c-2.51,3.88-16.83,10.58-16.83,10.58s.26-15.8,2.77-19.68a8.37,8.37,0,0,1,14.06,9.1Z" transform="translate(-142.33 -25.61)" fill="#2979ff"/><path d="M837.59,781.59c-4.12,2.08-19.87.64-19.87.64s8.21-13.51,12.33-15.6a8.38,8.38,0,1,1,7.54,15Z" transform="translate(-142.33 -25.61)" fill="#2979ff"/><path d="M829.68,814.6c-3.72,2.75-19.48,4-19.48,4s5.8-14.7,9.52-17.45a8.37,8.37,0,1,1,10,13.46Z" transform="translate(-142.33 -25.61)" fill="#2979ff"/><path d="M803.79,749.3c3.32,3.22,18.77,6.56,18.77,6.56s-3.79-15.35-7.1-18.57a8.37,8.37,0,1,0-11.67,12Z" transform="translate(-142.33 -25.61)" fill="#2979ff"/><path d="M795,788c4.13,2.08,19.87.64,19.87.64s-8.2-13.51-12.33-15.6A8.38,8.38,0,0,0,795,788Z" transform="translate(-142.33 -25.61)" fill="#2979ff"/><path d="M791.67,826.84c3.71,2.75,19.47,4,19.47,4s-5.8-14.71-9.52-17.46a8.37,8.37,0,0,0-10,13.47Z" transform="translate(-142.33 -25.61)" fill="#2979ff"/><path d="M824.36,712.2c0,4.63-8.37,18-8.37,18s-8.38-13.41-8.38-18a8.38,8.38,0,0,1,16.75,0Z" transform="translate(-142.33 -25.61)" fill="#2979ff"/><path d="M838.2,737.82c-2.51,3.88-16.83,10.58-16.83,10.58s.26-15.8,2.77-19.68a8.37,8.37,0,0,1,14.06,9.1Z" transform="translate(-142.33 -25.61)" fill="#2979ff"/><path d="M837.59,781.59c-4.12,2.08-19.87.64-19.87.64s8.21-13.51,12.33-15.6a8.38,8.38,0,1,1,7.54,15Z" transform="translate(-142.33 -25.61)" fill="#2979ff"/><path d="M829.68,814.6c-3.72,2.75-19.48,4-19.48,4s5.8-14.7,9.52-17.45a8.37,8.37,0,1,1,10,13.46Z" transform="translate(-142.33 -25.61)" fill="#2979ff"/><path d="M803.79,749.3c3.32,3.22,18.77,6.56,18.77,6.56s-3.79-15.35-7.1-18.57a8.37,8.37,0,1,0-11.67,12Z" transform="translate(-142.33 -25.61)" fill="#2979ff"/><path d="M795,788c4.13,2.08,19.87.64,19.87.64s-8.2-13.51-12.33-15.6A8.38,8.38,0,0,0,795,788Z" transform="translate(-142.33 -25.61)" fill="#2979ff"/><path d="M791.67,826.84c3.71,2.75,19.47,4,19.47,4s-5.8-14.71-9.52-17.46a8.37,8.37,0,0,0-10,13.47Z" transform="translate(-142.33 -25.61)" fill="#2979ff"/><path d="M788.27,847.81s13.54-2.69,17.14-6.27,19.85-9.85,21.66-5.37,24.35,19.7,9,22.39-36.09,3.58-40.6,1.79S788.27,847.81,788.27,847.81Z" transform="translate(-142.33 -25.61)" fill="#a8a8a8"/><path d="M836.09,856.89c-15.34,2.69-36.09,3.59-40.6,1.8-3.43-1.37-5.82-7.92-6.77-11l-.45.09s2.71,10.75,7.22,12.54,25.26.9,40.6-1.79c4.42-.78,5.69-2.6,5.21-4.9C840.92,855.16,839.38,856.32,836.09,856.89Z" transform="translate(-142.33 -25.61)" opacity="0.2"/><path d="M311.59,111.38v.36a1.15,1.15,0,0,0,0,.19c0,.16,0,.31,0,.47v.1c0,.13,0,.26,0,.39V113a.13.13,0,0,1,0,.06l0,.36,0,.29-.09.7c0,.16-.05.31-.08.46v0a1.85,1.85,0,0,0,0,.23l0,.14a.5.5,0,0,1,0,.12c0,.08,0,.16-.05.24s0,.16-.05.24,0,.12,0,.18-.05.21-.07.31v0a1.6,1.6,0,0,1-.05.21,2.5,2.5,0,0,1-.07.26c0,.1-.05.21-.08.31a.24.24,0,0,0,0,.08c0,.11-.06.21-.1.32-.09.32-.2.65-.31,1,0,.1-.08.2-.11.3s-.05.12-.07.17a21.75,21.75,0,0,1-2.92,5.34l-.23.3a22.15,22.15,0,0,1-1.88,2.14L273.92,158l-31.2-31.2a22.23,22.23,0,0,1-2.45-2.91,21.48,21.48,0,0,1-1.27-2,22.11,22.11,0,0,1-2.67-12.54c0-.4.08-.8.14-1.2q.15-1,.39-2.1c0-.14.07-.28.11-.41l.06-.22,0-.12.09-.32h0c.07-.24.15-.48.23-.72s.07-.22.11-.33c.16-.47.34-.93.54-1.39l.12-.27.18-.41.32-.66,0,0h0c0-.1.1-.2.16-.3a2.68,2.68,0,0,1,.18-.33c.07-.14.15-.27.23-.41a2,2,0,0,0,.11-.2.41.41,0,0,0,.07-.11v0h0l.15-.24c.06-.09.11-.18.17-.26l.4-.6.14-.2.18-.25.19-.26.24-.31.21-.26.08-.1.15-.18a3.47,3.47,0,0,1,.25-.29,1.47,1.47,0,0,1,.1-.13l0,0,.18-.21.22-.23c.19-.21.39-.42.6-.62l.24-.24.37-.35.25-.23.3-.26.19-.17.2-.16.39-.32.2-.16c.34-.26.68-.51,1-.74l.2-.14.21-.14.2-.13.29-.18.15-.09.21-.13c.29-.16.58-.33.87-.48l.17-.09.27-.14.22-.1.23-.11.22-.11.22-.1.23-.1c.3-.13.61-.25.91-.36l.23-.09.24-.09.22-.07.18-.06.42-.14L252,90l.17-.05.17,0,.31-.09.4-.1c.41-.1.83-.19,1.25-.27l.17,0,.24,0,.24,0,.31,0,.18,0c.4,0,.8-.09,1.21-.12l.21,0H260c.33,0,.65.06,1,.09l.44.06.29,0,.24,0,.24,0,.16,0c.42.08.83.17,1.24.27l.51.13.14,0,.22.06.42.12.18.06.91.31.2.08.27.1.42.17.46.2.18.08.26.12.22.11.22.1.28.15.22.11.51.28.21.12.74.45.2.13.21.14.2.14h0l.14.09.87.64.2.16.39.32.2.16.19.17.3.26.25.23.37.35.24.24.25-.24c.12-.12.24-.24.37-.35a2.73,2.73,0,0,1,.25-.23l.29-.26.2-.17.19-.16.4-.32.2-.16c.34-.26.68-.51,1-.74l.21-.14.21-.14.2-.13.29-.18.15-.09.21-.13c.29-.16.58-.33.87-.48l.17-.09.27-.14.22-.1.22-.11.23-.11.22-.1.23-.1c.3-.13.6-.25.91-.36l.22-.09.25-.09.22-.07.18-.06.42-.14.21-.06.18-.05.17,0,.3-.09.4-.1q.63-.15,1.26-.27l.17,0,.24,0,.24,0,.3,0,.18,0c.4,0,.81-.09,1.21-.12l.22,0h3.13l1,.09.43.06.3,0,.24,0,.24,0,.16,0c.41.08.83.17,1.24.27l.51.13.14,0,.22.06.42.12.18.06.91.31.2.08.27.1.41.17.47.2.18.08.25.12.22.11.23.1.27.15.22.11.51.28.22.12.74.45.19.13.21.14L302,93h0l.13.09c.3.21.59.42.87.64a1.56,1.56,0,0,1,.2.16c.14.1.27.21.4.32l.2.16.19.17.26.22.25.23.14.14h0l0,0,.24.23.11.11.13.13.24.24.37.39a2.2,2.2,0,0,1,.2.23c.12.12.23.25.35.38l.36.43c.41.51.79,1,1.15,1.56A1.5,1.5,0,0,1,308,99a1.88,1.88,0,0,1,.16.23l.13.21.22.35.19.33.11.2.09.16.09.16.13.24.12.24c.29.56.55,1.14.79,1.72l.1.25c.09.24.18.48.26.72a2,2,0,0,1,.08.22c0,.11.07.21.1.31l.09.28.06.18c0,.09.05.17.07.25l.09.32c.05.17.09.35.13.52s.05.18.07.27.05.25.08.38a1,1,0,0,0,0,.17c0,.07,0,.14,0,.22l0,.17,0,.15,0,.13,0,.14c0,.09,0,.18,0,.27s0,.19,0,.28,0,.2,0,.3l0,.3,0,.16,0,.31s0,.1,0,.15,0,.21,0,.31v0a1.34,1.34,0,0,1,0,.2,1.34,1.34,0,0,1,0,.2c0,.11,0,.22,0,.33h0c0,.11,0,.22,0,.34Z" transform="translate(-142.33 -25.61)" fill="#ff6584"/><path d="M311.59,111.38v.36a1.15,1.15,0,0,0,0,.19c0,.16,0,.31,0,.47v.1c0,.13,0,.26,0,.39V113a.13.13,0,0,1,0,.06l0,.36,0,.29-.09.7c0,.16-.05.31-.08.46v0a1.85,1.85,0,0,0,0,.23l0,.14a.5.5,0,0,1,0,.12c0,.08,0,.16-.05.24s0,.16-.05.24,0,.12,0,.18-.05.21-.07.31v0a1.6,1.6,0,0,1-.05.21,2.5,2.5,0,0,1-.07.26c0,.1-.05.21-.08.31a.24.24,0,0,0,0,.08c0,.11-.06.21-.1.32-.09.32-.2.65-.31,1,0,.1-.08.2-.11.3s-.05.12-.07.17a22,22,0,0,0-5.85-20.77,22.36,22.36,0,0,0-3.77-3c-.4-.25-.8-.49-1.21-.71A22,22,0,0,0,276,95.81a21.19,21.19,0,0,0-2.88,2.43,24.18,24.18,0,0,0-2.7-2.3h0a22.91,22.91,0,0,0-2.28-1.44,22.09,22.09,0,0,0-21.25,0,22.84,22.84,0,0,0-3.14,2.09,22.37,22.37,0,0,0-4.26,4.52c-.44.62-.85,1.26-1.22,1.91v0a20.76,20.76,0,0,0-.94,1.89c-.16.35-.31.71-.45,1.07,0-.14.07-.28.11-.41l.06-.22,0-.12.09-.32h0c.07-.24.15-.48.23-.72s.07-.22.11-.33c.16-.47.34-.93.54-1.39l.12-.27.18-.41.32-.66,0,0h0c0-.1.1-.2.16-.3a2.68,2.68,0,0,1,.18-.33c.07-.14.15-.27.23-.41a2,2,0,0,0,.11-.2.41.41,0,0,0,.07-.11v0h0l.15-.24c.06-.09.11-.18.17-.26l.4-.6.14-.2.18-.25.19-.26.24-.31.21-.26.08-.1.15-.18a3.47,3.47,0,0,1,.25-.29,1.47,1.47,0,0,1,.1-.13l0,0,.18-.21.22-.23c.19-.21.39-.42.6-.62l.24-.24.37-.35.25-.23.3-.26.19-.17.2-.16.39-.32.2-.16c.34-.26.68-.51,1-.74l.2-.14.21-.14.2-.13.29-.18.15-.09.21-.13c.29-.16.58-.33.87-.48l.17-.09.27-.14.22-.1.23-.11.22-.11.22-.1.23-.1c.3-.13.61-.25.91-.36l.23-.09.24-.09.22-.07.18-.06.42-.14L252,90l.17-.05.17,0,.31-.09.4-.1c.41-.1.83-.19,1.25-.27l.17,0,.24,0,.24,0,.31,0,.18,0c.4,0,.8-.09,1.21-.12l.21,0H260c.33,0,.65.06,1,.09l.44.06.29,0,.24,0,.24,0,.16,0c.42.08.83.17,1.24.27l.51.13.14,0,.22.06.42.12.18.06.91.31.2.08.27.1.42.17.46.2.18.08.26.12.22.11.22.1.28.15.22.11.51.28.21.12.74.45.2.13.21.14.2.14h0l.14.09.87.64.2.16.39.32.2.16.19.17.3.26.25.23.37.35.24.24.25-.24c.12-.12.24-.24.37-.35a2.73,2.73,0,0,1,.25-.23l.29-.26.2-.17.19-.16.4-.32.2-.16c.34-.26.68-.51,1-.74l.21-.14.21-.14.2-.13.29-.18.15-.09.21-.13c.29-.16.58-.33.87-.48l.17-.09.27-.14.22-.1.22-.11.23-.11.22-.1.23-.1c.3-.13.6-.25.91-.36l.22-.09.25-.09.22-.07.18-.06.42-.14.21-.06.18-.05.17,0,.3-.09.4-.1q.63-.15,1.26-.27l.17,0,.24,0,.24,0,.3,0,.18,0c.4,0,.81-.09,1.21-.12l.22,0h3.13l1,.09.43.06.3,0,.24,0,.24,0,.16,0c.41.08.83.17,1.24.27l.51.13.14,0,.22.06.42.12.18.06.91.31.2.08.27.1.41.17.47.2.18.08.25.12.22.11.23.1.27.15.22.11.51.28.22.12.74.45.19.13.21.14L302,93h0l.13.09c.3.21.59.42.87.64a1.56,1.56,0,0,1,.2.16c.14.1.27.21.4.32l.2.16.19.17.26.22.25.23.14.14h0l0,0,.24.23.11.11.13.13.24.24.37.39a2.2,2.2,0,0,1,.2.23c.12.12.23.25.35.38l.36.43c.41.51.79,1,1.15,1.56A1.5,1.5,0,0,1,308,99a1.88,1.88,0,0,1,.16.23l.13.21.22.35.19.33.11.2.09.16.09.16.13.24.12.24c.29.56.55,1.14.79,1.72l.1.25c.09.24.18.48.26.72a2,2,0,0,1,.08.22c0,.11.07.21.1.31l.09.28.06.18c0,.09.05.17.07.25l.09.32c.05.17.09.35.13.52s.05.18.07.27.05.25.08.38a1,1,0,0,0,0,.17c0,.07,0,.14,0,.22l0,.17,0,.15,0,.13,0,.14c0,.09,0,.18,0,.27s0,.19,0,.28,0,.2,0,.3l0,.3,0,.16,0,.31s0,.1,0,.15,0,.21,0,.31v0a1.34,1.34,0,0,1,0,.2,1.34,1.34,0,0,1,0,.2c0,.11,0,.22,0,.33h0c0,.11,0,.22,0,.34Z" transform="translate(-142.33 -25.61)" opacity="0.1"/></svg>