<svg id="b411f001-b16f-4358-a5a6-150c98662c8c" data-name="Layer 1" xmlns="http://www.w3.org/2000/svg" xmlns:xlink="http://www.w3.org/1999/xlink" width="987.62" height="787.4" viewBox="0 0 987.62 787.4"><defs><linearGradient id="74856d48-f61b-42c8-be79-e45253bc3d47" x1="903.3" y1="782.16" x2="903.3" y2="259.8" gradientUnits="userSpaceOnUse"><stop offset="0" stop-color="gray" stop-opacity="0.25"/><stop offset="0.54" stop-color="gray" stop-opacity="0.12"/><stop offset="1" stop-color="gray" stop-opacity="0.1"/></linearGradient></defs><title>science</title><path d="M165.23,801.37s-42.27-2.55-37.29,27.08c0,0-1,5.23,3.75,7.61,0,0,.08-2.2,4.34-1.45a19.36,19.36,0,0,0,4.59.22,9.57,9.57,0,0,0,5.62-2.32h0s11.88-4.91,16.51-24.33c0,0,3.42-4.24,3.28-5.33l-7.13,3s2.43,5.15.52,9.42c0,0-.24-9.23-1.61-9-.28.05-3.7,1.79-3.7,1.79s4.19,9,1,15.48c0,0,1.2-11.05-2.34-14.84l-5,2.94s4.91,9.26,1.58,16.81c0,0,.85-11.59-2.63-16.1l-4.55,3.55s4.6,9.13,1.79,15.39c0,0-.36-13.49-2.78-14.51,0,0-4,3.51-4.59,5,0,0,3.16,6.62,1.2,10.12,0,0-1.2-9-2.18-9,0,0-4,5.95-4.38,10,0,0,.17-6.08,3.41-10.61a11.89,11.89,0,0,0-6.07,3.14s.62-4.21,7.05-4.58c0,0,3.28-4.51,4.16-4.79,0,0-6.4-.53-10.28,1.19,0,0,3.41-4,11.45-2.17l4.5-3.67s-8.43-1.15-12,.12c0,0,4.11-3.51,13.21-.95l4.89-2.92s-7.19-1.55-11.47-1c0,0,4.52-2.44,12.9.2l3.5-1.57s-5.27-1-6.81-1.2-1.62-.59-1.62-.59a18.26,18.26,0,0,1,9.89,1.1S165.36,801.84,165.23,801.37Z" transform="translate(-106.19 -56.3)" fill="#2979ff"/><ellipse cx="29.92" cy="782.34" rx="29.92" ry="5.06" fill="#2979ff" opacity="0.1"/><path d="M1093.36,734.08s-23.84-1.44-21,15.26a4.08,4.08,0,0,0,2.12,4.3s0-1.24,2.44-.82a11.15,11.15,0,0,0,2.59.12,5.39,5.39,0,0,0,3.17-1.3h0s6.7-2.77,9.31-13.72c0,0,1.92-2.39,1.85-3l-4,1.72s1.37,2.9.29,5.32c0,0-.13-5.21-.9-5.09-.16,0-2.1,1-2.1,1s2.37,5,.59,8.72c0,0,.67-6.22-1.32-8.36l-2.84,1.65s2.77,5.23.89,9.49c0,0,.49-6.54-1.48-9.08l-2.57,2s2.6,5.14,1,8.68c0,0-.21-7.61-1.57-8.18a15.64,15.64,0,0,0-2.59,2.79s1.78,3.73.68,5.71c0,0-.68-5.07-1.24-5.09,0,0-2.23,3.35-2.46,5.65a12.18,12.18,0,0,1,1.92-6,6.69,6.69,0,0,0-3.42,1.78s.35-2.38,4-2.59c0,0,1.85-2.54,2.35-2.7,0,0-3.61-.3-5.8.67,0,0,1.93-2.24,6.46-1.22l2.53-2.07s-4.75-.65-6.76.07c0,0,2.32-2,7.44-.54l2.76-1.65a24.87,24.87,0,0,0-6.46-.55s2.54-1.38,7.27.11l2-.89s-3-.58-3.83-.67-.92-.33-.92-.33a10.32,10.32,0,0,1,5.58.62S1093.43,734.34,1093.36,734.08Z" transform="translate(-106.19 -56.3)" fill="#2979ff"/><ellipse cx="970.75" cy="698.79" rx="16.87" ry="2.85" fill="#2979ff" opacity="0.1"/><path d="M1044.34,779.55S1015.56,777.82,1019,798a4.93,4.93,0,0,0,2.56,5.19s0-1.5,3-1a13.14,13.14,0,0,0,3.13.15,6.52,6.52,0,0,0,3.82-1.58h0s8.09-3.34,11.23-16.56c0,0,2.33-2.89,2.24-3.63l-4.86,2.08s1.66,3.5.36,6.41c0,0-.16-6.29-1.09-6.14-.19,0-2.53,1.21-2.53,1.21s2.86,6.11.7,10.54c0,0,.82-7.52-1.59-10.09l-3.42,2s3.34,6.31,1.08,11.45c0,0,.58-7.89-1.8-11l-3.09,2.41s3.13,6.22,1.22,10.48c0,0-.25-9.18-1.9-9.87,0,0-2.71,2.38-3.12,3.37,0,0,2.15,4.51.82,6.89,0,0-.82-6.12-1.49-6.15,0,0-2.7,4.05-3,6.83a14.77,14.77,0,0,1,2.33-7.22,8.15,8.15,0,0,0-4.14,2.14s.42-2.86,4.8-3.11c0,0,2.23-3.08,2.83-3.27,0,0-4.36-.36-7,.81,0,0,2.33-2.7,7.8-1.47l3.06-2.5s-5.74-.79-8.17.08c0,0,2.8-2.39,9-.65l3.33-2s-4.89-1.05-7.8-.67c0,0,3.07-1.66,8.78.14l2.38-1.07s-3.59-.71-4.63-.82-1.11-.4-1.11-.4a12.43,12.43,0,0,1,6.73.75S1044.42,779.87,1044.34,779.55Z" transform="translate(-106.19 -56.3)" fill="#2979ff"/><ellipse cx="918.32" cy="748.62" rx="20.37" ry="3.44" fill="#2979ff" opacity="0.1"/><ellipse cx="805.49" cy="726.42" rx="92.33" ry="14.41" fill="#2979ff" opacity="0.1"/><ellipse cx="513.32" cy="767.92" rx="103.75" ry="10.41" fill="#2979ff" opacity="0.1"/><ellipse cx="198.99" cy="763.13" rx="78.75" ry="4.86" fill="#2979ff" opacity="0.1"/><path d="M445,90.55c29.21-26,75.07-31.33,116.8-29.26,131.09,6.51,249.42,69.8,351.78,141.39,37.06,25.91,73.54,53.84,97.59,89.53,49,72.64,34.44,173.28-33.64,233.13-23.17,20.36-51.25,36-80.08,49.81-51.26,24.61-106.57,44.36-164.74,50-41.49,4-83.49.75-124.73-4.85C492.74,604.66,379.63,570.1,284.83,511,243.25,485,204.05,452.8,186.91,410.85s-6.17-95.11,36.29-119.94c17.56-10.27,38.56-14.91,59.11-19.26,30.26-6.41,61-12.73,88.31-25.77,28.2-13.46,61.59-39.49,56-69.28C420.64,144.63,415.83,116.55,445,90.55Z" transform="translate(-106.19 -56.3)" fill="#2979ff" opacity="0.1"/><path d="M687.05,448.08V257.14h26v-57H526.75v57h26V448.08a189.38,189.38,0,0,0-122.14,177c0,104.55,84.76,189.3,189.31,189.3s189.3-84.75,189.3-189.3A189.37,189.37,0,0,0,687.05,448.08Z" transform="translate(-106.19 -56.3)" fill="#96b7fe" opacity="0.9"/><rect x="446.52" y="200.25" width="134.34" height="2.57" opacity="0.1"/><path d="M514,620s114-2,171-30.53,89.57-3.06,86.51,14.25-19.33,50.88-84.47,55S514,620,514,620Z" transform="translate(-106.19 -56.3)" fill="#2979ff"/><path d="M514,620s114-2,171-30.53,89.57-3.06,86.51,14.25-19.33,50.88-84.47,55S514,620,514,620Z" transform="translate(-106.19 -56.3)" opacity="0.1"/><path d="M465.18,601.7S453,770.65,612.75,773.7s158.77-170,158.77-170-59,64.11-198.46,11.19C573.06,614.93,500.8,595.59,465.18,601.7Z" transform="translate(-106.19 -56.3)" fill="#2979ff"/><path d="M771,604.31c-3.19,38.92-23.88,160.75-158.19,158.18C481.15,760,466.24,644.9,465.07,604.41c-.73,21.73-.08,166.45,147.71,169.28,159.79,3,158.77-170,158.77-170S771.35,603.94,771,604.31Z" transform="translate(-106.19 -56.3)" opacity="0.1"/><circle cx="507.53" cy="472.5" r="20.73" fill="#2979ff" opacity="0.3"/><circle cx="519.37" cy="389.57" r="12.83" fill="#2979ff" opacity="0.3"/><circle cx="490.74" cy="315.52" r="12.83" fill="#2979ff" opacity="0.3"/><path d="M487,544.79c-1.1,8.74-.88,19.68,6.93,23.76-6.55-3.42,20.3-42.2,16.49-50.12C502.27,501.53,488,536.67,487,544.79Z" transform="translate(-106.19 -56.3)" fill="#fff" opacity="0.2"/><circle cx="480.37" cy="85.01" r="20.73" fill="#2979ff" opacity="0.3"/><circle cx="542.56" cy="49.47" r="15.41" fill="#2979ff" opacity="0.3"/><circle cx="498.14" cy="8.01" r="8.01" fill="#2979ff" opacity="0.3"/><path d="M390,319.48H222.47v49.69H248V756.83a58.25,58.25,0,1,0,116.49,0V369.17H390Z" transform="translate(-106.19 -56.3)" fill="#96b7fe" opacity="0.9"/><path d="M286.81,457s41.46-14.81,53-4.28c0,0-16.79,24.68-32.25,23.69S286.81,457,286.81,457Z" transform="translate(-106.19 -56.3)" fill="#2979ff"/><path d="M286.81,457s41.46-14.81,53-4.28c0,0-16.79,24.68-32.25,23.69S286.81,457,286.81,457Z" transform="translate(-106.19 -56.3)" opacity="0.1"/><path d="M339.79,452.76V734.12a35.54,35.54,0,0,1-35.54,35.54h0a35.54,35.54,0,0,1-35.54-35.54V452.76s17.11-4.61,33.23,5.27S339.79,452.76,339.79,452.76Z" transform="translate(-106.19 -56.3)" fill="#2979ff"/><rect x="141.79" y="312.56" width="116.49" height="2.29" opacity="0.1"/><path d="M304.25,752.55h0A35.54,35.54,0,0,1,268.71,717v17.77a35.54,35.54,0,0,0,35.54,35.54h0a35.54,35.54,0,0,0,35.54-35.54V717A35.54,35.54,0,0,1,304.25,752.55Z" transform="translate(-106.19 -56.3)" opacity="0.1"/><circle cx="198.07" cy="361.59" r="7.24" fill="#2979ff" opacity="0.3"/><circle cx="221.76" cy="335.92" r="4.61" fill="#2979ff" opacity="0.3"/><circle cx="189.51" cy="326.71" r="4.61" fill="#2979ff" opacity="0.3"/><path d="M257,510.24c-1.1,8.74-.88,19.68,6.93,23.76-6.56-3.42,20.3-42.19,16.49-50.12C272.25,467,258,502.13,257,510.24Z" transform="translate(-106.19 -56.3)" fill="#fff" opacity="0.2"/><circle cx="213.09" cy="214.5" r="17.59" fill="#2979ff" opacity="0.3"/><circle cx="160.32" cy="184.34" r="13.08" fill="#2979ff" opacity="0.3"/><circle cx="198.01" cy="149.16" r="6.8" fill="#2979ff" opacity="0.3"/><path d="M1002.05,507.62s-15.35-76.34-9.48-85.84c0,0,.21-8.83-.14-20.08,0-.43,0-.86,0-1.3a26.53,26.53,0,0,0,3.22,1.88,26,26,0,0,0,17.57,2.27l-4.67-5.18c-1.11-1.24-2.28-2.57-2.52-4.21a9.17,9.17,0,0,1,1-4.55c4.41-11.15,4.68-25.18-3.86-33.69-7.18-7.16-8.94-16.4-16.7-22.93-5.7-4.79-8.83-11.81-11.79-18.58-2.5-5.74-5-11.52-6.45-17.6-1.12-4.75-1.56-9.66-3.1-14.3s-4.4-9.15-8.89-11.22a32.66,32.66,0,0,1-4.83-2.14c-1.92-1.29-3.07-3.39-4.45-5.22-7-9.31-30.6-3.83-41.76-.05a23.51,23.51,0,0,0-8.25,4.57l.1-.17.28-.41a14.78,14.78,0,0,0-3.12,3.48c-1.63,2.58-2.31,5.61-3.66,8.33-1.64,3.3-10.74,12.51-6.83,16.22a3.35,3.35,0,0,0,.91.6,8.15,8.15,0,0,0,4.61.46c-.06.13-.12.26-.17.39a27.26,27.26,0,0,0-2,10.31,27.9,27.9,0,0,0,28.14,27.65,28.52,28.52,0,0,0,8.62-1.32c.07.35.13.7.19,1.05,0,.15,0,.29.07.43l0,0-.49.69-.08-.13-14.59,20.4c-2.23,1.56-15.08,10.86-15.77,17.83-.76,7.63-1.52,16.57-1.52,16.57l-.1,1.91a5.76,5.76,0,0,1-4.64,1.26c-4.55-.75-4.55,16.76-4.55,16.76s-3,2.79-5.11.37-7.58,5.77-7.58,5.77l-34.49,1.49h0l-.79,0-1.86-5.76a2.43,2.43,0,0,0-3-1.54,1.94,1.94,0,0,0-.42.17l-.12.08a1.46,1.46,0,0,0-.24.17.69.69,0,0,0-.13.11,1.7,1.7,0,0,0-.19.19,1.47,1.47,0,0,0-.1.13l-.06.06h0a2.35,2.35,0,0,0-.34,2.08l1.6,4.94c-6.65,1.34-13.46,5.11-7.91,15.51l-28.12-5.19,9.1,7.63,47,9.7c-.62,1.12-.21,2.73,1.73,5,8.35,9.82,23.61,12.48,29.74,13.18a52.59,52.59,0,0,0,6,10.19l-.54,9.78s-15.52,74.59-18.37,78.38A44.23,44.23,0,0,0,872,559c-4.51,15.33-10.81,36.31-12.46,39.45-2.66,5-5.12,25.32-2.09,26.63.95.4,3.58.21,7.37-.08v1.68l-.17,63.75s.76,39.11-1.33,42.83-2.65,11.54-2.65,11.54-8.38,15.43-15,21.63l-.15.13-.21-1.46s-8,10.06-25.58,9.5c0,0-10.61,6.89,5.12,7.26s35.81-.56,35.81-.56,14-21.41,25.77-18.62v16.2h3.6V762.54a14.76,14.76,0,0,0,6.4-9.71,11.75,11.75,0,0,0-4.19-10.89,7,7,0,0,1-2.3-5.1l-.13.11c0-.32-.08-.65-.13-1-1-8.38-2.31-25.62,2.25-38.4,6.25-17.51,8.15-41.89,3.6-56.42A129.1,129.1,0,0,1,891.93,627c-.11-.61-.22-1.18-.31-1.72a71,71,0,0,1,9.23,1.89c10.56,2.9,33.63,3.44,53.33,3.29.05.54.11,1.1.17,1.67a60.66,60.66,0,0,0,2.22,11.6c2.46,7.46,3.6,40.22,3.6,40.22s3.19,26.95,1.45,37.93c-1,6.1-1.84,12.22-2.39,18.37v.12s-5.22,14.89-9,23c-.1.21-.19.41-.29.61a12.6,12.6,0,0,0-3,.65s-5.11,10.24-10.23,11.92-3.41,7.26,8.15,5.21,29-3.72,29-3.72l.76-10.43,3.55-4.44-.9,10.4,3.79-.74-.5-12.66,5.81-7.27s7-6.24-3.41-18.52v.26c-.11-.18-.22-.36-.34-.53l0-.06c-1.72-2.68-3.1-7.67-.58-16.53,4.55-16,7.2-30.53,7.2-30.53s10.17-38.91-2.06-57.33l.55,0a31.08,31.08,0,0,1-2.64-8.18c-.06-.34-.11-.69-.17-1,9-.52,17.93-2.16,25.16-5.68C1010,614.69,1005.65,522.33,1002.05,507.62Zm-114.83-64.4v.18l-1.87.09Zm-6.37.88a2,2,0,0,0-.84.4,8.31,8.31,0,0,0-1.46,3.82l-2.9-.66s-2-.43-5-.91l-1.39-1.39C873.12,445,877.08,444.57,880.85,444.1Z" transform="translate(-106.19 -56.3)" fill="url(#74856d48-f61b-42c8-be79-e45253bc3d47)"/><polygon points="870.61 703.96 869.5 717.14 873.21 716.39 872.65 702.11 870.61 703.96" fill="#1d2366"/><path d="M892.19,697.73C887.72,710.46,889,727.65,890,736c.37,3.09.71,5,.71,5s-6.68,15.22-7.24,15.78S863.79,769,863.79,769l-13.36,7.79s-13.55-5.94-7-8a9.87,9.87,0,0,0,3.5-2.39c6.48-6.18,14.69-21.55,14.69-21.55s.55-7.79,2.59-11.5,1.3-42.68,1.3-42.68l.17-63.54,0-8.28,25.42.19a58.33,58.33,0,0,0,1.1,8.37,129.44,129.44,0,0,0,3.54,14.08C900.16,656,898.31,680.28,892.19,697.73Z" transform="translate(-106.19 -56.3)" fill="#ffb0b1"/><path d="M890.7,741s-6.68,15.22-7.24,15.78S863.79,769,863.79,769l-13.36,7.79s-13.55-5.94-7-8a9.87,9.87,0,0,0,3.5-2.39l.58,4.06,4.46-.19L890,736C890.36,739.08,890.7,741,890.7,741Z" transform="translate(-106.19 -56.3)" opacity="0.1"/><path d="M890.24,736.88,851.92,771.4l-4.46.18-.92-6.49s-7.8,10-25.06,9.46c0,0-10.39,6.87,5,7.24s35.08-.56,35.08-.56,13.73-21.34,25.23-18.55v16.14h3.53V762.49a14.67,14.67,0,0,0,6.26-9.67,11.83,11.83,0,0,0-4.1-10.86A7,7,0,0,1,890.24,736.88Z" transform="translate(-106.19 -56.3)" fill="#1d2366"/><path d="M980.33,717.58c-2.47,8.83-1.12,13.8.56,16.47l0,.06A30.42,30.42,0,0,1,985.36,745l.16.84-17.44,25.42-9.46,3.71s-15.22-5.19-12.44-6.68c.7-.37,1.79-2.29,3-5,3.73-8,8.85-22.86,8.85-22.86v-.13c.53-6.13,1.39-12.23,2.34-18.31,1.7-10.93-1.42-37.79-1.42-37.79s-1.11-32.65-3.53-40.08a62,62,0,0,1-2.17-11.56c-.5-4.67-.61-8.48-.61-8.48s10-13.92,28.39,1.11a20.54,20.54,0,0,1,3.83,4.17c12.69,18,2.48,57.81,2.48,57.81S984.78,701.63,980.33,717.58Z" transform="translate(-106.19 -56.3)" fill="#ffb0b1"/><path d="M985.52,745.79l-17.44,25.42-9.46,3.71s-15.22-5.19-12.44-6.68c.7-.37,1.79-2.29,3-5,6.44,0,9.78,6.08,9.78,6.08l8.16-1.29s10.77-21.16,13.18-22.45.37-9.66.37-9.66v-2.13l.19.23,0,.06A30.42,30.42,0,0,1,985.36,745Z" transform="translate(-106.19 -56.3)" opacity="0.1"/><path d="M959.54,769.91s-4.64-8.53-13.54-5.38c0,0-5,10.21-10,11.88s-3.34,7.23,8,5.19,28.39-3.71,28.39-3.71l.74-10.39,11.5-14.66s6.87-6.22-3.34-18.46v2.13s2,8.35-.37,9.65-13.17,22.45-13.17,22.45Z" transform="translate(-106.19 -56.3)" fill="#1d2366"/><path d="M891.07,619.05a58.33,58.33,0,0,0,1.1,8.37c-10.47-1.54-20.18-.77-26.54-.28l0-8.28Z" transform="translate(-106.19 -56.3)" opacity="0.1"/><path d="M985.89,631.67s-14.88.72-32.6.87c-.5-4.67-.61-8.48-.61-8.48s10-13.92,28.39,1.11a20.54,20.54,0,0,1,3.83,4.17A24.42,24.42,0,0,0,985.89,631.67Z" transform="translate(-106.19 -56.3)" opacity="0.1"/><path d="M985.89,630s-65.13,3.15-85-2.41-39.52-.75-42.49-2.05-.55-21.52,2-26.53,16.89-55.67,16.89-55.67l13.73-71.63,14.48-4,1-.28,25.21-7,18.49-5.1s36.74,143.44,33.58,154a27,27,0,0,0-.53,12.45A31.19,31.19,0,0,0,985.89,630Z" transform="translate(-106.19 -56.3)" fill="#1d2366"/><path d="M843.2,422.72s-13,13.92-3.16,21.71,16.33.75,16.33.75Z" transform="translate(-106.19 -56.3)" fill="#c7daf5"/><path d="M843.2,422.72s-13,13.92-3.16,21.71,16.33.75,16.33.75Z" transform="translate(-106.19 -56.3)" opacity="0.1"/><path d="M948.32,331.06s-1.52,1.44-3.82,3.59c-3.27,3.05-8.11,7.52-12.41,11.27-6,5.18-10.85,9-9.1,5.73s1.42-8.89.55-14.18l-.18-1.05a97.29,97.29,0,0,0-2.88-11.49s9.61-12.42,14.93-17.32c2-1.83,3.37-2.61,3.44-1.33.1,1.74,1.41,5.54,3,9.66.06.12.11.25.16.37,1.08,2.77,2.29,5.66,3.36,8.13C947,328.23,948.32,331.06,948.32,331.06Z" transform="translate(-106.19 -56.3)" fill="#ffb0b1"/><path d="M942,316.31a27.6,27.6,0,0,1-18.48,21.16,95.43,95.43,0,0,0-3.06-12.54s18.09-23.38,18.37-18.65C939,308.08,940.34,312.06,942,316.31Z" transform="translate(-106.19 -56.3)" opacity="0.1"/><path d="M921.74,343.72l2.34-3.29s1.55,9.46,7.26,5.29,6,31.4,6,31.4L931.2,468.7l-44.26-2.65,1.25-44.25,5-22.27,12.39-32.43L913,356.39Z" transform="translate(-106.19 -56.3)" opacity="0.1"/><path d="M937.32,377.68l-5.54,82.8-.58,8.77-24.68-1.47-1-.06-18.61-1.11,1.25-44.26,5-22.26,12.39-32.43L913,356.94l8.77-12.66,2.34-3.3s1.55,9.47,7.26,5.29l.11-.08h0C937.05,342.61,937.32,377.68,937.32,377.68Z" transform="translate(-106.19 -56.3)" fill="#1d2366"/><path d="M893.85,392.29s-2.22,4.64-6.68,3.9-4.45,16.7-4.45,16.7-3,2.78-5,.37-7.42,5.75-7.42,5.75l-33.77,1.49s15,6.86,12.06,27.65c0,0,51-3.16,52.7-8S893.85,392.29,893.85,392.29Z" transform="translate(-106.19 -56.3)" fill="#fff"/><path d="M893.85,392.29s-2.22,4.64-6.68,3.9-4.45,16.7-4.45,16.7-3,2.78-5,.37-7.42,5.75-7.42,5.75l-33.77,1.49s15,6.86,12.06,27.65c0,0,51-3.16,52.7-8S893.85,392.29,893.85,392.29Z" transform="translate(-106.19 -56.3)" opacity="0.03"/><polygon points="689.5 375.14 698.41 382.75 771.71 398.15 762.61 388.88 689.5 375.14" fill="#fff"/><path d="M921.87,346.64c-1.21,1.82-4.69,11.38-7.61,19.69-2.42,6.92-4.45,13-4.45,13s-4.73,30.81-7.14,36.37S901.56,443,901.56,443l-9,53.63s-4.08,27.65-10.38,44.16C876,557,869,564.63,868.81,564.86c2.79-3.77,18-78.11,18-78.11l5-93.72s.74-8.9,1.49-16.51,15.77-18,15.77-18l14.52-20.65C925.08,339.9,924.1,343.3,921.87,346.64Z" transform="translate(-106.19 -56.3)" fill="#fff"/><path d="M884,467.07s-21.34-.92-31.73-13.36,23.94-5,23.94-5l8.9,2Z" transform="translate(-106.19 -56.3)" fill="#ffb0b1"/><path d="M983.85,609.4a27,27,0,0,0-.53,12.45c-23.32,1.66-48.27-4.66-48.27-4.66-4.64,4.27-16.89,10.58-16.89,10.58L911.48,545c-4.26-11.14-5.93-69.59-5.93-69.59s.38-3.06,1-7.64c0-.11,0-.23.05-.34,1.67-12.8,5-36.83,6.58-40.08,2.23-4.45-6.86-16.32-6.86-16.32l4.13-35.28.5-4.25c8.73-3.9,15.41-16.33,15.41-16.33l5.12-9h0c5.59-3.58,5.86,31.49,5.86,31.49l-5.54,82.8,18.49-5.1S987,598.82,983.85,609.4Z" transform="translate(-106.19 -56.3)" opacity="0.1"/><path d="M1007.79,615.15c-25.42,12.62-71.63.93-71.63.93-4.64,4.27-16.89,10.58-16.89,10.58l-6.68-82.77c-4.26-11.13-5.93-69.58-5.93-69.58s5.38-43.61,7.6-48.06c.65-1.3.34-3.23-.43-5.31a67.28,67.28,0,0,1-4.07-31.14l1.78-15.15.5-4.25c8.72-3.9,15.4-16.34,15.4-16.34l4.65-8.14,8.56-15,4.05-7.1.68.62,5.26,4.76s2.23,1.84,5.57,4.67c7.28,6.13,19.86,16.93,26.34,23.53,5.71,5.83,7.51,28.46,8,45.5.35,11.21.14,20,.14,20-5.76,9.46,9.27,85.55,9.27,85.55C1003.52,523.11,1007.79,615.15,1007.79,615.15Z" transform="translate(-106.19 -56.3)" fill="#fff"/><path d="M959,353.88s-17.45,33.22-15.4,45.83,7.79,26.91,5,30.25a10.26,10.26,0,0,1-8.17,4.08c-2.78.19-10.21,5.38-10.21,5.94s-6.86.56-13,3.16S902,447.22,902,447.22s-17.63-.56-19.3,1.11-3.34,11.69.19,19.67,7.42,13.92,10.39,15,21.71-5.19,36.92-6.68S962,462.81,962,462.81s18.18-6.5,21.34-17.45-3.9-71.07-3.9-71.07S974,346.27,959,353.88Z" transform="translate(-106.19 -56.3)" opacity="0.03"/><path d="M956.76,351.1s-17.44,33.21-15.4,45.83,7.79,26.91,5,30.25a10.26,10.26,0,0,1-8.17,4.08c-2.78.19-10.2,5.38-10.2,5.94s-6.87.55-13,3.15-15.22,4.08-15.22,4.08-17.63-.55-19.3,1.12-3.34,11.69.19,19.67,7.42,13.92,10.39,15,21.71-5.2,36.93-6.68S959.73,460,959.73,460s18.18-6.49,21.34-17.44-3.9-71.07-3.9-71.07S971.79,343.49,956.76,351.1Z" transform="translate(-106.19 -56.3)" opacity="0.03"/><path d="M958.43,352.21S941,385.43,943,398s7.79,26.91,5,30.25a10.23,10.23,0,0,1-8.17,4.08c-2.78.19-10.2,5.38-10.2,5.94s-6.87.56-13,3.16-15.22,4.08-15.22,4.08-17.63-.56-19.3,1.11-3.34,11.69.19,19.67,7.42,13.92,10.39,15,21.71-5.19,36.93-6.68,31.73-13.54,31.73-13.54,18.18-6.5,21.34-17.45-3.9-71.07-3.9-71.07S973.46,344.6,958.43,352.21Z" transform="translate(-106.19 -56.3)" fill="#fff"/><path d="M958.06,441.28s-13.92-2.78-9.09,1.86,4.82,8.72,10.76,8.53S958.06,441.28,958.06,441.28Z" transform="translate(-106.19 -56.3)" opacity="0.1"/><path d="M981.63,541.3s-6.31,4.27,5.75,14.1S981.63,541.3,981.63,541.3Z" transform="translate(-106.19 -56.3)" opacity="0.1"/><path d="M969.56,576.37c0,.56-2.22,20.41,6.13,25.42S969.56,576.37,969.56,576.37Z" transform="translate(-106.19 -56.3)" opacity="0.1"/><path d="M837.07,420.48c-6.72.23-21.27,2.29-13.73,16.35,6.67,12.44,17.87,4.13,24.14-2.19A23.73,23.73,0,0,0,837.07,420.48Z" transform="translate(-106.19 -56.3)" fill="#ffb0b1"/><path d="M848.19,433.91h0Z" transform="translate(-106.19 -56.3)" fill="#ffb0b1"/><path d="M847.59,434.53c.1-.09.19-.19.28-.28C847.78,434.34,847.69,434.44,847.59,434.53Z" transform="translate(-106.19 -56.3)" fill="#ffb0b1"/><path d="M956.21,334.42c-7.14,4.88-13.13,9-14.29,9.86-3.21,2.36-9.33,16.28-13.23,23.38-3.14,5.72-13.31,7.19-17.15,7.55L912,371c8.72-3.89,15.4-16.33,15.4-16.33l17.26-30.24,5.94,5.38S952.87,331.6,956.21,334.42Z" transform="translate(-106.19 -56.3)" opacity="0.1"/><path d="M956.21,333.87c-7.14,4.87-13.13,9-14.29,9.85-3.21,2.37-9.33,16.28-13.23,23.38-3.14,5.72-13.31,7.19-17.15,7.55l.5-4.25c8.72-3.9,15.4-16.34,15.4-16.34l17.26-30.24,5.94,5.38S952.87,331,956.21,333.87Z" transform="translate(-106.19 -56.3)" fill="#dce7ff"/><path d="M942.47,310.18a26.68,26.68,0,0,1-.61,5.76,27.17,27.17,0,0,1-4.24,9.86,27.56,27.56,0,1,1,4.85-15.62Z" transform="translate(-106.19 -56.3)" fill="#ffb0b1"/><path d="M990.58,402.9a24.48,24.48,0,0,1-8.89-9.56c-1.55-3.07-2.58-6.6-5.24-8.79-2.38-1.94-5.6-2.42-8.55-3.29-9.77-2.89-18-11.82-18.28-22-.14-4.79,1.35-9.58.67-14.32a15.79,15.79,0,0,0-3.11-7.39,22.89,22.89,0,0,0-2.68-2.89c-1.3-1.23-2.67-2.42-3.85-3.73a14.53,14.53,0,0,1-2-2.65,13.09,13.09,0,0,1-1.07-2.47c-1.82-5.68-.17-12.44-2.21-18.19,0-.1-.07-.21-.11-.31-.78-2.05-2.35-4.09-4.52-4.25s-4.06,1.65-6.14,2.47c-4.36,1.69-9.07-1.19-12.7-4.13s-7.73-6.3-12.36-5.64c-3.05.43-5.47,2.52-8.28,3.6a13.41,13.41,0,0,1-2,.56,27.56,27.56,0,0,1,53.13,10.27,26.68,26.68,0,0,1-.61,5.76c.06.12.11.25.16.37,1.08,2.77,2.29,5.66,3.36,8.13l5.26,4.76s2.23,1.84,5.57,4.67c7.28,6.13,19.86,16.93,26.34,23.53C988.26,363.23,990.06,385.86,990.58,402.9Z" transform="translate(-106.19 -56.3)" opacity="0.1"/><path d="M891,282.39c1.33-2.71,2-5.74,3.58-8.3,2.33-3.75,6.41-6.1,10.58-7.54,10.92-3.76,34-9.23,40.89,0,1.36,1.83,2.48,3.93,4.36,5.22a33.57,33.57,0,0,0,4.73,2.12c4.4,2.07,7.21,6.56,8.71,11.18s1.94,9.52,3,14.26c1.4,6.06,3.87,11.81,6.32,17.53,2.89,6.75,6,13.74,11.54,18.52,7.61,6.51,9.32,15.72,16.35,22.85,8.37,8.48,8.1,22.47,3.79,33.57a9.25,9.25,0,0,0-1,4.54,8.68,8.68,0,0,0,2.47,4.2l4.57,5.16a25.71,25.71,0,0,1-28.09-13c-1.56-3.07-2.59-6.6-5.25-8.78-2.38-1.95-5.59-2.42-8.55-3.3-9.77-2.89-18-11.82-18.28-22-.14-4.78,1.35-9.58.68-14.32A15.93,15.93,0,0,0,948.3,337c-2.57-3.34-6.42-5.61-8.5-9.27-3.52-6.21-.85-14.29-3.39-21-.78-2-2.34-4.09-4.52-4.25s-4.06,1.66-6.14,2.47c-4.36,1.69-9.06-1.19-12.69-4.13s-7.74-6.29-12.36-5.63c-3.06.43-5.47,2.51-8.29,3.59-2.08.8-6.3,1.52-8.13-.24C880.45,294.86,889.36,285.68,891,282.39Z" transform="translate(-106.19 -56.3)" fill="#591d4b"/><path d="M985.4,389.63c-1.55-3.07-2.58-6.6-5.24-8.79-2.38-1.95-5.6-2.42-8.55-3.29-9.77-2.89-18-11.82-18.28-22-.15-4.79,1.35-9.58.67-14.32a15.79,15.79,0,0,0-3.11-7.39c-2.56-3.34-6.42-5.62-8.49-9.28-3.53-6.21-.85-14.29-3.39-21-.78-2-2.34-4.09-4.52-4.25s-4.06,1.65-6.14,2.46c-4.36,1.7-9.07-1.18-12.69-4.12s-7.74-6.29-12.37-5.64c-3,.43-5.46,2.51-8.28,3.6-2.08.8-6.3,1.52-8.13-.24-3.83-3.7,5.08-12.88,6.69-16.16,1.33-2.71,2-5.74,3.58-8.3l.27-.42a14.71,14.71,0,0,0-3,3.48c-1.6,2.56-2.26,5.59-3.58,8.3-1.61,3.29-10.52,12.47-6.69,16.16,1.82,1.76,6,1,8.13.24,2.81-1.08,5.22-3.16,8.28-3.6,4.62-.65,8.73,2.7,12.36,5.64s8.34,5.82,12.69,4.13c2.09-.81,3.91-2.64,6.14-2.47s3.75,2.2,4.53,4.25c2.54,6.67-.14,14.75,3.38,21,2.08,3.65,5.94,5.93,8.5,9.27a15.79,15.79,0,0,1,3.11,7.39c.68,4.74-.82,9.53-.67,14.32.31,10.19,8.51,19.12,18.28,22,2.95.87,6.17,1.34,8.55,3.3,2.66,2.18,3.68,5.71,5.24,8.78a25.71,25.71,0,0,0,28.09,13l-2.15-2.44C999.17,403.4,989.68,398.06,985.4,389.63Z" transform="translate(-106.19 -56.3)" opacity="0.1"/><path d="M921.32,347.2c-1.22,1.82-4.7,11.38-7.61,19.68-2.72-1.05-5.2-7.81-5.2-7.81L923,338.42C924.52,340.46,923.54,343.86,921.32,347.2Z" transform="translate(-106.19 -56.3)" opacity="0.1"/><path d="M921.87,346.64c-1.21,1.82-4.69,11.38-7.61,19.69-2.72-1.05-5.19-7.81-5.19-7.81l14.52-20.65C925.08,339.9,924.1,343.3,921.87,346.64Z" transform="translate(-106.19 -56.3)" fill="#dce7ff"/><path d="M837.46,441.6l-8.05-25.35a2.38,2.38,0,0,1,1.54-3h0a2.36,2.36,0,0,1,3,1.54L842,440.16l-.8,5.31Z" transform="translate(-106.19 -56.3)" fill="#be8b87"/><path d="M830.17,414h0a2.38,2.38,0,0,1,3,1.55l8.05,25.35-.61,4,.59.61.8-5.31-8.05-25.35a2.36,2.36,0,0,0-3-1.54h0a2.32,2.32,0,0,0-1.23.91A2.28,2.28,0,0,1,830.17,414Z" transform="translate(-106.19 -56.3)" fill="#fff" opacity="0.1"/><polygon points="731.27 385.3 735.79 383.86 735.13 388.22 734.99 389.17 733.67 387.79 731.27 385.3" fill="#efc8c4"/><path d="M839.86,444.09a1.13,1.13,0,0,1,.29-.24.41.41,0,0,1,.43,0,1,1,0,0,1,.16.25.79.79,0,0,0,.58.39l-.14,1Z" transform="translate(-106.19 -56.3)" fill="#727a9c"/><path d="M829.37,425.23s16.15-.09,12.34,6.77-9.74,7.7-9.74,7.7Z" transform="translate(-106.19 -56.3)" fill="#ffb0b1"/></svg>