<svg id="f65dcaaa-a43f-44d9-8793-dc16a3dce27d" data-name="Layer 1" xmlns="http://www.w3.org/2000/svg" width="888" height="476.81476" viewBox="0 0 888 476.81476"><title>circuit_board</title><path d="M708.64179,375.66821a75.14,75.14,0,0,0-147.426-15.84214c-.91031-.03267-1.81983-.06924-2.73808-.06924a75.15811,75.15811,0,0,0-72.09559,53.969,53.10367,53.10367,0,0,0-63.01162,15.6736H657.75807c28.796,0,52.11117-23.851,50.9369-52.62306Q708.67238,376.22316,708.64179,375.66821Z" transform="translate(-156 -211.59262)" fill="#e6e6e6"/><path d="M156.09567,282.485a75.14,75.14,0,0,1,147.426-15.84215c.91031-.03266,1.81983-.06924,2.73809-.06924a75.15814,75.15814,0,0,1,72.09559,53.969A53.10362,53.10362,0,0,1,441.367,336.21627H206.9794c-28.796,0-52.11117-23.851-50.9369-52.62305Q156.06507,283.04,156.09567,282.485Z" transform="translate(-156 -211.59262)" fill="#e6e6e6"/><polygon points="336.372 145.025 151.746 145.025 59.433 304.916 151.746 464.807 336.372 464.807 428.685 304.916 336.372 145.025" fill="#2979ff"/><path d="M323.20031,649.63175H476.91769l76.85916-133.12314L476.91769,383.385H323.20031L246.34115,516.50861Z" transform="translate(-156 -211.59262)" fill="#fff"/><rect y="463.68648" width="888" height="2.24072" fill="#3f3d56"/><polygon points="697.681 58.277 705.704 81.008 692.332 107.751 669.601 68.974 697.681 58.277" fill="#a0616a"/><path d="M921.20691,544.65335c-4.39919,6.16423-38.32264,41.83934-61.01408,65.53365-6.298,6.56536-11.72682,12.22147-15.41728,16.05908-3.236,3.35625-5.13469,5.3219-5.13469,5.3219L829.385,610.12007l-4.45273-9.3065.06684-.08022,2.79468-3.57025,26.64935-34.09728,27.98651-35.7954-22.73152-45.463,28.08011-4.01144,18.66662,1.09647,4.0649.24067S927.89265,535.29331,921.20691,544.65335Z" transform="translate(-156 -211.59262)" fill="#2f2e41"/><path d="M842.31516,654.2995c-1.73828,1.73828-4.76024-.48135-8.03627-4.27889-6.77936-7.86244-14.69525-22.46407-14.69525-22.46407l-9.36-20.05723c1.00286-5.99047,10.17568-6.75258,14.77547-6.766,1.56444,0,2.60746.08022,2.60746.08022l.77557,1.14993,16.39345,24.28258S847.66375,648.95091,842.31516,654.2995Z" transform="translate(-156 -211.59262)" fill="#2f2e41"/><path d="M844.77555,626.24608s2.8882,22.70483-2.46039,28.05342c-1.73828,1.73828-4.76024-.48135-8.03627-4.27889L829.385,610.12007l-1.00286-8.15657-.58835-4.8004,26.64935-34.09728,5.74973,47.12118C853.89483,616.75236,848.466,622.40847,844.77555,626.24608Z" transform="translate(-156 -211.59262)" opacity="0.2"/><polygon points="707.295 277.409 703.698 270.215 731.778 266.203 750.445 267.3 750.498 267.54 707.295 277.409" opacity="0.2"/><polygon points="671.607 208.706 662.246 208.706 664.921 296.958 683.641 449.393 714.395 449.393 701.024 339.746 707.71 278.238 754.51 267.54 741.138 206.032 671.607 208.706" fill="#2f2e41"/><path d="M842.31516,656.9738s-2.6743,18.72008-1.33715,20.05722,2.6743,2.6743,2.6743,5.3486,16.04578,9.36,24.06867,4.01144,2.67429-13.37148,2.67429-13.37148l-8.02289-16.04578Z" transform="translate(-156 -211.59262)" fill="#2f2e41"/><circle cx="680.96657" cy="52.2596" r="22.73152" fill="#a0616a"/><polygon points="694.338 88.363 676.849 81.338 666.258 212.717 739.801 218.066 714.395 83.014 703.03 72.343 694.338 88.363" fill="#e6e6e6"/><path d="M830.52235,288.96215l-13.613,10.99307L791.50353,313.3267l9.36,84.24034,1.33715,48.13734s-17.38292,42.78874-4.01144,53.48593,28.08011,6.68574,25.40581-16.04578-8.02288-38.7773,17.38293-62.846S844.13536,283.31767,830.52235,288.96215Z" transform="translate(-156 -211.59262)" fill="#2f2e41"/><path d="M857.64776,281.10875l16.759,10.82358,22.73152,12.03433L914.52117,496.516l-38.7773,12.03433S854.26028,286.33095,857.64776,281.10875Z" transform="translate(-156 -211.59262)" fill="#2f2e41"/><path d="M901.14968,440.35578s-20.05722,30.75441-5.34859,30.75441,18.72008-25.40581,18.72008-25.40581Z" transform="translate(-156 -211.59262)" fill="#a0616a"/><path d="M818.24649,440.35578s20.05723,30.75441,5.34859,30.75441S804.875,445.70438,804.875,445.70438Z" transform="translate(-156 -211.59262)" fill="#a0616a"/><path d="M838.30372,230.42351l-6.68575-4.01144,1.33715,2.67429-5.34859-1.33715,1.33715,1.33715-6.68574-1.33715,2.67429,2.6743s-10.69718,0-12.03433,10.69719l-6.68574,1.33714,2.67429,4.01145v4.01144l2.6743,2.6743v4.01144l2.6743,6.68575,2.67429-9.36s12.03434,2.67429,17.38293-8.02289c0,0,1.33715,4.01144,8.02289,2.6743l10.69719,18.72007s1.33714-8.29895,6.01716-9.49807,2.00573-11.8963,2.00573-11.8963-4.01145-4.01145-4.01145-6.68574-4.01144-5.3486-6.68574-5.3486-9.36-5.34859-9.36-5.34859Z" transform="translate(-156 -211.59262)" fill="#2f2e41"/><path d="M802.20071,314.66385l-6.22436-3.69127-4.47282,2.35412s-5.3486,2.6743-6.68574,12.03434-14.70864,66.85741-14.70864,66.85741-1.33714,9.36,5.3486,25.40581,32.09156,44.1259,32.09156,44.1259L831.618,441.69293,795.515,397.567l9.36-36.103Z" transform="translate(-156 -211.59262)" fill="#2f2e41"/><polygon points="730.441 92.374 741.138 92.374 758.521 157.894 763.87 239.46 738.464 230.1 738.464 171.266 730.441 92.374" fill="#2f2e41"/><rect x="184.70117" y="171.59439" width="2" height="82.55518" fill="#3f3d56"/><circle cx="185.70121" cy="258.894" r="5.69344" fill="#2979ff"/><rect x="227.40186" y="171.59439" width="2" height="82.55518" fill="#3f3d56"/><circle cx="228.40203" cy="258.894" r="5.69344" fill="#3f3d56"/><rect x="302.36572" y="171.59439" width="2" height="82.55518" fill="#3f3d56"/><circle cx="303.36569" cy="258.894" r="5.69344" fill="#3f3d56"/><circle cx="272.05176" cy="340.50001" r="5.69344" fill="#3f3d56"/><circle cx="156.2851" cy="288.31012" r="5.69344" fill="#3f3d56"/><polygon points="273.052 335.755 271.052 335.755 271.052 236.276 228.402 236.276 228.402 234.276 273.052 234.276 273.052 335.755" fill="#3f3d56"/><circle cx="198.98591" cy="376.55848" r="5.69344" fill="#2979ff"/><polygon points="199.986 371.814 197.986 371.814 197.986 272.334 155.336 272.334 155.336 270.334 199.986 270.334 199.986 371.814" fill="#3f3d56"/><circle cx="330.884" cy="331.95985" r="5.69344" fill="#2979ff"/><polygon points="331.884 327.215 329.884 327.215 329.884 227.736 302.417 227.736 302.417 225.736 331.884 225.736 331.884 327.215" fill="#3f3d56"/><polygon points="157.285 282.616 155.285 282.616 155.285 233.155 185.701 233.155 185.701 235.155 157.285 235.155 157.285 282.616" fill="#3f3d56"/><circle cx="228.87649" cy="398.85779" r="5.69344" fill="#3f3d56"/><polygon points="229.876 393.164 227.876 393.164 227.876 345.703 199.46 345.703 199.46 343.703 229.876 343.703 229.876 393.164" fill="#3f3d56"/><circle cx="301.46788" cy="356.63143" r="5.69344" fill="#3f3d56"/><polygon points="302.468 350.938 300.468 350.938 300.468 301.477 330.884 301.477 330.884 303.477 302.468 303.477 302.468 350.938" fill="#3f3d56"/></svg>