<svg id="bc263456-463a-4a26-ab4e-25ee29596588" data-name="Layer 1" xmlns="http://www.w3.org/2000/svg" width="1028.53157" height="752.52171" viewBox="0 0 1028.53157 752.52171"><title>Artificial intelligence</title><ellipse cx="512.25564" cy="706.43466" rx="256" ry="43" fill="#dee3f3" opacity="0.5"/><g opacity="0.45"><path d="M536.50242,332.70683a11.13153,11.13153,0,0,0,.10156,1.437A11.10222,11.10222,0,0,1,536.50242,332.70683Z" transform="translate(-85.73421 -73.73915)" fill="#2979ff"/><path d="M665.4182,301.81974c.01943.12832.04359.255.05858.38466C665.46179,302.07455,665.43763,301.94814,665.4182,301.81974Z" transform="translate(-85.73421 -73.73915)" fill="#2979ff"/><path d="M665.15009,300.54613c.03655.13345.07158.26751.10339.40295C665.22167,300.81349,665.18679,300.67981,665.15009,300.54613Z" transform="translate(-85.73421 -73.73915)" fill="#2979ff"/><path d="M665.28407,335.12387c-.04925.22063-.106.43827-.16809.6537C665.17823,335.56207,665.23482,335.34465,665.28407,335.12387Z" transform="translate(-85.73421 -73.73915)" fill="#2979ff"/><path d="M665.46424,334.06891c-.02875.23455-.063.46741-.1063.69721C665.40123,334.53632,665.43549,334.30361,665.46424,334.06891Z" transform="translate(-85.73421 -73.73915)" fill="#2979ff"/><path d="M542.46374,342.52344a11.12852,11.12852,0,0,1-2.36826-1.66576A11.09339,11.09339,0,0,0,542.46374,342.52344Z" transform="translate(-85.73421 -73.73915)" fill="#2979ff"/><path d="M540.00876,340.77876a11.14941,11.14941,0,0,1-.94476-1.00166A11.108,11.108,0,0,0,540.00876,340.77876Z" transform="translate(-85.73421 -73.73915)" fill="#2979ff"/><path d="M730.2483,552.17435a10.96842,10.96842,0,0,0-.47078-1.28645A10.9902,10.9902,0,0,1,730.2483,552.17435Z" transform="translate(-85.73421 -73.73915)" fill="#2979ff"/><path d="M724.74124,545.50687a11.11144,11.11144,0,0,1,1.26182.7694A11.05294,11.05294,0,0,0,724.74124,545.50687Z" transform="translate(-85.73421 -73.73915)" fill="#2979ff"/><path d="M727.219,547.27235a11.12718,11.12718,0,0,1,1.76717,2.13921A11.11432,11.11432,0,0,0,727.219,547.27235Z" transform="translate(-85.73421 -73.73915)" fill="#2979ff"/><path d="M726.04145,546.305a11.18356,11.18356,0,0,1,1.0503.85177A11.10885,11.10885,0,0,0,726.04145,546.305Z" transform="translate(-85.73421 -73.73915)" fill="#2979ff"/><path d="M729.68223,550.69013a11.02305,11.02305,0,0,0-.55459-1.04555A10.98029,10.98029,0,0,1,729.68223,550.69013Z" transform="translate(-85.73421 -73.73915)" fill="#2979ff"/><path d="M730.553,553.53987a11.01641,11.01641,0,0,0-.23508-1.09458A11.01153,11.01153,0,0,1,730.553,553.53987Z" transform="translate(-85.73421 -73.73915)" fill="#2979ff"/><path d="M1064.198,492.88264h-63.65252a11.05634,11.05634,0,0,0,4.76214-9.09309V454.56718a11.07409,11.07409,0,0,0-11.07405-11.07432h-73.265a11.07636,11.07636,0,0,0,7.70829-10.54977V403.72078a11.05593,11.05593,0,0,0-4.76219-9.09309h70.31894a11.07418,11.07418,0,0,0,11.07405-11.07438V354.33089a11.0741,11.0741,0,0,0-11.07405-11.07433H915.95674a11.07625,11.07625,0,0,0,7.70829-10.54977V303.48448a11.056,11.056,0,0,0-4.76219-9.09309h75.33074a11.07414,11.07414,0,0,0,11.07405-11.07438V254.09459a11.07409,11.07409,0,0,0-11.07405-11.07427H954.79831a11.07636,11.07636,0,0,0,7.70829-10.54977V203.24819a11.07426,11.07426,0,0,0-11.07438-11.07438H844.52678a11.07422,11.07422,0,0,0-11.07439,11.07438A11.07425,11.07425,0,0,0,822.378,192.17381H715.47257a11.06626,11.06626,0,0,0-10.035,6.41236,11.10133,11.10133,0,0,1,.21353,2.15612v29.22236a11.01333,11.01333,0,0,1-1.0358,4.65434,11.05327,11.05327,0,0,0,3.85312,6.42h27.45577a11.02609,11.02609,0,0,1,7.01358,2.5059h11.96976a11.07659,11.07659,0,0,0-7.70813,10.54966,11.103,11.103,0,0,0-.20668-2.09821c.00034.03942.00585.0775.00585.117v29.22231a11.05721,11.05721,0,0,1-.36119,2.76153,4.03049,4.03049,0,0,1,.47522.61113,11.15978,11.15978,0,0,0,.0868-1.39137,11.04008,11.04008,0,0,0,.18558,1.91381,3.26687,3.26687,0,0,1,.248,1.10874,11.0915,11.0915,0,0,0,4.32873,6.07054h-9.52466c.08535-.05935.16108-.13079.24471-.19248-.88452.02211-1.77523-.07455-2.66086-.08474a2.46037,2.46037,0,0,1-.92021-.19065,11.0625,11.0625,0,0,1-3.1765.46787l-65.60542,1.98129a11.05649,11.05649,0,0,0-4.76219,9.09309v29.22231a11.07625,11.07625,0,0,0,7.70829,10.54977l62.65932.52461a11.0685,11.0685,0,0,1,3.25044.48686,12.10869,12.10869,0,0,1,2.07.36364c.05212-.01147.10463-.01592.1568-.02667a11.00488,11.00488,0,0,0-1.91025-.82383h15.41631a11.07665,11.07665,0,0,0-7.70813,10.54972,11.12149,11.12149,0,0,0-.16887-1.91526,2.45884,2.45884,0,0,1-.24332.29744,11.118,11.118,0,0,1,.21136,2.14248v29.22237c0,1.35579.20083,1.02995.20083-.52461a11.05636,11.05636,0,0,0,4.76231,9.09309l39.0924,1.25295a11.02558,11.02558,0,0,1,3.92282.72834h9.40785a11.11855,11.11855,0,0,0-3.82706,4.68179,11.00537,11.00537,0,0,1,1.57077,5.66425V434.196a11.02874,11.02874,0,0,1-.92851,4.43168,11.10162,11.10162,0,0,0,6.1309,4.86514H797.0586a11.012,11.012,0,0,1-6.00445,1.77756H752.27377a11.05239,11.05239,0,0,0-5.07433,9.29676c0-3.9025-1.45378,34.5566-1.45378,34.5566,0,3.45412,60.34395,5.01181,60.34395,5.01181a11.02562,11.02562,0,0,1,4.45278.93869,7.74748,7.74748,0,0,1,1.91709-.165c-.02-.01414-.03753-.0314-.05768-.04537h9.52438A11.056,11.056,0,0,0,817.164,503.957a11.09135,11.09135,0,0,0-.12222-1.57907c-.05256.11988-.10657.23859-.16637.35273A11.0813,11.0813,0,0,1,817.164,505.21v27.96941a11.07429,11.07429,0,0,0,11.07438,11.07438H811.19473a11.01611,11.01611,0,0,1-5.10512,1.25295H736.67946a11.06661,11.06661,0,0,0-5.96926,9.82143v29.22231a11.07436,11.07436,0,0,0,11.07438,11.07438H848.69a11.07425,11.07425,0,0,0,11.07438-11.07438,11.07425,11.07425,0,0,0,11.07438,11.07438H977.74423a11.07425,11.07425,0,0,0,11.07438-11.07438V555.32814a11.07422,11.07422,0,0,0-11.07438-11.07438H1064.198a11.07425,11.07425,0,0,0,11.07438-11.07438V503.957A11.07418,11.07418,0,0,0,1064.198,492.88264ZM799.373,294.39139a11.05647,11.05647,0,0,0-4.76219,9.09309,11.05647,11.05647,0,0,0-4.76219-9.09309Zm-12.47048,48.86517a11.07625,11.07625,0,0,0,7.70829-10.54977,11.07625,11.07625,0,0,0,7.70829,10.54977ZM825.7441,243.02032a11.07635,11.07635,0,0,0,7.70829-10.54977,11.07636,11.07636,0,0,0,7.7083,10.54977Zm34.0203,312.30782A11.07422,11.07422,0,0,0,848.69,544.25376h22.14876A11.07422,11.07422,0,0,0,859.7644,555.32814Zm11.72689-62.4455a11.05625,11.05625,0,0,0,4.76219-9.09309,11.0565,11.0565,0,0,0,4.76247,9.09309Zm4.76219-38.31546a11.0765,11.0765,0,0,0-7.708-10.54971h15.4163A11.07675,11.07675,0,0,0,876.25348,454.56718Zm-4.76219-61.92078a11.05625,11.05625,0,0,0,4.76219-9.09309,11.0565,11.0565,0,0,0,4.76247,9.09309Zm4.76219-38.31551a11.07656,11.07656,0,0,0-7.708-10.54972h15.4163A11.0768,11.0768,0,0,0,876.25348,354.33089Zm-4.76219-61.92079a11.05624,11.05624,0,0,0,4.76219-9.09309,11.05649,11.05649,0,0,0,4.76247,9.09309Zm4.76219-38.31551a11.0765,11.0765,0,0,0-7.708-10.54966h15.4163A11.07675,11.07675,0,0,0,876.25348,254.09459Zm74.7269,240.76934a11.056,11.056,0,0,0-4.76219,9.09309,11.056,11.056,0,0,0-4.76219-9.09309Zm-15.83657,49.38983a11.07429,11.07429,0,0,0,11.07438-11.07438,11.07429,11.07429,0,0,0,11.07438,11.07438Z" transform="translate(-85.73421 -73.73915)" fill="#2979ff"/><path d="M747.19942,483.78958" transform="translate(-85.73421 -73.73915)" fill="#2979ff"/><path d="M730.7102,555.32814a11.13591,11.13591,0,0,0-.09957-1.41011A11.10716,11.10716,0,0,1,730.7102,555.32814Z" transform="translate(-85.73421 -73.73915)" fill="#2979ff"/><path d="M665.55662,332.70683c0,.35086-.02065.69675-.05261,1.03928C665.53613,333.40358,665.55662,333.05777,665.55662,332.70683Z" transform="translate(-85.73421 -73.73915)" fill="#2979ff"/><path d="M536.63028,334.35821a10.97009,10.97009,0,0,0,.283,1.317A10.96383,10.96383,0,0,1,536.63028,334.35821Z" transform="translate(-85.73421 -73.73915)" fill="#2979ff"/><path d="M412.69827,399.65363a2.5211,2.5211,0,0,1-.47255-.56063,2.7003,2.7003,0,0,1-.31414-.92411,22.36143,22.36143,0,0,0,.03418,2.27722,10.99975,10.99975,0,0,1,.51426,3.27467,11.00517,11.00517,0,0,1,.48574-3.18558,4.58082,4.58082,0,0,1-.23363-.77461C412.70473,399.72412,412.70489,399.68982,412.69827,399.65363Z" transform="translate(-85.73421 -73.73915)" fill="#2979ff"/><path d="M564.26961,192.17381H457.36416a11.07433,11.07433,0,0,0-11.07438,11.07438,11.07432,11.07432,0,0,0-11.07438-11.07438H328.31a11.07433,11.07433,0,0,0-11.07438,11.07438v29.22236a11.07636,11.07636,0,0,0,7.70829,10.54977H242.057a11.0743,11.0743,0,0,0-11.07438,11.07427V283.317a11.05634,11.05634,0,0,0,4.7623,9.09309H160.41419a11.07432,11.07432,0,0,0-11.07438,11.07438v29.22231a11.07436,11.07436,0,0,0,11.07438,11.07438h78.27656a11.07665,11.07665,0,0,0-7.70812,10.54972v29.22242a11.05635,11.05635,0,0,0,4.7623,9.09309H165.426a11.07432,11.07432,0,0,0-11.07438,11.07438v29.22231A11.07436,11.07436,0,0,0,165.426,444.01747h73.26476a11.07659,11.07659,0,0,0-7.70812,10.54971v29.22237A11.07436,11.07436,0,0,0,242.057,494.86393h63.65235a11.05644,11.05644,0,0,0-4.76219,9.09309v29.22236a11.0744,11.0744,0,0,0,11.07438,11.07438H225.56777a11.07432,11.07432,0,0,0-11.07438,11.07438v29.22231a11.07436,11.07436,0,0,0,11.07438,11.07438H332.47321a11.07436,11.07436,0,0,0,11.07438-11.07438A11.07436,11.07436,0,0,0,354.622,595.62483H461.52741a11.07436,11.07436,0,0,0,11.07438-11.07438V555.32814a11.06661,11.06661,0,0,0-5.96926-9.82143H443.58166a11.01605,11.01605,0,0,1-5.10512-1.25295H418.927a11.0744,11.0744,0,0,0,11.07439-11.07438c0,4.81871,2.5059-27.96941,2.5059-27.96941a11.07432,11.07432,0,0,1,11.07438-11.07438l40.747-1.25295a11.149,11.149,0,0,0,2.93457-3.02912,11.00313,11.00313,0,0,1-.879-4.28641V456.3448a11.01693,11.01693,0,0,1,1.83185-6.094,11.107,11.107,0,0,0-4.1995-4.98039H426.0403a11.01205,11.01205,0,0,1-6.00445-1.77756H404.75173A11.07636,11.07636,0,0,0,412.46,432.94309l-.39254-29.009c0-1.30735-.06971-2.46381-.12172-3.488a11.09369,11.09369,0,0,0-4.24793-5.81842h9.52438c-.07177.04994-.13519.11024-.20574.1618,5.39894-.30952,67.07451-3.92728,72.0886-7.963a8.69625,8.69625,0,0,1-.07355-2.31809,11.10193,11.10193,0,0,1-.14132-1.68346V353.6026c0-.36269.02016-.72065.05429-1.07444a11.08791,11.08791,0,0,0-7.56163-8.747h13.4766a11.0159,11.0159,0,0,1,5.10512-1.25295h30.5678a11.06444,11.06444,0,0,0,5.97-9.82143V303.48448a11.05647,11.05647,0,0,0-4.76219-9.09309l-31.77565-1.98129c-5.38468,0-8.94687-1.97232-6.11124,0h-9.52466a11.05458,11.05458,0,0,0,4.75818-9.02761,11.11622,11.11622,0,0,1-.19666-2.04677V252.11341c0-.024.00334-.0471.00368-.071a11.08609,11.08609,0,0,0-7.511-8.49744h11.56808a11.02615,11.02615,0,0,1,7.01364-2.5059h71.30914a11.04015,11.04015,0,0,0,4.07027-8.56848V203.24819A11.07433,11.07433,0,0,0,564.26961,192.17381ZM283.1562,294.39139a11.05647,11.05647,0,0,0-4.76219,9.09309,11.05647,11.05647,0,0,0-4.76219-9.09309Zm-4.76219,38.3154a11.07625,11.07625,0,0,0,7.70829,10.54977H270.68572A11.07625,11.07625,0,0,0,278.394,332.70679Zm9.774,61.9209a11.05637,11.05637,0,0,0-4.76219,9.09309,11.05637,11.05637,0,0,0-4.76219-9.09309Zm-12.47048,48.86517a11.07636,11.07636,0,0,0,7.70829-10.54977,11.07636,11.07636,0,0,0,7.70829,10.54977ZM412.21041,294.39139a11.05647,11.05647,0,0,0-4.76219,9.09309,11.05649,11.05649,0,0,0-4.76219-9.09309ZM343.54759,555.32814a11.07433,11.07433,0,0,0-11.07438-11.07438H354.622A11.07433,11.07433,0,0,0,343.54759,555.32814Zm11.72688-62.4455a11.0564,11.0564,0,0,0,4.76236-9.09309,11.05635,11.05635,0,0,0,4.7623,9.09309Zm4.76236-38.31546a11.07663,11.07663,0,0,0-7.70818-10.54971H367.745A11.07659,11.07659,0,0,0,360.03683,454.56718Zm-4.76236-61.92078a11.0564,11.0564,0,0,0,4.76236-9.09309,11.05635,11.05635,0,0,0,4.7623,9.09309Zm4.76236-38.31551a11.07669,11.07669,0,0,0-7.70818-10.54972H367.745A11.07665,11.07665,0,0,0,360.03683,354.33089Zm-4.76236-61.92079a11.05639,11.05639,0,0,0,4.76236-9.09309,11.05634,11.05634,0,0,0,4.7623,9.09309Zm4.76236-38.31551a11.07664,11.07664,0,0,0-7.70818-10.54966H367.745A11.07659,11.07659,0,0,0,360.03683,254.09459Zm39.70309,89.162a11.07625,11.07625,0,0,0,7.7083-10.54977,11.07624,11.07624,0,0,0,7.70829,10.54977Zm38.84157-100.23624a11.07635,11.07635,0,0,0,7.70829-10.54977,11.07636,11.07636,0,0,0,7.70829,10.54977Z" transform="translate(-85.73421 -73.73915)" fill="#2979ff"/><path d="M540.1429,295.293c.05261-.04765.104-.09628.15723-.14293C540.24675,295.19669,540.19551,295.24525,540.1429,295.293Z" transform="translate(-85.73421 -73.73915)" fill="#2979ff"/><path d="M539.40691,296.02666c-.05445.05973-.10951.11838-.16274.17918C539.2974,296.145,539.35261,296.08631,539.40691,296.02666Z" transform="translate(-85.73421 -73.73915)" fill="#2979ff"/><path d="M538.47805,297.17989c.02524-.03632.05354-.06989.07908-.10584C538.53143,297.11,538.50329,297.14364,538.47805,297.17989Z" transform="translate(-85.73421 -73.73915)" fill="#2979ff"/><path d="M536.979,335.90054a10.98883,10.98883,0,0,0,.46312,1.26588A10.98883,10.98883,0,0,1,536.979,335.90054Z" transform="translate(-85.73421 -73.73915)" fill="#2979ff"/><path d="M538.15977,338.53034a11.07742,11.07742,0,0,0,.81858,1.14031A11.06192,11.06192,0,0,1,538.15977,338.53034Z" transform="translate(-85.73421 -73.73915)" fill="#2979ff"/><path d="M537.49781,337.2832a11.01452,11.01452,0,0,0,.65553,1.236A10.99531,10.99531,0,0,1,537.49781,337.2832Z" transform="translate(-85.73421 -73.73915)" fill="#2979ff"/><path d="M536.80556,300.94908c.03182-.13544.06684-.2695.1034-.40295C536.87225,300.67981,536.83738,300.81349,536.80556,300.94908Z" transform="translate(-85.73421 -73.73915)" fill="#2979ff"/><path d="M537.17967,299.701c.04008-.1102.0774-.2217.12083-.33029C537.25707,299.4794,537.22005,299.59067,537.17967,299.701Z" transform="translate(-85.73421 -73.73915)" fill="#2979ff"/><path d="M536.58226,302.2044c.015-.1297.03915-.25634.05858-.38466C536.62141,301.94814,536.59725,302.07455,536.58226,302.2044Z" transform="translate(-85.73421 -73.73915)" fill="#2979ff"/><path d="M537.78963,298.3085c.00673-.01277.01193-.02638.01882-.03916C537.80156,298.28212,537.79636,298.29573,537.78963,298.3085Z" transform="translate(-85.73421 -73.73915)" fill="#2979ff"/><rect x="318.48852" y="192.17385" width="129.0542" height="51.37109" rx="8.83861" transform="translate(680.29703 361.97963) rotate(-180)" opacity="0.1"/><rect x="704.39818" y="192.17385" width="129.0542" height="51.37109" rx="8.83861" transform="translate(1452.11635 361.97963) rotate(-180)" opacity="0.1"/><rect x="876.0528" y="242.29198" width="129.0542" height="51.37109" rx="8.83861" transform="translate(1795.42559 462.21591) rotate(-180)" opacity="0.1"/><rect x="665.55662" y="292.41012" width="129.0542" height="51.37109" rx="8.83861" transform="translate(1374.43323 562.45218) rotate(-180)" opacity="0.1"/><rect x="876.0528" y="343.78121" width="129.0542" height="51.37109" rx="8.83861" transform="translate(1795.42559 665.19437) rotate(-180)" opacity="0.1"/><rect x="876.0528" y="444.01748" width="129.0542" height="51.37109" rx="8.83861" transform="translate(1795.42559 865.66691) rotate(-180)" opacity="0.1"/><path d="M938.15517,494.13559H825.227a8.062,8.062,0,0,0-7.73591,5.80289,5.153,5.153,0,0,1-.09131,1.35946,5.71266,5.71266,0,0,1-.22929.77177c-.00067.04338-.00651.08536-.00651.1289v35.24508a8.063,8.063,0,0,0,8.063,8.063H938.15517a8.063,8.063,0,0,0,8.063-8.063V502.19861A8.063,8.063,0,0,0,938.15517,494.13559Z" transform="translate(-85.73421 -73.73915)" opacity="0.1"/><rect x="730.7102" y="544.25376" width="129.0542" height="51.37109" rx="8.83861" transform="translate(1504.74039 1066.13946) rotate(-180)" opacity="0.1"/><rect x="359.83598" y="242.29198" width="129.0542" height="51.37109" rx="8.83861" transform="translate(762.99196 462.21591) rotate(-180)" opacity="0.1"/><rect x="279.64697" y="292.41012" width="129.0542" height="51.37109" rx="8.83861" transform="translate(602.61392 562.45218) rotate(-180)" opacity="0.1"/><rect x="230.78178" y="343.78121" width="129.0542" height="51.37109" rx="8.83861" transform="translate(504.88355 665.19437) rotate(-180)" opacity="0.1"/><rect x="283.40583" y="393.89935" width="129.0542" height="51.37109" rx="8.83861" transform="translate(610.13164 765.43064) rotate(-180)" opacity="0.1"/><rect x="230.78178" y="444.01748" width="129.0542" height="51.37109" rx="8.83861" transform="translate(504.88355 865.66691) rotate(-180)" opacity="0.1"/><rect x="172.39785" y="494.19117" width="129.0542" height="51.37109" rx="8.83861" transform="translate(388.1157 966.01429) rotate(-180)" fill="#2979ff"/><rect x="925.91541" y="393.8438" width="129.0542" height="51.37109" rx="8.83861" transform="translate(1895.1508 765.31954) rotate(-180)" fill="#2979ff"/><rect x="920.44191" y="292.58418" width="129.0542" height="51.37109" rx="8.83861" transform="translate(1884.20382 562.8003) rotate(-180)" fill="#2979ff"/><rect x="985.21158" y="543.45261" width="129.0542" height="51.37109" rx="8.83861" transform="translate(2013.74316 1064.53716) rotate(-180)" fill="#2979ff"/><rect x="85.73421" y="544.36486" width="129.0542" height="51.37109" rx="8.83861" transform="translate(214.78842 1066.36166) rotate(-180)" fill="#2979ff"/><rect x="103.06694" y="443.10524" width="129.0542" height="51.37109" rx="8.83861" transform="translate(249.45387 863.84242) rotate(-180)" fill="#2979ff"/><rect x="103.06694" y="343.67011" width="129.0542" height="51.37109" rx="8.83861" transform="translate(249.45387 664.97217) rotate(-180)" fill="#2979ff"/><rect x="107.62819" y="242.41049" width="129.0542" height="51.37109" rx="8.83861" transform="translate(258.57636 462.45292) rotate(-180)" fill="#2979ff"/><rect x="107.62819" y="242.41049" width="129.0542" height="51.37109" rx="8.83861" transform="translate(258.57636 462.45292) rotate(-180)" opacity="0.1"/><rect x="189.73058" y="192.2368" width="129.0542" height="51.37109" rx="8.83861" transform="translate(422.78116 362.10555) rotate(-180)" fill="#2979ff"/><rect x="302.20013" y="494.13562" width="129.0542" height="51.37109" rx="8.83861" transform="translate(647.72024 965.90319) rotate(-180)" opacity="0.1"/><rect x="214.49339" y="544.25376" width="129.0542" height="51.37109" rx="8.83861" transform="translate(472.30676 1066.13946) rotate(-180)" opacity="0.1"/></g><circle cx="810.33528" cy="28.92035" r="28.92035" fill="#2979ff" opacity="0.5"/><path d="M337.67334,155.093H330.7926a4.81652,4.81652,0,1,0,0-9.633H275.05866a4.81652,4.81652,0,1,0,0,9.633h6.88073a4.81651,4.81651,0,1,0,0,9.633h-9.633a4.81652,4.81652,0,0,0,0,9.633h55.73395a4.81652,4.81652,0,0,0,0-9.633h9.633a4.81651,4.81651,0,0,0,0-9.633Z" transform="translate(-85.73421 -73.73915)" fill="#dee3f3" opacity="0.5"/><path d="M892.40383,99.1841h-5.23666a3.66566,3.66566,0,0,0,0-7.33133h-42.417a3.66566,3.66566,0,0,0,0,7.33133h5.23667a3.66566,3.66566,0,1,0,0,7.33133h-7.33133a3.66566,3.66566,0,1,0,0,7.33133h42.417a3.66566,3.66566,0,1,0,0-7.33133h7.33133a3.66566,3.66566,0,1,0,0-7.33133Z" transform="translate(-85.73421 -73.73915)" fill="#dee3f3" opacity="0.5"/><path d="M469.67334,87.093H462.7926a4.81652,4.81652,0,1,0,0-9.633H407.05866a4.81652,4.81652,0,1,0,0,9.633h6.88073a4.81651,4.81651,0,1,0,0,9.633h-9.633a4.81652,4.81652,0,0,0,0,9.633h55.73395a4.81652,4.81652,0,0,0,0-9.633h9.633a4.81651,4.81651,0,0,0,0-9.633Z" transform="translate(-85.73421 -73.73915)" fill="#dee3f3" opacity="0.5"/><rect x="377.90507" y="264.74154" width="232.00944" height="107.59858" rx="12.9697" fill="#2979ff"/><rect x="396.39858" y="355.82608" width="195.02243" height="2.01747" opacity="0.1"/><rect x="396.39858" y="281.55382" width="195.02243" height="73.97403" opacity="0.3"/><circle cx="441.79173" cy="320.08463" r="26.89965" opacity="0.1"/><circle cx="546.02786" cy="320.08463" r="26.89965" opacity="0.1"/><rect x="473.73376" y="372.33709" width="40.34738" height="23.54304" fill="#2979ff"/><rect x="409.8484" y="389.1524" width="168.12279" height="134.49823" fill="#2979ff"/><rect x="406.48595" y="550.55027" width="174.8477" height="16.81228" fill="#2979ff"/><polygon points="435.067 607.712 435.067 627.887 435.067 658.149 435.067 674.961 435.067 685.048 465.329 685.048 465.329 674.961 465.329 658.149 465.329 627.887 465.329 607.712 465.329 584.175 435.067 584.175 435.067 607.712" fill="#2979ff"/><polygon points="525.853 584.175 525.853 607.712 525.853 627.887 525.853 658.149 525.853 674.961 525.853 685.048 556.115 685.048 556.115 674.961 556.115 658.149 556.115 627.887 556.115 607.712 556.115 584.175 525.853 584.175" fill="#2979ff"/><path d="M472.68294,493.15459v31.1a45.48981,45.48981,0,0,0-22.35428,10.77578A52.88313,52.88313,0,0,0,437.021,554.544c-3.89037,9.42495-5.78154,19.892-6.55344,29.78775a170.31725,170.31725,0,0,0,1.86031,39.96138H398.70379c-1.42805-18.58739-.9726-34.53493.87994-48.22848,2.07642-15.438,5.92052-28.00461,10.79123-38.22464,9.74141-20.43225,23.59708-31.51676,35.76995-37.5376C460.60269,493.15459,472.68294,493.15459,472.68294,493.15459Z" transform="translate(-85.73421 -73.73915)" fill="#2979ff"/><rect x="435.06682" y="584.17483" width="30.2621" height="23.53719" opacity="0.3"/><rect x="435.06682" y="627.88675" width="30.2621" height="30.2621" opacity="0.3"/><rect x="435.06682" y="674.96113" width="30.2621" height="10.08737" opacity="0.3"/><rect x="525.85313" y="584.17483" width="30.2621" height="23.53719" opacity="0.3"/><rect x="525.85313" y="627.88675" width="30.2621" height="30.2621" opacity="0.3"/><rect x="525.85313" y="674.96113" width="30.2621" height="10.08737" opacity="0.3"/><path d="M472.68294,493.15459v31.1a45.48981,45.48981,0,0,0-22.35428,10.77578l-4.18375-34.72791C460.60269,493.15459,472.68294,493.15459,472.68294,493.15459Z" transform="translate(-85.73421 -73.73915)" opacity="0.3"/><path d="M437.021,554.544c-3.89037,9.42495-5.78154,19.892-6.55344,29.78775l-30.88384-8.2671c2.07642-15.438,5.92052-28.00461,10.79123-38.22464Z" transform="translate(-85.73421 -73.73915)" opacity="0.3"/><path d="M686.60508,493.15459v31.1a45.48981,45.48981,0,0,1,22.35428,10.77578A52.883,52.883,0,0,1,722.267,554.544c3.89038,9.42495,5.78155,19.892,6.55345,29.78775a170.31788,170.31788,0,0,1-1.86031,39.96138h33.62409c1.428-18.58739.9726-34.53493-.87994-48.22848-2.07642-15.438-5.92053-28.00461-10.79123-38.22464-9.74141-20.43225-23.59708-31.51676-35.76995-37.5376C698.68533,493.15459,686.60508,493.15459,686.60508,493.15459Z" transform="translate(-85.73421 -73.73915)" fill="#2979ff"/><path d="M686.60508,493.15459v31.1a45.48981,45.48981,0,0,1,22.35428,10.77578l4.18375-34.72791C698.68533,493.15459,686.60508,493.15459,686.60508,493.15459Z" transform="translate(-85.73421 -73.73915)" opacity="0.3"/><path d="M722.267,554.544c3.89038,9.42495,5.78155,19.892,6.55345,29.78775l30.88384-8.2671c-2.07642-15.438-5.92053-28.00461-10.79123-38.22464Z" transform="translate(-85.73421 -73.73915)" opacity="0.3"/><rect x="473.73376" y="372.33709" width="40.34738" height="2.78656" opacity="0.1"/><path d="M666.693,486.85583v56.31033a11.73265,11.73265,0,0,1-3.1262-7.9815V494.8296A11.71348,11.71348,0,0,1,666.693,486.85583Z" transform="translate(-85.73421 -73.73915)" opacity="0.1"/><path d="M496.17966,490.56868v42.15365a11.721,11.721,0,0,1-3.13392,7.13238v-56.4184A11.721,11.721,0,0,1,496.17966,490.56868Z" transform="translate(-85.73421 -73.73915)" opacity="0.1"/><rect x="418.2571" y="523.65319" width="151.30842" height="1.99152" opacity="0.1"/><rect x="414.89162" y="567.36605" width="73.97147" height="1.54381" opacity="0.1"/><rect x="495.59405" y="567.36605" width="73.97147" height="1.54381" opacity="0.1"/><rect x="423.14326" y="165.16607" width="11.57854" height="99.57547" fill="#2979ff"/><rect x="555.91056" y="165.16607" width="11.57854" height="99.57547" fill="#2979ff"/><circle cx="428.54658" cy="165.93797" r="13.12235" opacity="0.1"/><circle cx="428.54658" cy="165.16607" r="13.12235" fill="#2979ff"/><circle cx="562.08578" cy="165.93797" r="13.12235" opacity="0.1"/><circle cx="562.08578" cy="165.16607" r="13.12235" fill="#2979ff"/><path d="M237.25652,543.95159s38.4,75.37778,7.11111,116.62222,2.84444,153.6,2.84444,153.6" transform="translate(-85.73421 -73.73915)" fill="none" stroke="#fc6681" stroke-miterlimit="10" stroke-width="2"/><path d="M248.6343,520.48492c0,14.53123-10.66667,26.31111-10.66667,26.31111S227.301,535.01615,227.301,520.48492s10.66667-26.31111,10.66667-26.31111S248.6343,505.9537,248.6343,520.48492Z" transform="translate(-85.73421 -73.73915)" fill="#fc6681"/><path d="M257.16763,543.95159s-38.4,75.37778-7.11111,116.62222-2.84445,153.6-2.84445,153.6" transform="translate(-85.73421 -73.73915)" fill="none" stroke="#ffd037" stroke-miterlimit="10" stroke-width="2"/><path d="M245.78985,520.48492c0,14.53123,10.66667,26.31111,10.66667,26.31111s10.66666-11.77988,10.66666-26.31111-10.66666-26.31111-10.66666-26.31111S245.78985,505.9537,245.78985,520.48492Z" transform="translate(-85.73421 -73.73915)" fill="#ffd037"/><path d="M272.81207,543.95159s38.4,75.37778,7.11111,116.62222,2.84445,153.6,2.84445,153.6" transform="translate(-85.73421 -73.73915)" fill="none" stroke="#fc6681" stroke-miterlimit="10" stroke-width="2"/><path d="M284.18985,520.48492c0,14.53123-10.66667,26.31111-10.66667,26.31111s-10.66666-11.77988-10.66666-26.31111,10.66666-26.31111,10.66666-26.31111S284.18985,505.9537,284.18985,520.48492Z" transform="translate(-85.73421 -73.73915)" fill="#fc6681"/><path d="M278.21009,580.88014C268.13556,591.352,252.28164,592.446,252.28164,592.446s.48011-15.88436,10.55464-26.35625,25.92845-11.56581,25.92845-11.56581S288.28461,570.40825,278.21009,580.88014Z" transform="translate(-85.73421 -73.73915)" fill="#fc6681"/><path d="M279.21009,632.88014C269.13556,643.352,253.28164,644.446,253.28164,644.446s.48011-15.88436,10.55464-26.35625,25.92845-11.56581,25.92845-11.56581S289.28461,622.40825,279.21009,632.88014Z" transform="translate(-85.73421 -73.73915)" fill="#fc6681"/><path d="M224.57774,661.49193c9.52657,10.97275,9.19481,26.8609,9.19481,26.8609s-15.77736-1.90218-25.30392-12.87492-9.19481-26.8609-9.19481-26.8609S215.05118,650.51919,224.57774,661.49193Z" transform="translate(-85.73421 -73.73915)" fill="#fc6681"/><path d="M233.41578,550.59363C245.52841,558.62112,249.455,574.02,249.455,574.02s-15.71182,2.38372-27.82445-5.64378-16.03926-23.42636-16.03926-23.42636S221.30315,542.56613,233.41578,550.59363Z" transform="translate(-85.73421 -73.73915)" fill="#fc6681"/><path d="M292.72318,543.95159s-38.4,75.37778-7.11111,116.62222-2.84444,153.6-2.84444,153.6" transform="translate(-85.73421 -73.73915)" fill="none" stroke="#ffd037" stroke-miterlimit="10" stroke-width="2"/><path d="M281.34541,520.48492c0,14.53123,10.66666,26.31111,10.66666,26.31111s10.66667-11.77988,10.66667-26.31111-10.66667-26.31111-10.66667-26.31111S281.34541,505.9537,281.34541,520.48492Z" transform="translate(-85.73421 -73.73915)" fill="#ffd037"/><path d="M284.41438,581.99808c-10.19935,10.35035-10.86986,26.22781-10.86986,26.22781s15.8659-.90377,26.06524-11.25412S310.47963,570.744,310.47963,570.744,294.61373,571.64772,284.41438,581.99808Z" transform="translate(-85.73421 -73.73915)" fill="#ffd037"/><path d="M304.41438,653.99808c-10.19935,10.35035-10.86986,26.22781-10.86986,26.22781s15.8659-.90377,26.06524-11.25412S330.47963,642.744,330.47963,642.744,314.61373,643.64772,304.41438,653.99808Z" transform="translate(-85.73421 -73.73915)" fill="#ffd037"/><path d="M274.98985,638.17381s23.11548-36.43526,55.55774-37.21763" transform="translate(-85.73421 -73.73915)" fill="none" stroke="#ffd037" stroke-miterlimit="10" stroke-width="2"/><path d="M256.98985,616.17381s-23.11548-36.43526-55.55774-37.21763" transform="translate(-85.73421 -73.73915)" fill="none" stroke="#fc6681" stroke-miterlimit="10" stroke-width="2"/><path d="M253.98985,668.17381s23.11548-36.43526,55.55774-37.21763" transform="translate(-85.73421 -73.73915)" fill="none" stroke="#ffd037" stroke-miterlimit="10" stroke-width="2"/><circle cx="243.75564" cy="526.93466" r="6" fill="#ffd037"/><circle cx="116.25564" cy="505.43466" r="6" fill="#fc6681"/><path d="M270.98985,680.17381s-23.11548-36.43526-55.55774-37.21763" transform="translate(-85.73421 -73.73915)" fill="none" stroke="#fc6681" stroke-miterlimit="10" stroke-width="2"/><circle cx="130.25564" cy="569.43466" r="6" fill="#fc6681"/><circle cx="224.25564" cy="557.43466" r="6" fill="#ffd037"/><path d="M398.76015,770.40724s-55.70315-11.14063-70.55732-25.9948-81.69795-40.849-89.125-22.28126-100.26567,81.69795-37.13544,92.83858,148.54173,14.85417,167.10945,7.42708S398.76015,770.40724,398.76015,770.40724Z" transform="translate(-85.73421 -73.73915)" fill="#a8a8a8"/><path d="M201.94235,808.07149c63.13022,11.14076,148.54168,14.85425,167.10942,7.42713,14.14032-5.65613,23.96606-32.83185,27.85133-45.47864,1.1758.25009,1.857.38721,1.857.38721s-11.14062,44.56247-29.70836,51.9896-103.9792,3.71363-167.10942-7.42713c-18.2232-3.21583-23.43458-10.76815-21.47145-20.32569C182.029,800.87986,188.37856,805.67793,201.94235,808.07149Z" transform="translate(-85.73421 -73.73915)" opacity="0.2"/><path d="M1000.3838,557.25976s13.34685,17.45357-6.16008,43.805-35.59157,48.59619-29.08927,65.02308c0,0,29.4315-48.93842,53.38737-49.62288S1026.73526,586.69126,1000.3838,557.25976Z" transform="translate(-85.73421 -73.73915)" fill="#fc6681"/><path d="M1000.3838,557.25976a21.618,21.618,0,0,1,2.72712,5.47371c23.37327,27.46194,35.82536,53.08957,13.35754,53.73151-20.92805.59794-46.0335,38.02065-52.04586,47.47157a20.28409,20.28409,0,0,0,.71185,2.15131s29.4315-48.93842,53.38737-49.62288S1026.73526,586.69126,1000.3838,557.25976Z" transform="translate(-85.73421 -73.73915)" opacity="0.1"/><path d="M1025.19524,579.5045c0,6.14271-.68949,11.12237-1.54,11.12237s-1.54-4.97966-1.54-11.12237.8606-3.25115,1.71113-3.25115S1025.19524,573.36179,1025.19524,579.5045Z" transform="translate(-85.73421 -73.73915)" fill="#ffd037"/><path d="M1033.70944,586.83825c-5.39356,2.93979-10.09589,4.71757-10.50294,3.97076s3.63533-3.73537,9.02889-6.67517,3.26652-.8003,3.67357-.05349S1039.103,583.89845,1033.70944,586.83825Z" transform="translate(-85.73421 -73.73915)" fill="#ffd037"/><path d="M929.8851,557.25976s-13.34684,17.45357,6.16008,43.805,35.59158,48.59619,29.08927,65.02308c0,0-29.43149-48.93842-53.38736-49.62288S903.53365,586.69126,929.8851,557.25976Z" transform="translate(-85.73421 -73.73915)" fill="#fc6681"/><path d="M929.8851,557.25976a21.61825,21.61825,0,0,0-2.72711,5.47371c-23.37327,27.46194-35.82536,53.08957-13.35754,53.73151,20.92805.59794,46.0335,38.02065,52.04586,47.47157a20.28415,20.28415,0,0,1-.71186,2.15131S935.703,617.14944,911.74709,616.465,903.53365,586.69126,929.8851,557.25976Z" transform="translate(-85.73421 -73.73915)" opacity="0.1"/><path d="M905.07367,579.5045c0,6.14271.68949,11.12237,1.54,11.12237s1.54-4.97966,1.54-11.12237-.86061-3.25115-1.71114-3.25115S905.07367,573.36179,905.07367,579.5045Z" transform="translate(-85.73421 -73.73915)" fill="#ffd037"/><path d="M896.55946,586.83825c5.39357,2.93979,10.0959,4.71757,10.50294,3.97076s-3.63532-3.73537-9.02888-6.67517-3.26652-.8003-3.67357-.05349S891.1659,583.89845,896.55946,586.83825Z" transform="translate(-85.73421 -73.73915)" fill="#ffd037"/><path d="M909.324,663.804s37.31608-1.14931,48.5622-9.15752,57.40152-17.57047,60.19141-4.727,56.07913,63.87733,13.94947,64.21716S934.13651,707.57426,922.912,700.737,909.324,663.804,909.324,663.804Z" transform="translate(-85.73421 -73.73915)" fill="#a8a8a8"/><path d="M1032.779,709.66576c-42.12967.33992-97.89058-6.56229-109.11507-13.39959-8.548-5.207-11.95436-23.89077-13.09408-32.51075-.7893.03394-1.24576.04856-1.24576.04856s2.36352,30.09567,13.588,36.933,66.9854,13.73951,109.11507,13.3996c12.16116-.09808,16.36184-4.42484,16.13119-10.83316C1046.46885,707.17513,1041.83068,709.59278,1032.779,709.66576Z" transform="translate(-85.73421 -73.73915)" opacity="0.2"/></svg>