<svg id="a176bc44-7f51-41d5-a02f-4652bba7f458" data-name="Layer 1" xmlns="http://www.w3.org/2000/svg" xmlns:xlink="http://www.w3.org/1999/xlink" width="933.0987" height="737.1609" viewBox="0 0 933.0987 737.1609"><defs><linearGradient id="b7ff1900-2a50-4d41-b005-c7dffc487981" x1="611.67067" y1="818.58045" x2="611.67067" y2="81.41955" gradientUnits="userSpaceOnUse"><stop offset="0" stop-color="gray" stop-opacity="0.25"/><stop offset="0.53514" stop-color="gray" stop-opacity="0.12"/><stop offset="1" stop-color="gray" stop-opacity="0.1"/></linearGradient><linearGradient id="a149f93e-460d-45ce-bffe-3c9ed674ad89" x1="872.96875" y1="716.16825" x2="872.96875" y2="344.72985" xlink:href="#b7ff1900-2a50-4d41-b005-c7dffc487981"/></defs><title>Appreciation</title><path d="M686.17536,512.33578c-32.02173-65.11085-6.40435-121.68257,38.42607-161.176,61.90868-28.81955,122.75-16.01086,167.58039,41.62825,29.25359-17.096,66.49943-20.79725,97.13258-13.87608,23.63633-89.02592,1.50335-195.76223-77.39108-253.304C809.3,50.75941,665.43087,73.27541,590.58241,175.89863,487.95912,101.05011,344.09,123.56611,269.24151,226.18927s-52.3326,246.49245,50.2907,321.341L691.16382,818.58045l98.54846-136.5295Z" transform="translate(-133.45065 -81.41955)" fill="url(#b7ff1900-2a50-4d41-b005-c7dffc487981)"/><path d="M893.59045,401.696A114.94392,114.94392,0,1,0,695.111,517.68876L811.10368,716.16825l198.47949-115.99272A114.94392,114.94392,0,1,0,893.59045,401.696Z" transform="translate(-133.45065 -81.41955)" fill="url(#a149f93e-460d-45ce-bffe-3c9ed674ad89)"/><path d="M892.63253,405.348A109.60453,109.60453,0,0,0,703.37284,515.95262l110.6046,189.25969,189.2597-110.60461A109.60453,109.60453,0,1,0,892.63253,405.348Z" transform="translate(-133.45065 -81.41955)" fill="#e53935"/><path d="M1001.23715,595.60767A109.60178,109.60178,0,0,0,891.10037,406.08246l108.97211,190.20587Z" transform="translate(-133.45065 -81.41955)" opacity="0.2"/><path d="M981.89322,374a122.4019,122.4019,0,0,0-89.02008,13.76,122.8312,122.8312,0,0,0-212.1,123.95l97.45,166.76-90.37,123.92-185.57-135.35,15.63-9.13a139.62694,139.62694,0,0,0-124.86-249.14,141.39542,141.39542,0,0,0-16.04,8.05,139.62161,139.62161,0,0,0-134.11-68.54,220.217,220.217,0,0,1,5.1-32.93c.28-1.2.58-2.41.88-3.62q1.8-7.125,4.07995-14.17c.12006-.36.23005-.73.36005-1.09.69-2.08,1.42-4.16,2.17-6.23.86-2.36,1.77-4.72,2.72-7.06.47-1.17.95-2.34,1.45-3.5q.72006-1.695,1.47-3.39a.91693.91693,0,0,1,.05-.1c.51-1.16,1.04-2.31,1.58-3.46.06-.14.12-.28.19-.41.48-1.02.96-2.03,1.46-3.04.56-1.15,1.13-2.29,1.71-3.43,1.23-2.43,2.52-4.83,3.86-7.23.48-.88.98-1.75,1.49-2.62.6-1.05,1.21-2.1,1.84-3.14.29-.48.58-.97.88-1.45q2.445-4.035,5.1-7.99.61506-.93,1.26-1.86c.58-.85,1.17-1.7,1.76-2.54.71-1,1.42-2,2.15-3,71.56-98.11,209.11005-119.64,307.22-48.08,71.56-98.11,209.11-119.64,307.23-48.08A219.96866,219.96866,0,0,1,981.89322,374Z" transform="translate(-133.45065 -81.41955)" fill="#2979ff"/><path d="M364.18171,436.62953a123.81349,123.81349,0,0,0-213.795,124.94321l124.94322,213.795,213.795-124.94321a123.81349,123.81349,0,0,0-124.94322-213.795Z" transform="translate(-133.45065 -81.41955)" fill="#e53935"/><path d="M592.05313,188l-199,220.77a141.39542,141.39542,0,0,0-16.04,8.05,139.62161,139.62161,0,0,0-134.11-68.54,220.217,220.217,0,0,1,5.1-32.93c.28-1.2.58-2.41.88-3.62q1.785-7.125,4.07995-14.17c.12006-.36.23005-.73.36005-1.09q1.035-3.11994,2.17-6.23c.86-2.36,1.76-4.72,2.72-7.06.47-1.17.95-2.34,1.45-3.5q.72006-1.695,1.47-3.39a.91693.91693,0,0,1,.05-.1c.51-1.16,1.04-2.31,1.58-3.46.06-.14.12-.28.19-.41.48-1.02.96-2.03,1.46-3.04.56-1.15,1.13-2.29,1.71-3.43,1.23-2.43,2.52-4.83,3.86-7.23.48-.88.98-1.75,1.49-2.62.6-1.05,1.21-2.1,1.84-3.14.29-.48.58-.97.88-1.45q2.445-4.035,5.1-7.99.61506-.93,1.26-1.86c.58-.85,1.17-1.7,1.76-2.54.71-1,1.42-2,2.15-3,71.56-98.11,209.11005-119.64,307.22-48.08.1-.12.19-.25.29-.37Z" transform="translate(-133.45065 -81.41955)" opacity="0.2"/></svg>