<?xml version="1.0" encoding="UTF-8"?>
<svg xmlns="http://www.w3.org/2000/svg" version="1.1" viewBox="0 0 1823 575">
   <path style="fill:#2879fe"
      d="m 748.01,9.49 c 88.35997,4.381596 166.46126,65.775955 202.88,144.62 15.33376,33.90617 28.02546,70.99364 26.7275,108.55625 C 973.34851,295.43434 928.50427,310.05537 905.45,286.53 885.33179,264.76284 892.35205,231.53593 878.65362,206.28155 855.69885,142.33071 791.70031,88.285775 721.08214,96.263958 644.59197,104.19283 589.55503,175.48312 578.0685,247.91414 c -15.59535,82.68679 18.72471,179.69472 97.43221,217.83826 44.11417,22.03844 97.90613,14.84335 138.35195,-11.8374 33.64249,-16.09962 72.85655,23.41447 56.16263,56.91918 -15.68211,28.62536 -51.69712,37.11507 -80.36842,47.18238 -84.4571,23.6408 -178.48949,-10.80709 -233.36728,-77.85847 C 459.53092,367.24965 466.25985,180.82278 573.39641,76.962969 619.07877,31.706775 683.42906,5.2966662 748.01,9.49 Z" />
   <path style="fill:#2879fe"
      d="m 1051.97,13.25 c 87.5034,-1.307661 168.5974,54.751517 209.0024,130.61539 63.4687,113.7749 44.5604,269.43195 -50.793,359.99274 -44.9356,42.98134 -107.7323,69.36966 -170.2961,64.9389 -29.5103,-3.74209 -46.66401,-41.03735 -29.8024,-65.67328 12.4607,-21.95123 39.4562,-20.70648 61.2492,-21.53781 64.5017,-10.20149 113.3292,-65.45292 130.7852,-126.23623 24.6355,-81.1189 0.8817,-179.8999 -70.2581,-230.21735 C 1106.3401,106.27579 1074.5775,99.1793 1043.37,98.7 1012.3151,94.135541 996.69729,52.289632 1018.2011,28.864885 1026.403,19.005766 1039.1286,13.051064 1051.97,13.25 Z" />
   <path style="fill:#2879fe"
      d="m 1534.95,20.46 c 33.9472,1.869454 50.741,47.175311 27.98,71.51 -16.3195,17.44779 -18.1429,2.037766 -61.6703,29.49891 -83.9527,51.20927 -111.8285,167.20789 -74.298,255.49081 23.9915,62.80321 87.4563,114.26704 157.0957,107.02714 73.7331,-6.65126 129.2291,-72.87573 143.4339,-142.43186 11.4841,-53.83618 4.3723,-116.469 -25.7414,-163.20976 V 113.81 c 0,0 36.7283,-45.032186 66.807,-0.2056 84.3375,125.07534 56.3529,309.31816 -34.3793,389.36554 -59.294,59.37793 -151.9404,84.56789 -232.0751,56.92256 -96.5401,-31.00913 -162.65,-125.25114 -175.2351,-223.72828 C 1312.2269,231.72734 1352.7524,116.26287 1442.1,56.12 c 28.1136,-16.892483 59.2431,-35.100111 92.85,-35.66 z" />
   <path style="fill:#fec401"
      d="M 492.64821,69.163474 V 182.07031 c -0.11716,21.85778 -25.05801,36.40038 -49.44073,36.22603 -32.30713,-0.17591 -64.63496,0.3349 -96.92926,-0.40771 -20.33278,0.0102 -40.09883,-14.85752 -43.76344,-35.20359 -5.42682,-23.10474 11.79728,-49.15639 35.46201,-52.20891 h 67.67143 c 0.15547,-21.94049 -8.47076,-48.074506 0.2056,-66.807002 4.04475,-18.114948 21.89224,-36.554533 44.31346,-36.698779 30.26604,-0.194716 42.32001,20.991824 42.48093,42.193125 z" />
   <path style="fill:#fec401"
      d="m 1090.755,154.1675 -0.064,282.83249 c 0.1414,23.84447 -24.8716,39.89603 -44.7969,39.58854 -19.2619,-0.29726 -42.4405,-14.49469 -42.1039,-39.58854 -0.7727,-94.85228 -0.089,-189.83687 -0.2448,-284.70551 0.2502,-30.37271 22.7813,-44.72929 43.5403,-44.531 21.2393,0.20288 44.1197,16.08156 43.6693,46.40402 z" />
   <path style="fill:#fec401"
      d="m 841.90904,212.74999 c 24.46525,1.2591 39.51091,25.00325 39.47277,44.94157 -0.0391,20.43879 -21.31361,40.47776 -41.52257,41.30843 h -217.1224 c -21.79033,-2.05412 -37.11513,-23.54436 -36.81236,-42.21141 0.32524,-20.05276 18.34735,-41.63079 40.9948,-44.03859 z" />
   <path style="fill:#2879fe;stroke-width:1"
      d="m 262.72153,9.369387 c 88.35997,4.381596 143.13229,54.29972 143.13229,54.29972 l -0.2056,66.807023 h -67.67143 c 0,0 -31.56495,-42.310962 -102.18312,-34.332765 C 159.3035,104.07224 101.48651,175.36253 89.999997,247.79356 v 271.04671 c 0,31.43145 -15.724718,46.41103 -40.601772,46.10735 C 28.590303,564.69361 6.3784991,548.95087 5.8982261,518.84027 V 246.69373 c 0,-64.2235 35.5342449,-124.60344 82.2097189,-169.851373 C 133.7903,31.586162 198.14059,5.1760546 262.72153,9.369387 Z" />
   <path style="fill:#fec401;stroke-width:1"
      d="m 1763.0626,26.81 h -112.9069 c -21.8577,0.1172 -36.4004,25.058 -36.226,49.4408 0.1759,32.3071 -0.3349,64.6349 0.4077,96.9292 -0.01,20.3328 14.8575,40.0989 35.2036,43.7635 23.1047,5.4268 49.9283,-13.2353 52.2089,-38.59826 V 113.81 c 21.9405,-0.1555 66.807,-0.2056 66.807,-0.2056 18.115,-4.0447 36.5545,-21.8922 36.6988,-44.3134 0.1947,-30.2661 -20.9918,-42.3201 -42.1931,-42.481 z" />
</svg>